<?xml version="1.0" encoding="utf-8"?>
<!-- Generator: Adobe Illustrator 17.0.2, SVG Export Plug-In . SVG Version: 6.00 Build 0)  -->
<!DOCTYPE svg PUBLIC "-//W3C//DTD SVG 1.1//EN" "http://www.w3.org/Graphics/SVG/1.1/DTD/svg11.dtd">
<svg version="1.1" id="Layer_1" xmlns="http://www.w3.org/2000/svg" xmlns:xlink="http://www.w3.org/1999/xlink" x="0px" y="0px"
	 width="102.6px" height="80.2px" viewBox="0 0 102.6 80.2" enable-background="new 0 0 102.6 80.2" xml:space="preserve">
<g id="CvxpPM_1_">
	<g>
		<path fill="#56250D" d="M0,0c1.7,5.3,3.2,10.6,4.9,15.9c3.7,11.5,11.6,20,20.2,27.9C37.9,55.6,53,62.7,69.7,67.1
			c3.2,0.8,6.3,2,9.5,3c0.2,0.1,0.3,0.5,0.4,0.8c-8.7,2.2-39.7-11.5-54.7-24.8C11.1,33.8,0.8,19.4,0,0z"/>
		<path fill="#56250D" d="M77.3,75.8c5.1,0.3,10.2,0.6,15.3,0.9c0.6,0,1.5-0.1,1.8-0.5c0.7-1.1-0.3-1.8-1-2.5
			c-3.7-3.3-7.5-6.6-9.7-11.3c-0.5-1-1.7-1.9-0.1-2.9c1.5-0.9,2.5-0.3,3.1,1.2c2.8,6.9,8.6,10.9,14,15.5c0.8,0.7,2.2,1.4,1.8,2.7
			c-0.5,1.6-2,1.3-3.4,1.2c-8.6-0.5-17.2-1.8-25.9-1.4c-1.3,0.1-4,0.8-3.7-1.8c0.2-1.9,2.4-1.3,3.8-1.3C74.6,75.6,76,75.8,77.3,75.8
			C77.3,75.9,77.3,75.8,77.3,75.8z"/>
	</g>
</g>
</svg>
