<svg xmlns="http://www.w3.org/2000/svg" xmlns:xlink="http://www.w3.org/1999/xlink" version="1.1" id="Calque_1" x="0px" y="0px" width="100.3px" height="87.8px" viewBox="0 0 100.3 87.8" enable-background="new 0 0 100.3 87.8" xml:space="preserve"><g><g><g><path fill="#FFFFFF" d="M16.9 32.6c1.6-4.3 3.2-8.6 5.9-12.2c2.7-3.7 6.3-6.6 9.9-9.3S40 5.9 44.2 4.4c4-1.5 8.3-2.5 12.8-2.7 c4.4-0.2 8.7 0.4 12.8 1.6c4.3 1.2 7.9 3.5 11.5 6s7.3 5.1 10 8.6c2.8 3.5 4.7 7.6 6.3 11.8c1.6 4.1 2.3 8.4 2.5 13 c0.2 4.5 0.4 9-0.8 13.2c-1.2 4.3-3.7 8.1-6.3 11.7c-2.6 3.7-5.6 7.1-9.3 9.8c-3.7 2.7-7.9 4.8-12.4 6.3c-4.4 1.4-9 2.5-13.9 2.6 s-9.5-0.9-13.9-2.1c-4.5-1.3-9.1-2.5-12.8-5c-3.7-2.5-6.8-5.8-9.4-9.3c-2.6-3.4-4.5-7.3-5.8-11.5c-1.3-4.1-2.3-8.4-2.1-12.9 C13.6 41 15.4 36.7 16.9 32.6z"/></g><g><path fill="#563F32" d="M23.9 31.7c2-4.4 5.3-7.9 8.6-11.3s7-6.3 11.3-8.2c4.2-1.9 8.6-3 13.3-3.2s9.4 0 13.5 1.4 c4.4 1.7 8.5 4.2 11.8 7.3c3.3 3.2 5.7 7.3 7.7 11.6C92 33.5 93 38 93.2 42.8c0.2 4.8-0.2 9.5-1.8 13.7 c-1.7 4.4-4.3 8.5-7.6 11.9c-3.4 3.3-7.6 6-12.1 7.9c-4.4 1.8-9.3 2.6-14.4 2.7s-9.8-0.8-14.2-2.4c-4.5-1.6-8.9-3.6-12.3-6.7 s-5.4-7.3-7.1-11.5c-1.6-4.1-2.8-8.4-2.6-13.2C21.2 40.5 22 35.8 23.9 31.7z"/></g><g><path fill="#3C2415" d="M87.1 59.3c-1.4 4-3.1 7.5-5.8 10.7c4-3.4 7.7-7.2 9.8-12c2-4.6 2.5-9.9 2.3-15.2 c-0.2-4.8-1.4-9.3-3.3-13.3c-2-4.3-4.9-7.9-8.3-11c-3.4-3.2-7.1-5.8-11.4-7.4c-4.1-1.6-8.6-2.4-13.3-2.2 c-5.2 0.2-10.3 1.2-14.8 3.5c-4.6 2.3-8.8 5.9-12.2 9.9c3.2-2.8 7-4.7 10.9-6.3c3.7-1.5 7.7-2.6 11.8-2.8 c4.8-0.2 9.4 0.1 13.6 1.7c4.3 1.6 8.4 4.2 11.7 7.3c3.4 3.2 5.4 7.4 7.4 11.7c1.9 4.1 3.8 8.5 4 13.3 C89.7 51.5 88.3 55.5 87.1 59.3z"/></g><g><path fill="#FFFFFF" d="M0.5 45.8c-0.3 3.6 2.1 6.7 5.8 6.6c3.9-0.1 4 0.6 7.8-0.6c-0.2-2.1-0.8-4.2-0.7-6.4s1-4.7 1.4-6.8 c-3.6-0.9-4 0.7-7.8 0.8C3.4 39.6 0.7 42.3 0.5 45.8z"/></g><g><path fill="#D1D3D4" d="M14 51.7c-0.3-2.1 0.3-4.1 0.4-6.3s-0.2-4.4 0.2-6.5l0.3 0.1c-2.7 4-5.7 9.2-7.7 13.4 C9.6 54.5 11.4 54.5 14 51.7z"/></g></g></g><path fill="#DCD4C8" d="M42.8 41.3l0.6-1.1l0.3-0.2l0.1-0.1h-0.3v-0.4h0.2h0.1l-0.2-0.2l-0.1-0.2l0.3-1v-0.2l0.1-0.1l0.1-0.2v-0.3 l0.3-0.6l1.4-1.7l0.2-0.1h0.2l0.4-0.4l1.1-0.6l1.6-0.4l1.9-0.2l0.8 0.3l1.7 0.5l0.5 0.3v0.1l0.8 0.5l0.3 0.3l0.5 0.7l0.2 0.3 l0.2 0.1h0.4l0.2-0.1l0.5-0.5l0.1-0.2h0.1l0.2-0.3l0.6-0.5l1.4-0.7l1.1-0.4l0.8-0.2h0.6l0.1 0.1h0.5l0.1-0.1l0.7 0.1l1.2 0.4 l0.2 0.1h0.2l0.8 0.4l0.1 0.2l1.1 0.7l0.1 0.3V36h0.1h0.2l0.2 0.3h0.1l0.6 1v0.5l0.4 0.3l0.3 0.7v0.6l0.1 0.9v0.9l-0.1 0.5l-0.2 0.2 L69 42v0.4l-0.2 0.4l-0.1 0.3l-0.4 0.7l-0.2 0.1L68 44.4l-0.8 0.9v0.2l-1.1 1.3l-0.3 0.4l-0.1-0.1l-0.1 0.2h0.2l-0.1 0.1L65 47.9 l-0.2 0.5l-0.1 0.1l-0.1 0.3l-1.1 1l-1.6 2l-0.4 0.3v-0.2v0.4l-0.3 0.4l-0.8 0.6l-0.2 0.4l-0.3 0.2l-0.1 0.2l-0.3 0.1l-0.2 0.5 l-0.5 0.4l-0.7 1l-0.4 0.3h0.1l-0.1 0.2l-1 1L56 57.9l-0.7-0.2l-1.8-1.9l-0.4-0.6l0.2-0.2v-0.2l-0.1-0.1l-0.3 0.1l-0.3-0.3v-0.1 l-0.2-0.1h-0.1l-0.1-0.2v-0.2l0.3-0.3v-0.1l-0.3 0.1h-0.3l-0.4-0.2l-0.7-0.7l-0.4-0.6l-0.7-0.7l-0.6-0.7l-0.2-0.4L48 49.4l0.1-0.2 l-0.3-0.1l-0.1-0.4h-0.2L47.1 48l-0.2 0.1l-0.7-0.7L45.1 46l0.1-0.3l0.2-0.2l-0.2-0.2l-0.3 0.2h-0.2l-0.4-0.3L44.2 45l-0.1-0.4 l-0.4-0.4l-0.3-0.6l-0.5-1.5v-0.4L42.8 41.3L42.8 41.3z M68.5 42.1L68.5 42.1L68.5 42.1L68.5 42.1z M68.1 41.3l0.2-0.2V41L68.1 41.3 L68.1 41.3L68.1 41.3z M67.6 40.8L67.6 40.8v-0.2l0 0V40.8z M67.3 38.6L67.3 38.6L67.3 38.6L67.3 38.6L67.3 38.6L67.3 38.6z M67.1 43.6L67.1 43.6L67.1 43.6L67.1 43.6L67.1 43.6z M67.1 40L67.1 40L67 39.8h-0.1v0.1L67.1 40L67.1 40z M66.9 44.6l-0.2-0.1 l-0.1 0.2L66.9 44.6L66.9 44.6L66.9 44.6z M66.8 45.3L66.8 45.3V45l-0.1 0.1L66.8 45.3z M66.8 41.2L66.8 41.2l0.1 0.2l0 0L66.8 41.2 z M66.8 37.4l-0.2 0.1l0.2 0.2V37.4L66.8 37.4z M66.8 44L66.8 44l-0.3 0.1l-0.2 0.2L66.8 44L66.8 44z M66.5 35.2l0.2 0.4l0.1-0.2 L66.5 35.2L66.5 35.2z M66.7 42.7l0.1-0.2L66.7 42.7L66.7 42.7z M66.7 43.3L66.7 43.3L66.7 43.3L66.7 43.3L66.7 43.3z M66.6 39.1 L66.6 39.1L66.6 39.1L66.6 39.1L66.6 39.1z M66.3 43.3L66.3 43.3l0.2-0.4l-0.3-0.2l0.2-0.1l-0.1-0.1l-0.1 0.2L66.3 43.3z M66.5 42.4 L66.5 42.4h-0.2H66.5z M66.4 40.4L66.4 40.4L66.4 40.4v0.2V40.4L66.4 40.4z M66.1 41h0.2v-0.2h-0.2V41z M66.3 43.3L66.3 43.3 L66.3 43.3L66.3 43.3L66.3 43.3z M66.1 45.8L66.1 45.8L66.1 45.8L66.1 45.8z M65.4 41.9l0.3-0.1l0.2 0.2l0.2-0.2l-0.2-0.1l-0.3-0.2 v-0.1l0.3-0.1l0.2 0.1l0.1-0.2L66 41.1h-0.3l-0.2 0.3l-0.2 0.1v0.2l-0.1 0.2L64.9 42l-0.4-0.2l0.2-0.4l-0.3-0.5v-0.4l0.1-0.2 l0.1-0.2l0.1 0.1l-0.1 0.4l0.1 0.1h0.2v-0.1l0.3-0.2v-0.3v-0.2L64.9 40l-0.1-0.1l-0.1-0.3l-0.1 0l-0.1-0.2l0.1-0.1l-0.1-0.1 l-0.2 0.1h-0.2l-0.2-0.4L63.7 39l-0.3 0.4v0.3l-0.1 0.1h-0.6l0.1 0.4l-0.1 0.1h-0.4H62l-0.1 0.2l0.1 0.1l0.5-0.1l0.1 0.1L62.2 41 h-0.1l-0.4-0.2V41l0.3 0.3v0.2l0.1 0.2l0.2 0.1l0.2-0.1l0.1-0.1l0.1 0.1l0.2-0.1v-0.2l-0.1-0.1l0.1 0.1l0.2-0.1l0.1-0.1l0.2-0.8 l0.1-0.1l0.3 0.3l0.1-0.2l-0.2-0.2V40l0.6 0.2l0.1 0.2v0.1l-0.3 0.2L64 40.9l0.1 0.1l-0.2-0.1l-0.1 0.2l0.2 0.1l-0.3 0.5h0.2 l0.2-0.2l0.3 0.1h0.1l-0.1 0.3L64.2 42v0.3l-0.1 0.2l-0.4-0.1l-0.1 0.2l0.8 0.1l-0.1-0.4l0.2-0.1v-0.1l0.2-0.1v-0.1l-0.2 0.2 l-0.1 0.4l0.3-0.3l0.3-0.1v0.6h0.1l0.1-0.2l0.1 0.1L65.4 41.9L65.4 41.9z M66 36.3L66 36.3L66 36.3L66 36.3L66 36.3z M65.6 40.2 l0.1 0.4v-0.2l0.4 0.2L65.6 40.2L65.6 40.2z M65.9 39.1L65.9 39.1L65.9 39.1L65.9 39.1z M65.8 44l0.1-0.4l-0.1 0.1V44L65.8 44 L65.8 44z M65.8 38.5L65.8 38.5L65.8 38.5L65.8 38.5L65.8 38.5L65.8 38.5z M65.8 40.2v-0.3h-0.1L65.8 40.2L65.8 40.2L65.8 40.2z M65.6 40.9h0.2H65.6L65.6 40.9L65.6 40.9z M65.6 46.6v-0.2l0.1 0.1v-0.1h-0.1l0 0l0 0V46.6z M65.4 43L65.4 43l0.1-0.3l-0.2 0.1 L65.4 43z M65.5 37.4l-0.2-0.1v0.1H65.5L65.5 37.4z M65.4 47L65.4 47L65.4 47L65.4 47z M65.2 44.7L65.2 44.7L65.2 44.7L65.2 44.7 L65.2 44.7z M65 37.6l0.2-0.1L65 37.4V37.6z M65 38.7L65 38.7L65 38.7l-0.5-0.4l-0.2 0.1l0.2 0.3l0.3 0.5l0.2 0.1l0.2-0.1v-0.3h-0.1 L65 38.7L65 38.7z M65.2 41.6L65.2 41.6L65.2 41.6L65.2 41.6z M65 44.2L65 44.2L65 44.2l0.2-0.2l-0.4 0.1L65 44.2L65 44.2L65 44.2 L65 44.2z M65.2 38.6L65.2 38.6L65.2 38.6L65.2 38.6z M65 38.1L65 38.1L65 38.1L65 38.1z M65 40.3L65 40.3L65 40.3L65 40.3z M64.9 41.7l0.1-0.2l-0.2-0.1L64.9 41.7L64.9 41.7z M64.9 43.3L64.9 43.3L64.9 43.3L64.9 43.3z M64.7 38.8L64.7 38.8l0.2-0.1 L64.7 38.8z M64.7 42.7v0.2h0.1L64.7 42.7L64.7 42.7L64.7 42.7z M64.8 43.8L64.8 43.8L64.8 43.8L64.8 43.8z M64.5 45.2L64.5 45.2 l-0.2-0.6L64 44.8v0.1l0.1 0.1l0.2-0.1v0.3l0.1 0.2l0.2-0.1l0.1-0.2L64.5 45.2L64.5 45.2L64.5 45.2z M64.6 36.4L64.6 36.4L64.6 36.4 L64.6 36.4z M64.5 48h0.2v-0.1L64.5 48L64.5 48L64.5 48z M64.5 44.5h0.2l-0.2-0.3l-0.2 0.1l0 0l0.1-0.2L64.3 44l-0.2 0.2v0.1 L64.5 44.5L64.5 44.5z M64.7 44.7L64.7 44.7L64.7 44.7L64.7 44.7z M64.1 39.8l-0.2 0.1h-0.1l0.1-0.4l0.5 0.1l0.2 0.3h-0.2l-0.2-0.2 L64.1 39.8z M64.5 37.4L64.5 37.4L64.5 37.4L64.5 37.4L64.5 37.4L64.5 37.4z M64.5 46.7L64.5 46.7l-0.1-0.3h-0.1L64.5 46.7 L64.5 46.7L64.5 46.7z M64.4 47.6l0.1-0.1l-0.2-0.1L64.4 47.6L64.4 47.6z M64.3 41v0.4h-0.1v-0.2l0 0L64.3 41z M64.2 43.7l0.2-0.5 V43l-0.1 0.1l-0.1 0.4H64v0.4v-0.2H64.2z M64.2 48.2l0.1-0.2v-0.1L64.1 48L64.2 48.2L64.2 48.2z M64.3 47l-0.1-0.2h-0.1L64.3 47 L64.3 47z M64.1 37v-0.2V37L64.1 37L64.1 37z M64.1 38.5L64.1 38.5L64.1 38.5L64.1 38.5L64.1 38.5z M64 46l0.1-0.2H64V46L64 46z M63.8 36.1L63.8 36.1L63.8 36.1L63.8 36.1L63.8 36.1z M63.8 37.6L63.8 37.6L63.8 37.6L63.8 37.6z M63.9 43.4L63.9 43.4L63.9 43.4 L63.9 43.4z M63.7 44.6l0.2-0.4h-0.1h-0.1v-0.1l-0.1 0.1L63.7 44.6L63.7 44.6L63.7 44.6z M63.9 45.9v-0.2h-0.2l0.1 0.1L63.9 45.9z M63.7 36.3l-0.2 0.1l-0.1 0.1h0.2l0 0L63.7 36.3z M63.6 42.8h-0.5l-0.2-0.1h-0.2l-0.2 0.2l0.4-0.1l0.3 0.1l0.4 0.4v-0.2l0 0V42.8z M63.6 45.5v0.2V45.5L63.6 45.5L63.6 45.5z M63.5 43.9L63.5 43.9L63 43.6v0.2L63.5 43.9L63.5 43.9L63.5 43.9L63.5 43.9z M63.3 37.7 L63.3 37.7l0.2 0.1l0 0L63.3 37.7z M63 38.4l0 0.4l-0.1 0.1h-0.1L62.7 39v-0.1l-0.1-0.1v-0.1l0.2-0.1l-0.1-0.2h-0.3v0.2l0.1 0.2V39 h-0.2l-0.1-0.1h-0.1l0.1-0.1v-0.3L62 38.3l-0.1 0.1h-0.1l0.1 0.3l-0.1 0.1L61.4 39l-0.2-0.2v0.1L61.1 39l-0.3 0.1l0.1 0.1h0.3 l0.2-0.1l0.1 0.1l-0.2 0.3v0.1l0.2-0.1h0.2l0-0.2v-0.1l0.4 0.5h0.1l0.2-0.1l-0.1-0.3l0.1-0.1l0.1 0.1l0.1 0.2v0.2l0.3-0.1l0.2 0.1 l0.3-0.4l-0.1-0.1l0.1-0.2v-0.2h-0.1l0.2-0.2l-0.1-0.1h0.1l0 0v-0.1h-0.1l-0.1-0.3l-0.2 0.1L63 38.4L63 38.4z M63.4 46.3l-0.1-0.1 h-0.2L63 46.4h0.2L63.4 46.3L63.4 46.3z M63.5 44.4v-0.1h-0.2v0.2h0.1v-0.1H63.5z M63.3 45.5L63.3 45.5L63.3 45.5L63.3 45.5 L63.3 45.5z M63.2 45.7l-0.3-0.1h-0.2l0 0.1v0.2v0.3l-0.1 0.2l0.3 0.1l-0.1-0.2v-0.2l0.2-0.2L63.2 45.7L63.2 45.7L63.2 45.7 L63.2 45.7z M63.2 44.9L63.2 44.9L63.2 44.9L63.2 44.9L63.2 44.9z M63.3 46.8L63.3 46.8L63.3 46.8L63.3 46.8L63.3 46.8z M62.9 40.8 v-0.1l0.1-0.1l0.2-0.1l-0.1 0.2L62.9 40.8L62.9 40.8z M62.9 36.1L62.9 36.1l0.2 0.1v-0.1H62.9z M62.4 45.7L62.4 45.7l0.2-0.2 l0.2-0.2v0.2l0.2-0.2l0.1-0.3h-0.3l-0.1 0.1l-0.2 0.2l-0.3 0.1l0.2 0.1v0.1V45.7z M63.1 48.2L62.8 48v-0.2h-0.2h-0.1v0.1l0.2 0.3 l0.2 0.1L63.1 48.2L63.1 48.2z M62.9 39.3L62.9 39.3l0.1-0.1v0.1H62.9z M62.9 44.4L62.9 44.4L62.9 44.4L62.9 44.4L62.9 44.4z M62.9 35.8l-0.2-0.1L62.9 35.8L62.9 35.8L62.9 35.8z M62.4 37.7h0.2h0.3l-0.1-0.2l-0.1-0.2v-0.1l-0.1 0.1l-0.1 0.3L62.4 37.7z M57.6 48.5l0.4 0.1l-0.2-0.4l0.2-0.1l0.4 0.5h0.5l-0.2-0.2l-0.2-0.1l0.1-0.3l0 0h-0.2l0 0l0.1-0.2l0.1-0.1l0.1-0.4h-0.5v0.1h0.2 l-0.1 0.1h-0.2l-0.3-0.1l0.2-0.7l-0.3-0.9v-0.3l0.2-0.2H58l-0.1 0.6l0.1 0.2l0.3 0.3v0.4l0.1 0.2l0.3 0.1L59 47l0.1 0.1L59 47.2 l0.4 0.2l-0.2 0.4l-0.3-0.1v0.4l0.2 0.1l0.2-0.1l0.2 0.1v0.2l0.2-0.1l0.2 0.1l-0.1 0.2l-0.1 0.2v0.1h0.2v-0.1l0.1-0.1h0.3l-0.5-0.8 h-0.1l-0.2-0.1l0.1-0.2l0.4 0.2h0.1l0.1-0.2v-0.2h0.1l0.1 0.2l0.2-0.1v-0.2l-0.1-0.2l-0.4 0.1l-0.2 0.1h-0.3l0.1-0.1l0.4-0.1 l0.2-0.1v-0.2l0.5 0.2h0.1l-0.2-0.5v-0.4l0.1-0.1l0.5 0.2l0.1-0.2l-0.2-0.2l0.2-0.1l0.3-0.5v-0.1v-0.5L61.6 45l-0.4 0.2l0.1 0.2 l-0.1 0.1L61 45.6l-0.3-0.3l-0.1-0.2l0.3-0.4l0.3 0.1l0.1 0.2l0.1-0.1v-0.3v-0.1l-0.2-0.1l-0.1-0.1l0.1-0.2h0.2l0.4-0.5l0.2 0.1 v-0.1l0.1-0.1L62 43.3V43l-0.1-0.2L61.5 43l-0.1-0.2l0.1-0.2l0.1-0.1l0.2-0.2v-0.1l0.2 0.1l0.3 0.3l0.2-0.1v-0.2l0.2-0.1h0.1 l-0.1-0.5l-0.2 0.1l-0.3 0.6l-0.3-0.3l0.2-0.1v-0.1l-0.4-0.2l-0.2-0.4l-0.3 0.2h-0.1L61 41.4V41l-0.1-0.2l-0.5-0.2v-0.2l0.4 0.2 l0.6-0.2L61 40l-0.1 0.4l-0.1 0.1l-0.2-0.1l-0.3-0.1l-0.2 0.1L60 40.3v0.2l0.4 0.4L59.6 41l-0.2-0.1h-0.1l-0.1-0.1v-0.2l0.2-0.1 v-0.2l-0.3-0.2h-0.2l-0.2 0.3l0.2 0.1l0.1 0.2L58.9 41l-0.2 0.1h-0.2l-0.2 0.3l-0.2 0.1L58 41.4v0.2l0.4 0.2l0.1-0.2l0.1 0.3 l0.1-0.1l0.2-0.4H59v0.2l-0.3 0.6h-0.2L58.3 42h-0.1l-0.3 0.2l-0.1-0.1v0.3l-0.1 0.2l-0.2-1l-0.1-0.1l-0.1 0.2l0.1 0.4l-0.2 0.1 L56.8 42l-0.3 0.1v0.4l-0.1 0.2l-0.1-0.2L56 42.4h-0.4L55.5 43l-0.1 0.1v0.3l0.3-0.1v-0.2l0.6 0.1l0.3-0.1l0.1-0.1l-0.5-0.2 l-0.4-0.4v-0.2l0.1-0.1l0.2 0.3l0.2 0.4l0.1 0.1l0.6-0.3h0.2l0.1 0.2v0.1h0.1l0.6-0.7l0.1 0.3l0.2 0.1h0.2l-0.1-0.2h-0.1l-0.1-0.2 l0.3 0.1h0.3l0.3-0.2h0.1l0.1 0.2l-0.2 0.1l0.2 0.3l0.1 0.2l0.1-0.2v-0.2l0.2-0.2v-0.2l0.2-0.4h0.2l0.2 0.2h0.1l0.1-0.4l0.2 0.1 L60.6 42l-0.5 0.4L60 42.7l0.2 0.3l0.1 0.2l-0.1 0.1L60 43.4v0.1h0.1v0.2l0.1 0.1h0.2l0.2 0.1l0.1 0.2v0.6l-0.1 0.1L60.2 45L60 45.1 l0.1-0.4l-0.2 0.2l-0.2 0.7l0.4 0.2v-0.1L60 45.6v-0.1l0.2-0.2v0.3l0.1 0.2h0.1l0.1 0.2l-0.3 0.1l0.3 0.2v0.1l-0.1 0.1H60l-0.1 0.3 h-0.2l0.1-0.4l-0.4-0.1L59 46l0.4-0.1h0.3v-0.4h-0.5l-0.3 0.2l-0.1 0.2l0.1 0.1l-0.2 0.4v0.5l-0.3-0.3v-0.2l0.3-0.2l0-0.5l0.2-0.2 l0.1-0.2L58.9 45l-0.2-0.2l0.1-0.3h-0.3h-0.4l0.1-0.4L57.8 44l-0.2-0.1v-0.2h-0.3l0.5 0.7v0.2l0.2 0.1l-0.1 0.2h-0.2h-0.2h-0.1v0.2 l0.1 0.1l-0.1 0.2V46l-0.3 0.1L56.8 46l-0.1-0.1l-0.1-0.3l0.2-0.2l0.3 0.1l0.1-0.2l-0.1-0.6v-0.1l0.2-0.1l-0.1-0.4L57.1 44l-0.3 0.2 v0.3l-0.2 0.4l0.1 0.2l-0.1 0.1l-0.7 0.1l0.1-0.5l-0.1-0.2l-0.2 0.2h-0.3V45l0.3 0.1l0.2 0.3v0.9l0 0h0.2l0.2-0.1l0.1-0.3l0.1 0.1 v0.4l0.2 0.3l0.2-0.3h0.2v0.1l-0.2 0.2v0.2h0.2l0.2 0.2v0.2l-0.2 0.2l-0.2 0.1l0.2-0.5l-0.2 0.1l-0.6 0.6l-0.1-0.1l0.1-0.2l0.5-0.5 l-0.1-0.2l-0.8-0.2l-0.1 0.1l-0.1 0.2h0.1l0.3-0.1l0.1 0.1l-0.1 0.2L56 47.3h-0.2l-0.4-0.4L54.9 47l-0.5-0.4v-0.2l0.2-0.1l0.1 0.2 l0.5 0.2h0.3l-0.1-0.2h-0.2l-0.3 0.1l-0.1-0.1v-0.2v-0.2h0.3v-0.3l0.1-0.2v-0.2l-0.3-0.2L54.8 45l-0.3 0.4l0.2 0.1v0.3h0.2L54.8 46 l-0.1 0.1l-0.8 0l-0.1 0.3l0.1 0.2l-0.2 0.2h-0.2l-0.1-0.3l-0.1 0.1l-0.1 0.3h0.2l-0.1 0.6l0.2-0.1l0.1-0.1l0.3-0.1v-0.3h0.4 l0.1 0.2l0.8 0.2l0.2 0.2v0.2l0.3-0.1l0.1-0.1v0.2l-0.1 0.4l0.1 0.1l0.1-0.1l0.2-0.2l0.2 0.1v-0.2l0.1-0.1l0.6 0.1l-0.2 0.4 l-0.5 0.4h-0.1h-0.1L56 48.3l0 0v0.6l0.1 0.3l0.3-0.1l0.3-0.4H57v-0.3l0.1-0.1l0.3-0.2h0.2l0.1 0.4L57.6 48.5z M62.8 40.9L62.8 40.9 L62.8 40.9L62.8 40.9L62.8 40.9z M62.8 45.9L62.8 45.9L62.8 45.9L62.8 45.9L62.8 45.9z M62.8 47.2V47l0 0h-0.3l0 0.1l0.1 0.1h0.3 H62.8z M62.8 48.5L62.8 48.5L62.8 48.5L62.8 48.5L62.8 48.5z M62.7 39L62.7 39L62.7 39L62.7 39L62.7 39L62.7 39z M62.8 43.5 L62.8 43.5v0.3l0 0V43.5z M62 44.1v0.6l0.7-0.5l-0.1-0.1h-0.5l0 0H62z M62.6 49.7l-0.1-0.2L62.6 49.7L62.6 49.7L62.6 49.7z M62.3 48.8L62.1 49l0.5 0.1V49l-0.1-0.2H62.3z M62.2 36.2v0.2l0.2-0.1l0.1-0.1H62.2L62.2 36.2L62.2 36.2z M62.5 36.9v-0.2V36.9 L62.5 36.9L62.5 36.9z M62.4 41.4v-0.1l0.1-0.1L62.4 41.4L62.4 41.4L62.4 41.4z M62.4 48.4v-0.2V48.4L62.4 48.4L62.4 48.4z M62.4 47.3L62.4 47.3L62.4 47.3L62.4 47.3L62.4 47.3z M62 37.4L62 37.4l0.2 0.1l0.1-0.2h-0.1L62 37.4L62 37.4z M62.1 47L62.1 47 L62.1 47L62.1 47L62.1 47z M62.4 48.1L62.4 48.1L62.4 48.1L62.4 48.1z M62.3 49.1l-0.2 0.2v0.1h0.2V49.1z M61.8 37.1L61.8 37.1 l0.3-0.5H62l-0.2 0.3V37.1z M61.9 46.2l0.2-0.1l-0.2-0.2l-0.3-0.1v0.1l0.2 0.1l0.1 0.1V46.2z M62.1 47.3L62.1 47.3L62.1 47.3 L62.1 47.3z M62 51.2l0.1-0.2L62 51.2L62 51.2z M61.6 48.9v0.4l0.2-0.1l0.2 0.1l0.1-0.1l-0.2-0.3l-0.2-0.1l-0.2 0.1l0 0H61.6z M61.9 37.9l-0.1 0.3l0.2-0.1L61.9 37.9L61.9 37.9L61.9 37.9z M61.9 45.1v-0.2V45.1L61.9 45.1L61.9 45.1z M61.8 45.6L61.8 45.6 L61.8 45.6L61.8 45.6L61.8 45.6z M62 47.1L62 47.1L62 47.1L62 47.1L62 47.1L62 47.1z M61.8 40.1L61.8 40.1l-0.5 0.7L61.2 41l0.2 0.1 h0.1L61.4 41l0.1-0.3l0.4-0.2l-0.1-0.1V40.1L61.8 40.1z M61.9 48L61.9 48L61.9 48v0.2V48z M61.7 40v-0.2h-0.1L61.7 40L61.7 40 L61.7 40z M61.7 44.2h-0.2v0.2l0.1 0.1h0.1V44.2L61.7 44.2L61.7 44.2z M61.7 50.4L61.7 50.4L61.7 50.4L61.7 50.4z M61.4 36.4 L61.4 36.4L61.4 36.4l0.1 0.2l0.2-0.1l-0.1-0.1H61.4z M61.6 36.6L61.6 36.6l-0.5 0l0.1 0.2l0.1 0.1v0.2l0.4-0.3L61.6 36.6L61.6 36.6 z M61.7 38.4l-0.3-0.2l-0.1-0.1l-0.2 0.1h-0.2l0.1 0.1l0.5 0.2L61.7 38.4L61.7 38.4L61.7 38.4z M61.3 47.3l0 0.1v0.1h0.3l-0.2-0.4 L61.2 47l-0.3 0.2l-0.2 0.2L61.3 47.3L61.3 47.3z M60.9 43.5l0.4 0.4l0.2-0.2l0.1 0.1L61.4 44h-0.2L61 43.8l-0.1-0.1V43.5L60.9 43.5 z M61.4 48.1L61.4 48.1v-0.4h-0.1l0.1 0.3V48.1L61.4 48.1L61.4 48.1z M60.7 37.4v0.4h0.2l-0.1 0.1l0.1 0.2L61 38l0.1-0.2l0.2 0.1V38 h0.1l-0.1-0.5l-0.1 0.1l-0.1 0.2L61 37.6v0.2h-0.2l0.2-0.1l-0.2-0.1l0.1-0.1h0.3v-0.2l-0.3 0.1v-0.1L60.7 37.4L60.7 37.4z M61.3 51.5L61.3 51.5L61.3 51.5L61.3 51.5z M61.3 36.3L61.3 36.3l-0.2 0.1L61.3 36.3C61.3 36.4 61.3 36.3 61.3 36.3z M60.8 42.2 l0.2-0.1v-0.2l0.2 0.1v0.2l-0.1 0.1L60.8 42.2L60.8 42.2L60.8 42.2z M60.8 42.8h-0.2l-0.2-0.2l0.1-0.1v-0.2h0.2L60.8 42.8l0.1-0.1 l0.1-0.1l0.1 0.1v0.1H61l0.1 0.2l0 0.3L61 43.4l-0.1-0.1h-0.2l-0.1-0.2L60.8 42.8L60.8 42.8z M61.3 46.5v-0.2L61 46.4l0.1 0.2 l0.1-0.1H61.3z M61 48.2l0.1-0.2H61V48.2L61 48.2z M60.8 35.7L60.8 35.7L60.8 35.7L60.8 35.7L60.8 35.7z M60.8 48L60.8 48L60.8 48 v0.2V48z M60.7 49.5L60.7 49.5L60.7 49.5L60.7 49.5z M60.7 37v0.2l0 0V37z M60.1 39.1L60.1 39.1l0.2 0.1l0.3-0.3h0.1v-0.1l0-0.1 h-0.2L60.1 39.1L60.1 39.1C60.1 39 60.1 39.1 60.1 39.1z M60.4 39.9l0.2-0.1v0.1l0.1-0.2v-0.1h-0.3l-0.5-0.3l-0.2 0.1l0.2 0.2 l0.3 0.2L60.4 39.9z M60.3 36.9L60.3 36.9l0.1-0.2l0.2-0.1l-0.2-0.1L60.3 36.9L60.3 36.9z M60.6 48.6L60.6 48.6L60.6 48.6L60.6 48.6 z M60.3 44h0.2v-0.1l-0.2-0.1l-0.2 0.1L60 44v0.2l0.2 0.2L60.3 44L60.3 44z M60.1 44.8h0.2v-0.2h-0.1L60.1 44.8z M59.6 53l0.3-0.1 l0.3-0.2h0.2l-0.1-0.1l-0.4 0.2l-0.2-0.1l0.2-0.2l-0.1-0.1l-0.2 0.2V53L59.6 53z M60 41.5h0.2v0.2h-0.1L60 41.5z M60 38.3l0.2-0.1 l-0.1-0.1h-0.2L60 38.3z M60.2 38.4L60.2 38.4L60.2 38.4L60.2 38.4z M60 37L60 37L60 37L60 37z M59.8 37.7L59.8 37.7L59.8 37.7 L59.8 37.7z M59.9 46.4L59.9 46.4l-0.2-0.1l0 0L59.9 46.4z M59.7 36.7L59.7 36.7L59.7 36.7L59.7 36.7z M59.7 49h-0.3l-0.1-0.1 l-0.1-0.2h-0.1L59 48.9L58.8 49l-0.1 0.2l0.4 0.2l0.1-0.2h0.5l0 0V49z M59.6 49.6l0-0.2h-0.1h-0.2l-0.2 0.2l-0.3 0.1l0.2 0.1h0.2 L59.6 49.6L59.6 49.6z M59.2 41.7v-0.3h0.3h0.2l-0.2 0.3l-0.2 0.1L59.2 41.7L59.2 41.7z M59.6 37.4L59.6 37.4L59.6 37.4L59.6 37.4z M59.5 40.1l-0.1 0.2l0.2 0.1L59.5 40.1L59.5 40.1z M59.6 44.5l-0.4 0.1L59 44.5v0.2h0.4h0.1L59.6 44.5 C59.6 44.5 59.6 44.5 59.6 44.5z M59.3 46.5l0.2 0.2L59.3 46.5L59.3 46.5L59.3 46.5z M59.2 40l0.2-0.1h0.1l-0.1-0.2l-0.2 0.1V40z M59.5 43.3L59.2 43H59l0.2 0.3H59.5z M59.4 38.4L59.4 38.4l-0.2 0.2l0.1 0.6l0.1-0.2l-0.1-0.1l0.1-0.2V38.4L59.4 38.4z M59.1 36.6 v0.2l0.2-0.1v-0.1H59.1L59.1 36.6z M59.2 52.5l0.2-0.1L59.2 52.5L59.2 52.5z M58.6 43.9L58.6 43.9l0.2 0.4l0.5-0.1l-0.2-0.4h-0.2 l-0.4-0.1h-0.1v0.1l0.2-0.1V43.9L58.6 43.9L58.6 43.9z M59.2 50.7l-0.1-0.2v-0.2L59 50.4l-0.1 0.2h-0.1l0.2 0.1H59.2L59.2 50.7z M58.9 51.2h0.2h0.1v-0.1L59 51l0 0L58.9 51.2z M59.1 38.2l-0.3-0.1l-0.3 0.2l0.1 0.2l0.2 0.1L59.1 38.2L59.1 38.2L59.1 38.2z M59 39.3L59 39.3h0.2v-0.1L59 39.3z M59.1 45L59.1 45L59.1 45L59.1 45L59.1 45z M59 49L59 49L59 49L59 49z M59.1 53.4l-0.4-0.1v0.2 l0.4 0.1l0 0V53.4z M59 48.1L59 48.1L59 48.1L59 48.1z M58.7 36.7H59v-0.2h-0.2L58.7 36.7z M58.8 39.1L58.8 39.1L58.8 39.1 L58.8 39.1L58.8 39.1z M58.7 42.8l-0.1 0V43l0.2 0.1l0.1-0.2h-0.1L58.7 42.8z M58.3 50h0.1l0.3 0.2l0.1-0.1l-0.1-0.2L58.5 50 l-0.2-0.3l-0.1-0.1L58.3 50L58.3 50z M58.8 50.4L58.8 50.4L58.8 50.4L58.8 50.4L58.8 50.4z M58.2 38.8L58 38.9h-0.3l-0.1-0.2V39 l0.2 0.3l0.2-0.1l0.1 0.1L58 39.5l-0.5 0.1v0.1v0.1l0.2-0.1l0.6 0.3h0.2l0.2-0.1l-0.2-0.2l-0.2-0.1l-0.1-0.3l0.3-0.1l0.1-0.4 C58.6 38.8 58.2 38.8 58.2 38.8z M58.7 45.4l-0.2 0.1l-0.1 0.2l0.1 0.1L58.4 46l-0.1-0.2l-0.2-0.4l0.1-0.1l0.3-0.1L58.7 45.4 L58.7 45.4L58.7 45.4z M58.7 52.6l-0.4-0.1L58.7 52.6L58.7 52.6z M58.6 38l-0.1 0.2L58.6 38L58.6 38L58.6 38z M58.3 43.4l0.4-0.2 L58.4 43l-0.5-0.2v0.8l0.1 0.1l0.2-0.3v-0.1l0.2-0.1l0 0L58.3 43.4L58.3 43.4z M58.5 51.8v-0.1l-0.2 0.2L58.5 51.8L58.5 51.8 L58.5 51.8z M58.5 48.7L58.5 48.7L58.5 48.7L58.5 48.7z M58.2 48.2l0.2-0.1v0.1H58.2L58.2 48.2L58.2 48.2z M58.3 49.5l0.2-0.2 l-0.1-0.1h-0.1V49.5L58.3 49.5L58.3 49.5z M58.2 50.7l0.2-0.3v-0.1l-0.1 0.1h-0.4h-0.1l0.2 0.5L58.2 50.7L58.2 50.7L58.2 50.7z M58.1 40.7v0.2l0.2 0.1v-0.2L58.1 40.7L58.1 40.7z M58.4 51.2l-0.2 0.1L58.4 51.2L58.4 51.2z M58.2 54.9L58.2 54.9l-0.1-0.3l0 0 L58.2 54.9z M58.3 39.9l-0.2-0.1l0.1-0.1l0 0L58.3 39.9z M58.2 40.1L58.2 40.1v0.2V40.1z M58.1 41.1L58.1 41.1L58.1 41.1L58.1 41.1z M57.9 49.5l0.2-0.1l-0.2-0.2v-0.1l-0.2-0.2l-0.1 0.2l0.1 0.2L57.9 49.5L57.9 49.5z M58 37L58 37v-0.2V37L58 37z M58 47.6L58 47.6 v0.2h-0.1v-0.1L58 47.6z M58 41L58 41L58 41L58 41z M57.4 47.7l0.3-0.2l0.2 0.1v0.1l-0.2 0.1L57.4 47.7L57.4 47.7z M57.8 49.8 L57.8 49.8L57.8 49.8L57.8 49.8z M57.8 50.9l0.1-0.2l-0.2 0.2l0 0H57.8z M57.3 38.9l-0.1-0.2l-0.1 0.1l0.1 0.2l-0.1 0.1l-0.2 0.1 l-0.1 0.4h-0.2v0.2l0.1 0.1l-0.3 0.4l-0.1 0.1v0.1h0.2l0.1-0.1l0.2-0.1l0.1 0.1l-0.1 0.1h-0.1l0.1 0.2l-0.1 0.1l-0.6-0.1l-0.3 0.1 v0.1l0.5 0.1l0 0l0.1-0.2h0.1l0.1 0.5l0.3 0.2l0.1-0.1l-0.1-0.2H57l0.6 0.2v-0.3l0.1-0.2v-0.4l-0.1-0.2h-0.2L57 40l0.1-0.3v-0.5 l0.2-0.1h-0.2L57.3 38.9L57.3 38.9z M57.7 55.3l0.1-0.2h-0.1V55.3L57.7 55.3L57.7 55.3z M57.7 40.3h-0.2H57.7v-0.1V40.3z M57.6 50.3 l0.1-0.2h-0.3L57.6 50.3L57.6 50.3z M57.6 41.2L57.6 41.2l-0.3-0.1l0.2-0.1l0.1 0.1V41.2z M57.5 44.4l0.1-0.1L57.5 44.4L57.5 44.4 L57.5 44.4z M57.2 42.5l0.2-0.1l0.1 0.2v0.1h-0.2L57.2 42.5z M57.6 48.7h-0.3l-0.1 0.1V49L57.6 48.7L57.6 48.7L57.6 48.7z M57.5 51.3h-0.2H57.5L57.5 51.3L57.5 51.3z M56.7 49.7V50h-0.2v-0.1l0.2 0.2h0.2L57 50l-0.2-0.2l0.2-0.3l-0.3-0.1l0.2-0.2h0.4v-0.3 L57 49l-0.2 0.1v0.1l-0.3 0.1h-0.1v0.1L56.7 49.7L56.7 49.7z M57.3 50.8L57.3 50.8L57 50.9l0.3 0.2V50.8L57.3 50.8z M57.2 40.8 L57.2 40.8L57.2 40.8L57.2 40.8L57.2 40.8z M57.2 52.7h0.2H57.2L57.2 52.7L57.2 52.7z M56.9 38.1h0.2V38l0 0L56.9 38.1z M57 54.9 L57 54.9L57 54.9L57 54.9L57 54.9z M56.8 41.1l0.2-0.2V41L56.8 41.1L56.8 41.1z M56.7 44.2l0.2-0.2l0.1-0.4l-0.2 0.1L56.7 44V44.2z M56.7 37.8L56.7 37.8h0.2l0 0H56.7z M56.9 38.4L56.9 38.4L56.9 38.4L56.9 38.4L56.9 38.4L56.9 38.4z M57 51.7l-0.3 0.1l-0.1 0.1 l0.2 0.1v-0.2L57 51.7L57 51.7z M56.8 52.8l-0.2 0v-0.2l0.2-0.3H57l-0.1-0.2h-0.2v0.2h-0.2l-0.1 0.1v0.1l0.2 0.2L56.8 52.8 L56.8 52.8z M56.8 53.6L56.8 53.6L56.8 53.6L56.8 53.6L56.8 53.6z M56.8 55.7L56.8 55.7L56.8 55.7L56.8 55.7z M56.5 36.8l0.2 0.1 v-0.1H56.5z M56.5 37.9L56.5 37.9l0.1 0.2l0 0L56.5 37.9z M56.5 39v0.2V39L56.5 39L56.5 39z M56.5 48.1v-0.2V48.1L56.5 48.1 L56.5 48.1l-0.2 0.2h0.1L56.5 48.1L56.5 48.1z M55.7 41.4l-0.3 0.1v0.2v0.2V42l-0.2 0.1v0.1l0.7-0.1l0.3 0.1l0.1-0.4l-0.1-0.1 l0.1-0.1l0.2-0.2l-0.1-0.1l-0.2-0.1H56v0.3l-0.1 0.2h-0.1L55.7 41.4z M56.2 43.9l0.1 0l0.1-0.1v-0.1L56.2 43.9L56.2 43.9L56.2 43.9z M56.2 39.6L56.2 39.6L56 39.3l-0.4 0.2l0.1 0.2l0.1-0.2h0.1l0.1 0.2v0.1h0.1v0.1l0.2 0.1l0.1-0.2L56.2 39.6L56.2 39.6L56.2 39.6z M56.4 49.9L56.4 49.9L56.4 49.9L56.4 49.9L56.4 49.9L56.4 49.9z M56.2 48.9L56.2 48.9l0.1-0.2h0.1l-0.1 0.2 C56.3 48.9 56.2 48.9 56.2 48.9z M56.2 50.2L56 50.3h-0.1v-0.1l-0.1 0.1l-0.1 0.2h0.4l0.2 0.1l0.1-0.1l-0.1-0.1L56.2 50.2z M56.3 53.4v-0.2l-0.2 0.1l-0.2 0.2L56.3 53.4L56.3 53.4L56.3 53.4z M56.2 55L56.2 55L56.2 55L56.2 55z M56.2 44.3L56.2 44.3 L56.2 44.3L56.2 44.3z M55.8 52.8l0.2 0.1l0.2-0.2H56h-0.2V52.8z M56.2 56.1L56.2 56.1L56.2 56.1L56.2 56.1L56.2 56.1z M55.7 38.9 L55.7 38.9l0.1 0.2l0.2-0.2v-0.1l-0.2-0.2l-0.1 0.1V38.9z M55.9 50.3l0.2-0.1V50L55.9 50.3L55.9 50.3z M56.1 52.3L56.1 52.3 L56.1 52.3v0.2V52.3z M55.3 40.8l0.4-0.2l0.1-0.2l-0.1-0.1L56 40v-0.1h-0.3l0.1-0.1h-0.4l0.1 0.3l-0.1 0.1l0.2 0.2h-0.2l-0.1 0.2 V40.8z M56 51.7h-0.2l0.1 0.1L56 51.7z M55.9 49.7L55.9 49.7L55.9 49.7L55.9 49.7z M55.5 44.7l0.1-0.2l0.2-0.1l-0.1-0.2L55.5 44 l-0.1 0l-0.2 0.1L55.5 44.7L55.5 44.7L55.5 44.7z M55.6 46L55.6 46l0.2-0.2h-0.1L55.6 46L55.6 46z M55.7 50.6L55.7 50.6L55.7 50.6 L55.7 50.6L55.7 50.6z M55.7 51.5L55.7 51.5L55.7 51.5L55.7 51.5z M55.7 56.8v-0.2l0 0V56.8L55.7 56.8z M55.3 49.2l0.4-0.4v-0.2 l-0.3 0.3L55.2 49l-0.4-0.3v-0.1l-0.2-0.2l0.2-0.1v-0.1l-0.4-0.1l-0.3 0.2l0 0L53.9 48l-0.1-0.2v0.3v0.2l-0.3 0.2v0.1H54l0.1 0.2 L54 48.9L53.8 49l-0.3 0.1l0.1 0.2h0.1l0.6 0.4l0.2 0.3l0.4 0.2v-0.3h-0.1l-0.3-0.3l0.4-0.2l-0.2-0.1l-0.1 0.1l-0.2-0.3v-0.3v0.1 h0.4L55 49l0.1 0.1L55.3 49.2L55.3 49.2z M55.7 55.4L55.7 55.4L55.7 55.4L55.7 55.4z M55.7 38.8l-0.1 0.1l0.1 0.1V38.8z M55.4 38.6 l-0.1 0.2l0.1 0.1l0.2-0.1L55.4 38.6L55.4 38.6L55.4 38.6z M55.6 50.4l-0.2-0.1l-0.1 0.2l0.1 0.2l0.1 0.1l0.1-0.2 C55.6 50.6 55.6 50.4 55.6 50.4z M55.6 55.8l-0.2 0.1L55.6 55.8L55.6 55.8z M55.4 51.8l0.2-0.2l-0.3-0.1L55.4 51.8L55.4 51.8z M55.4 57.2L55.4 57.2v-0.3V57l0 0V57.2z M55.5 48l-0.1 0.1l0.1 0.1V48z M55.4 49.9L55.4 49.9L55.4 49.9L55.4 49.9L55.4 49.9z M55.4 39.5L55.4 39.5L55.4 39.5L55.4 39.5z M55.3 52.4L55.3 52.4L55.3 52.4L55.3 52.4z M55.4 40.9l-0.5-0.2L54.8 40l-0.2 0.2 l-0.1 0.1l-0.3-0.2h-0.1l0.1 0.4l0.2 0.1l0.3 0.3l0.2 0.5h-0.1h-0.2l-0.1 0.5h-0.1h0.1v0.2l-0.1 0.1l0.1 0.2v0.1h-0.3v0.2l0.2 0.1 h0.4V43l0.2-0.1l0.2-0.2l0.1-0.2l-0.4-0.1l-0.3-0.2V42l0.2-0.2l0.4-0.1l0.1-0.1L55 41L55.4 40.9L55.4 40.9L55.4 40.9z M55.2 44.8H55 V45l0.1 0.2l0.1 0.1l0.1-0.3L55.2 44.8L55.2 44.8z M55.1 40.2L55.1 40.2L55.1 40.2L55.1 40.2z M55 43.6l-0.3-0.3l-0.2-0.1v0.2 l0.3 0.1l0.2 0.3l0.1 0.1l0.1-0.1L55 43.6L55 43.6z M55.1 50.8l-0.2 0.1h-0.1v0.2l0.2 0.2l0.1-0.2V50.8L55.1 50.8L55.1 50.8z M54.8 37.7h0.3H54.8L54.8 37.7L54.8 37.7z M54.9 48L54.9 48l0.1-0.3l-0.1-0.1l0 0V48z M54.4 50.7L54.4 50.7L54.4 50.7l0.5-0.3 l0.1-0.2h-0.3l-0.3 0.3V50.7z M54.9 54.8L54.9 54.8L54.9 54.8L54.9 54.8z M53.5 45.5L53.5 45.5l-0.2 0.2l-0.1 0.1l-0.1-0.1L53 45.8 V46v0.3l0.3-0.1l0.1-0.1h0.2l0.2-0.2l0.1-0.2l-0.1-0.2h0.1l-0.1-0.1l-0.1 0.1l-0.1-0.1l0.1-0.3l0.1 0.1h0.3l0.2-0.1l0.4-0.5l0.1-0.3 l-0.1-0.1l-0.4 0.2l-0.1-0.1v-0.1H54L53.8 44l-0.2 0.5v0.1H54l0.2 0.2V45L54 44.9v-0.1L53.8 45l-0.2-0.4h-0.2l0.1 0.2l0.1 0.1V45 l-0.1 0.2C53.5 45.2 53.5 45.5 53.5 45.5z M54.8 39.2L54.8 39.2L54.8 39.2L54.8 39.2L54.8 39.2z M54.7 52l-0.1 0.2L54.7 52L54.7 52 L54.7 52z M54.6 56L54.6 56v-0.2V56z M54 39.2v-0.3l-0.1-0.1h-0.1V39h-0.1l-0.3-0.3h-0.1v-0.2h-0.2v0.2l0.2 0.2l0.5 0.2v0.4v0.2 l-0.1 0.1l-0.2-0.3l-0.1 0.3l0.3 0.3h0.2l0.2-0.3v-0.2l0.4 0.2v-0.2l0.2-0.1l-0.6-0.2L54 39.2z M54.7 52.4L54.7 52.4h-0.2H54.7 L54.7 52.4z M54.4 45.6l0.1 0.2h0.1v-0.2H54.4L54.4 45.6z M54.4 38.1L54.4 38.1l0.1-0.2L54.4 38.1L54.4 38.1z M54.4 51.2h0.1v-0.3 h-0.2L54.4 51.2L54.4 51.2z M54.4 38.9L54.4 38.9L54.4 38.9L54.4 38.9L54.4 38.9z M54.3 41.2h-0.2v0.2l0.2 0.1l0.1-0.1L54.3 41.2 L54.3 41.2z M54.3 43.7v-0.2l-0.1 0.1L54.3 43.7C54.2 43.7 54.3 43.7 54.3 43.7z M54.3 47.9v0.2V47.9L54.3 47.9L54.3 47.9z M54.3 38.4L54.3 38.4L54.3 38.4L54.3 38.4L54.3 38.4z M53.6 50.6h0.1l0.1-0.1l-0.1-0.3l0.5-0.3h-0.3l-0.2-0.3h-0.2l-0.2 0.7 l0.1 0.1h0.2V50.6z M54.1 43.2L54.1 43.2L54.1 43.2L54.1 43.2z M54.2 46.6L54.2 46.6l-0.1-0.1l0.1-0.1V46.6L54.2 46.6z M54.1 52 L54.1 52L54.1 52L54.1 52L54.1 52L54.1 52z M53.9 43.5v0.3l0.1 0.1h0.2v-0.1L53.9 43.5L53.9 43.5z M52.7 42.1l0.2 0.1l0.2-0.2 l0.1-0.2l0.6 0.3h0.3V42l-0.4-0.2l0.1-0.1l-0.1-0.3l-0.2-0.3h-0.3L53.1 41L53 40.7l0.4-0.4l-0.2-0.1L53.1 40h-0.2h-0.1l0.1 0.2v0.1 l-0.2-0.2l-0.1 0l0.1 0.2l0.2 0.1l0.2 0.3L52.9 41l0.1 0.5l0.2 0.2l-0.1 0.2l-0.4-0.1v-0.3h-0.2h-0.1l0.1-0.3l-0.1-0.3L52 41 l-0.1 0.4v0.2l0.2 0.2l0.2-0.1l0.1 0.1l0.1 0.2L52.7 42.1z M53.9 47.6l0.1-0.2v-0.1l-0.1 0.1V47.6z M53.9 49.1L53.9 49.1l0.2-0.1 L53.9 49.1L53.9 49.1L53.9 49.1z M54 54.6v-0.2l-0.2 0.2l0.1 0.1L54 54.6L54 54.6z M53.9 41.1L53.9 41.1L53.9 41.1L53.9 41.1 L53.9 41.1z M53.6 43h0.2l0.2-0.2l-0.1-0.3l-0.1-0.1v0.3l-0.6-0.3H53l-0.1 0.2v0.1h0.2l0.1 0.3h0.1l0.1-0.1L53.6 43L53.6 43z M53.9 50.8h-0.4l0.1 0.2h0.2L53.9 50.8L53.9 50.8z M53.8 51.4v-0.1h-0.1h0L53.8 51.4h0.1H53.8z M53.9 53l-0.1-0.2l-0.4-0.1 l-0.1 0.2l0.4 0.1H53.9z M53.7 47.7l-0.4-0.1l-0.1 0.1l0.1 0.1l0.3 0.1L53.7 47.7L53.7 47.7z M50.7 44.6l0.2 0.2l0.3-0.1l0.1 0.2 l0.2 0.1v0.1l-0.1 0.2l-0.1 0.1l-0.1 0.5L50.6 46l-0.1 0l0.1 0.1H51v0.1v0.3l0.1-0.1l0.3 0.1h0.1l-0.2-0.2l-0.1-0.2l0.2-0.1l0.2 0.1 v0.1h0.1l0.1-0.2l-0.2-0.3l0.1-0.3v-0.2l0.1-0.1V45v-0.2l-0.2-0.1l0.1-0.3v0l0.3-0.1L51.7 44l0.3-0.5l0.4 0.4l-0.1 0.3v0.3l-0.2 0.2 l0.5 0.1l0.1 0.2l0.1 0.2h0.3l0.2-0.2v-0.2l-0.4 0.1l0.1-0.5l-0.2-0.1v0.1h-0.1v-0.1l0.4-0.3l0.3-0.5v-0.3l-0.2 0.1l-0.1-0.1v-0.1 h-0.2l0.1 0.4v0.4l-0.1 0.2L52.7 44l-0.1-0.3v-0.2l0.1-0.3h0l-0.6 0.1l-0.2-0.1h-0.2L51.4 43l-0.1-0.2l-0.1 0.1l0.2 0.3l-0.1 0.2 v0.2l-0.1-0.1l-0.4-0.1l-0.1 0.2h-0.2l-0.1 0.2l0.1 0.2l0.1 0.1l-0.2 0.3l-0.3 0.1v0.1l0.2 0.1l0.2-0.1H50.7L50.7 44.6z M53.4 49.5 L53.4 49.5L53.4 49.5L53.4 49.5z M53.4 50.8l-0.5-0.4l-0.1 0.1v0.2l0.2 0.2l0.2 0.1h0.2C53.4 51 53.4 50.8 53.4 50.8z M53.3 54.4 l0.2-0.1l0.1-0.3l-0.1-0.1L53.3 54l-0.1 0.2L53.3 54.4z M53.3 48.1L53.3 48.1L53.3 48.1L53.3 48.1z M53.3 49.7v-0.2h-0.1l-0.1 0.1 v0.2L53 49.9h0.2L53.3 49.7L53.3 49.7z M52.9 39.4v0.2l0.4-0.1l-0.1-0.2h-0.1L53 39.4H52.9z M53.3 49L53 48.7h-0.2l0.1-0.2h-0.1 l-0.2 0.1l0.1 0.4l-0.1 0.2h-0.1v0.2h0.3l0.3-0.4l0 0H53.3z M53.2 35.9L53 36l0.1 0.1h0.1C53.2 36.1 53.2 35.9 53.2 35.9z M52.8 48.3l0.4-0.4h-0.3L52.8 48l0 0C52.8 48 52.8 48.3 52.8 48.3z M53 37.7l0.1-0.1v-0.1L53 37.7L53 37.7z M52.8 38.2H53h0.1H52.8 L52.8 38.2L52.8 38.2z M53.1 50L53.1 50h-0.3l0.1-0.2l-0.1-0.3h-0.2l-0.1 0.1v0.2l0.3 0.2H53.1z M53 51.2h-0.2v0.1L53 51.2L53 51.2z M52.7 46.9l-0.3 0.3v0.4l0.4-0.2l-0.2-0.1v-0.1L52.7 46.9l0.2-0.1l-0.1-0.2l-0.1 0.2V46.9z M52.6 36.9l0.1 0.2h0.1v-0.2H52.6z M52.7 38.7l0.1-0.2l-0.3 0.3L52.7 38.7L52.7 38.7z M52.7 52.9L52.7 52.9L52.7 52.9L52.7 52.9L52.7 52.9z M52.3 42.5l0.2-0.1 l0.2-0.1h-0.2L52.3 42.5L52.3 42.5z M52.5 46.5L52.5 46.5h0.1l0.1-0.1h0L52.5 46.5L52.5 46.5L52.5 46.5z M52.4 40.6L52.4 40.6 L52.4 40.6L52.4 40.6z M51.9 45.9l0.6-0.1l0.1-0.4l-0.1-0.1l-0.3 0.1L51.9 45.9L51.9 45.9z M52.2 37.4l0.3-0.1v-0.1h-0.3V37.4z M52.3 48.2V48h0.3v-0.2l-0.3-0.1v0.2L52.2 48l-0.3-0.1h-0.1l0.2 0.2L52.3 48.2L52.3 48.2z M52.6 50.5L52.6 50.5l-0.1-0.2l-0.1 0.1 l0 0L52.6 50.5z M52.6 52.5l-0.2-0.2v0.1L52.6 52.5z M52.2 48.9l0.2-0.1v-0.1l-0.2-0.1v0.1V48.9L52.2 48.9z M52.3 46.1L52.3 46.1 l0.1 0.2l0 0L52.3 46.1z M52.2 49.9l0.2 0.1L52.2 49.9L52.2 49.9L52.2 49.9z M52.3 38.9L52.3 38.9L52.3 38.9L52.3 38.9z M50.5 37.8 v-0.2l-0.2 0.2L50.5 37.8l0.1 0.1h-0.2V38l0.2 0.1l0.1-0.1l0.1 0.6v0.3L50.7 39l-0.3 0.2l0.1-0.2l0.2-0.1l-0.2-0.4l-0.3-0.1v0.2h0.2 l-0.1 0.1H50h-0.1L49.6 39l-0.1-0.2L49 39.2L48.5 39l0.1 0.3h0.1l0.2 0.1v0.3l0.2 0.3l0.1 0.3L49 40.6l0.1 0.5l0.2-0.1l0.1-0.4h0.2 l0.1 0.2l0.3-0.1L49.8 41v0.2H50l0.2-0.2l0.3-0.6l0.2-0.1h0.1l0.5 0.5l0.2 0.3l0.2-0.1l0.1-0.2l-0.1-0.2l0.2-0.1h0.3v-0.4L52 40 h-0.3v-0.1v-0.4l-0.6 0.3L51 39.7l0.3-0.6h0.4l0.2-0.1l-0.1-0.2l0.1-0.1l0.1-0.1l-0.1-0.1h-0.2v-0.3L51.6 38v0.1v0.5l-0.1-0.1 l-0.4-0.1L51 38.2l-0.2-0.4H50.5L50.5 37.8z M52.2 49L52.2 49h-0.5l0.1 0.1H52L52.2 49L52.2 49z M52.1 49.6L52.1 49.6L52.1 49.6 L52.1 49.6L52.1 49.6z M52.2 50.1L52.2 50.1L52 50.4h0.2C52.2 50.4 52.2 50.1 52.2 50.1z M51.8 37.2l-0.3 0.2v0.2h0.2h0.2v0.3 l0.2-0.1v-0.2l-0.2-0.2L51.8 37.2z M52.1 39.1L52.1 39.1L52.1 39.1L52.1 39.1z M51.9 41.4h0.2l0 0H51.9z M51.9 48.5L51.9 48.5h0.2 l0 0H51.9z M52.1 53.4L52.1 53.4l-0.2 0.1L52.1 53.4C52.1 53.5 52.1 53.4 52.1 53.4z M52.1 38L52.1 38L52.1 38v0.2V38L52.1 38z M51.9 51h0.2H51.9L51.9 51L51.9 51L51.9 51z M51.9 37.3L51.9 37.3l0.1-0.2L51.9 37.3z M52 44.7L52 44.7h-0.2H52 C52 44.8 52 44.7 52 44.7z M51.5 36.2l0.1 0.2v0.1l0.2-0.2l-0.1-0.2L51.5 36.2L51.5 36.2z M51.8 52.6v-0.1l-0.1-0.1L51.8 52.6 L51.8 52.6z M51.7 51.5L51.7 51.5l0.1-0.2v-0.1h-0.1V51.5z M50.6 48.2l-0.2 0.1l0.7 0.2h0.3l0.2-0.2h-0.5L51 48.2l0.3-0.3l0.1-0.2 h-0.2v0.2L51.1 48l-0.2-0.4l-0.1-0.1L51 47h-0.1l-0.2 0.1v0.4l-0.3 0.1v0.1l0.3 0.1V48l-0.3 0.1L50.6 48.2L50.6 48.2z M51.7 47.3 l0-0.2l-0.1 0.1v0.3h0.2L51.7 47.3L51.7 47.3z M50.5 42.5l0.1 0.1h-0.1v0.1l0.2-0.1h0.2l0.2-0.2l0.6-0.2l-0.2-0.5l0.1-0.2l-0.1-0.1 l-0.3 0.1l0.1-0.4l-0.1-0.4l-0.4-0.2l-0.1 0.1l-0.4 0.5h-0.2v0.4l0.2 0.2h0.2l0.1-0.2l-0.2-0.3l0.1-0.1l0.2 0.6l-0.3 0.4V42 l-0.2-0.2h-0.6l-0.2-0.1l-0.2 0.1V42h0.3v0.2l0.2-0.1v0.4v0.1l-0.4-0.2l-0.1 0.4L50.5 42.5L50.5 42.5z M51.5 49.8L51.5 49.8 L51.5 49.8L51.5 49.8L51.5 49.8z M51.5 40.3v0.2l-0.1 0.1L51.5 40.3L51.5 40.3L51.5 40.3z M51.2 44L51.2 44l0.3 0v0.3l-0.1 0.1h-0.1 l-0.2-0.2L51.2 44L51.2 44z M51.5 49.7L51.5 49.7L51.5 49.7L51.5 49.7L51.5 49.7z M51.5 38.8l-0.2 0.1h-0.2v-0.1h0.2H51.5L51.5 38.8 z M51.3 37.4v0.2h0.2L51.3 37.4L51.3 37.4z M51.4 51.7L51.4 51.7L51.4 51.7L51.4 51.7L51.4 51.7z M51.4 37.3l-0.2-0.1l-0.1-0.1 L50.7 37l0.2 0.3l0.2 0.2v-0.1L51.4 37.3L51.4 37.3z M51.4 49.1l-0.2-0.3L51 48.7l0.1 0.3l0.1 0.1H51.4z M51.4 52.6h-0.1l-0.1 0.1 L51.4 52.6L51.4 52.6z M51.3 41.8L51.3 41.8L51.3 41.8L51.3 41.8z M51.1 47.2L51.1 47.2l0.2 0.1l-0.1-0.1l0 0H51.1z M51.1 49.5h0.2 H51.1L51.1 49.5L51.1 49.5z M50.6 36.7l0.3 0.2V37H51l0.1-0.2L51 36.6h-0.3l0 0L50.6 36.7z M51.1 36.2v0.2V36.2L51.1 36.2L51.1 36.2 z M51.1 46.7L51 46.9V47h0.1V46.7L51.1 46.7L51.1 46.7z M51.1 41.4l-0.2 0.1v-0.1H51.1L51.1 41.4L51.1 41.4z M51 42.1L51 42.1 L51 42.1L51 42.1z M51 51.5L51 51.5L51 51.5L51 51.5L51 51.5z M51 39.7l-0.2 0.2L50.6 40l-0.1-0.2l0.1-0.1v-0.2v-0.1l0.1-0.1h0.2 l0.1 0.2C51 39.5 51 39.7 51 39.7z M50.5 45.6l0.2-0.1H51l0.1-0.2h-0.2l-0.2-0.5h-0.1l-0.1 0.5h0.2L50.5 45.6L50.5 45.6z M50.8 44.1 L50.8 44.1L50.8 44.1L50.8 44.1L50.8 44.1L50.8 44.1z M50.7 48.1l0.2 0.1l-0.1 0.1L50.7 48.1L50.7 48.1z M50.7 48.9L50.7 48.9 L50.7 48.9L50.7 48.9L50.7 48.9L50.7 48.9z M50.3 43L50.3 43l0.1 0.3h0.1l0.2-0.2L50.3 43L50.3 43z M50.7 47.1l-0.2-0.2l-0.1-0.1 l-0.1 0.1l0.2 0.2H50.7z M50.5 46.5L50.5 46.5L50.5 46.5L50.5 46.5L50.5 46.5z M50.4 39.6v0.3L50.3 40l-0.1 0.2l0.1 0.1l-0.1 0.1 l-0.6-0.1l-0.1-0.1l0.1-0.2l-0.2-0.2v-0.3v-0.2l0.1-0.1l0.1 0.1l0.1 0.6l0.1 0.3l0.3 0.1l-0.2-0.5h0.3L50.4 39.6H50l-0.2-0.1v-0.2 l0.2-0.1l0.3 0.1v-0.2h0.2v0.1v0.2L50.4 39.6z M50.2 36L50.2 36l0.2 0.1v0.1l0.1-0.2C50.5 36 50.2 36 50.2 36z M50.2 37.2l0.1-0.2 l-0.2 0.1L50.2 37.2l0.2 0.1l0.1-0.1L50.2 37.2L50.2 37.2z M50.2 46l-0.1 0.2v0.1h0.1V46L50.2 46z M50.2 36.7L50 36.9h0.1l0 0 L50.2 36.7z M50.1 44.8L50.1 44.8L50.1 44.8L50.1 44.8z M49.8 39L49.8 39l0.3-0.2V39H50L49.8 39z M50.1 46.7v-0.2h-0.2v0.1 L50.1 46.7L50.1 46.7z M50 47.9L50 47.9L50 47.9L50 47.9z M50.1 50.9L50.1 50.9L50.1 50.9L50.1 50.9z M50 45.2l-0.2-0.1h-0.1 l-0.2 0.3v0.3l0.1 0.1l0.1-0.3L50 45.2L50 45.2z M50.1 48.9L50.1 48.9l-0.2-0.3v0.2l0 0L50.1 48.9z M49.9 50.4h0.3l-0.1-0.3L50 50.2 v0.1L49.9 50.4L49.9 50.4L49.9 50.4z M50 42.1L50 42.1L50 42.1L50 42.1z M50 44.2L49.9 44h-0.1l-0.1 0.3v0.2l0.2-0.1L50 44.2z M49.9 36.2h-0.2l0 0H49.9z M49.8 48.6L49.8 48.6L49.8 48.6L49.8 48.6L49.8 48.6z M49.7 37.3L49.7 37.3L49.7 37.3L49.7 37.3z M49.8 37.4l-0.3 0.4l-0.2-0.1h-0.1l0.2 0.2h0.2v0.2l-0.4 0.1v0.1l0.1 0.2h0.3l0.2-0.5V37.4z M49.8 37.2v-0.3h-0.2v0.2l0 0 L49.8 37.2z M49.8 46.8h-0.2l-0.1 0.4h0.2L49.8 46.8L49.8 46.8z M49.7 47.9L49.7 47.9L49.7 47.9L49.7 47.9z M49.7 50.2v-0.1l0 0l0 0 V50.2z M49.2 41.4h0.1h0.1l0.1 0.3h0.2v-0.2l-0.2-0.2l-0.2-0.2l-0.4 0.1h-0.3v0.1l0.2 0.1H49.2L49.2 41.4z M49.7 49.2L49.7 49.2 L49.7 49.2L49.7 49.2z M49.6 50.7L49.6 50.7L49.6 50.7L49.6 50.7L49.6 50.7z M49.5 50.6L49.5 50.6v-0.2V50.6L49.5 50.6L49.5 50.6z M49.5 35.8L49.5 35.8L49.5 35.8L49.5 35.8z M49.4 45L49.4 45L49.4 45L49.4 45L49.4 45z M49.4 49.6L49.4 49.6L49.4 49.6L49.4 49.6z M49.4 34.4h-0.2v0.1L49.4 34.4L49.4 34.4L49.4 34.4z M49.4 37.5l-0.1-0.1l-0.2-0.1h-0.2l0.1 0.2h0.2H49.4L49.4 37.5z M49.4 46.4 L49.4 46.4L49.4 46.4L49.4 46.4z M49.4 48L49.4 48L49.4 48L49.4 48L49.4 48z M49.4 45.2l-0.2-0.1l-0.1 0.1l0.1 0.1l0 0L49.4 45.2z M49 44.1v-0.2l0.2-0.3H49l-0.1 0.3L49 44.1L49 44.1z M49 36.8l-0.1 0.1L49 36.8L49 36.8L49 36.8L49 36.8z M49.1 38l-0.4 0.2v0.1 h0.2h0.2V38z M48.8 36.3h-0.2l0.1 0.3l0.2-0.1l-0.1-0.1l0 0V36.3z M48.5 38.4l-0.2 0l0.1 0.2v-0.1l0.4 0.1l-0.1-0.1L48.5 38.4 L48.5 38.4z M48.5 41.1l0.4 0.1L48.8 41l-0.3-0.1l0.2-0.4h-0.5L48 40.1L47.9 40l-0.1 0.1l0.4 0.6l0.1 0.3h-0.2l0.1 0.2L48.5 41.1 L48.5 41.1z M47.5 44.1l0.3-0.3l0.3 0.2l0.1-0.2h0.3l-0.1-0.1l0.2-0.2l0.1-0.1l-0.2-0.3l0.2-0.2l0.2 0.1H49l-0.4-0.7h-0.2l0.1 0.1 h-0.3l0.2 0.1v0.1l-0.2 0.2h-0.1V43l0.1 0.1l-0.3 0.3h-0.3l-0.2 0.3l-0.1-0.1h-0.1l0.1-0.2l-0.1-0.1l-0.1 0.1L47 43.6l0.1 0.3 L47.5 44.1z M48.9 44.2l-0.4 0.1l0.2 0.3l-0.2 0.2v0.1h0.3l0.1-0.1V44.2z M48.7 37.8l-0.1-0.2h-0.2v0.1L48.7 37.8L48.7 37.8z M48.7 46l-0.1 0.1l0 0l0.1 0.1V46z M48.4 43.7L48.4 43.7L48.4 43.7L48.4 43.7L48.4 43.7z M48 44.7h-0.3V45h0.4v0.5h0.1v-0.2 l0.4 0.1L48.4 45l-0.2-0.1L48 45V44.7z M48.5 46.4L48.5 46.4L48.5 46.4L48.5 46.4L48.5 46.4z M48.2 41.7h0.2l0.2-0.1l-0.1-0.2h-0.2 L48.2 41.7z M48.4 47l0.2-0.2h-0.1L48.4 47L48.4 47L48.4 47z M48.3 38l0.1 0.2l0 0l0.1-0.2H48.3L48.3 38z M48.4 43.9L48.4 43.9 L48.4 43.9L48.4 43.9z M48.3 46.1l0.2 0.1v-0.1H48.3L48.3 46.1z M48.2 44.1H48l0.1 0.2l0.2 0.1L48.2 44.1L48.2 44.1L48.2 44.1z M48.3 43.9L48.3 43.9L48.3 43.9L48.3 43.9z M48 46.6l0.1-0.4l-0.3 0.1l0 0l0 0L48 46.6z M47.9 37.5l-0.2 0.2l-0.1 0.2l0.3-0.1V37.5 L47.9 37.5L47.9 37.5z M47.9 38.7l0.1-0.3L47.9 38.7L47.9 38.7z M47.7 42.4L47.7 42.4H48l0.1-0.1l-0.4-0.5l0.1 0.4L47.7 42.4z M47.8 47.3l0.1 0.3l0.1 0.1v-0.4H47.8L47.8 47.3z M47.9 39l-0.2 0.1l0.1 0.2h0.1V39L47.9 39L47.9 39z M47.8 40.8L47.8 40.8l0.2-0.2 l-0.1-0.1l-0.2 0.2l0 0L47.8 40.8z M47.8 45.4L47.7 45l-0.2 0.1l0.1 0.2L47.8 45.4z M47.3 40.1L47.3 40.1l0.1 0.1l0.2-0.2v-0.2h-0.1 h-0.1v-0.1l-0.3 0.2l0 0L47.3 40.1z M47.6 46.1L47.6 46.1L47.6 46.1L47.6 46.1z M47.4 42.7l0.2 0.2l0.1-0.1L47.4 42.7L47.4 42.7 L47.4 42.7z M47.5 46.7l0.1-0.3h-0.2v0.3l0 0H47.5z M47.5 38.8L47.5 38.8L47.5 38.8L47.5 38.8L47.5 38.8z M47.3 39.1L47.3 39.1 L47.3 39.1L47.3 39.1L47.3 39.1z M47.5 44.5v-0.3h-0.1l-0.1 0.1v0.2H47.5z M47.3 43.1L47.3 43.1L47.3 43.1L47.3 43.1L47.3 43.1z M47.2 43.1l0-0.1l0.1-0.1l-0.2-0.1L47.2 43.1L47.2 43.1z M47.3 45.4L47.3 45.4L47.3 45.4L47.3 45.4L47.3 45.4L47.3 45.4z M47.1 37.7L47.1 37.7L47.1 37.7L47.1 37.7z M47.2 41.4L47.2 41.4v-0.2V41.4L47.2 41.4L47.2 41.4z M47.2 47.2L47.2 47.2L47.2 47.2 L47.2 47.2z M47.1 46.4l0.1 0.2l0 0L47.1 46.4z M47.2 37.9L47.2 37.9H47H47.2z M46.9 42.9h0.2L47 42.8l-0.2-0.1l-0.1-0.2l0.1 0.2 l0.2-0.5V42h-0.1l-0.1-0.2l0.1-0.1h-0.2l-0.1 0.4h-0.4l0.1 0.3l0.2 0.3v0.1l-0.2-0.1l0.1 0.3L46.9 42.9L46.9 42.9z M46.8 41.2 l0.2-0.1h-0.1L46.8 41.2C46.8 41.1 46.8 41.2 46.8 41.2z M46.8 40.6l0.2-0.1v-0.2h-0.2v0.1V40.6z M47.1 37.5L47.1 37.5l-0.2-0.1v0.1 H47H47.1z M46.9 44.4L46.9 44.4l-0.1 0.2h0.1V44.4z M47 45.5L47 45.5L47 45.5l-0.2-0.1L47 45.5L47 45.5z M46.8 40.5L46.8 40.5 L46.8 40.5L46.8 40.5z M46.6 41.4h0.2v-0.1L46.6 41.4L46.6 41.4L46.6 41.4z M46.6 38.7L46.6 38.7l0.1-0.3l-0.1 0.1V38.7z M46.8 43.6 L46.8 43.6L46.8 43.6L46.8 43.6L46.8 43.6z M46.4 38l-0.1 0.2h0.2L46.4 38L46.4 38L46.4 38z M45.6 44.8l0.1 0.5l0.1 0.2v0.3l0.2-0.1 l0.1-0.2l0.1 0.1l0.2-0.3L46.3 45l0.1-0.1h0.1l-0.1-0.3l-0.2-0.1l-0.4 0.4v-0.3l-0.3-0.2l0.1 0.2V44.8L45.6 44.8z M46.4 37.8 l-0.2-0.1v0.1H46.4L46.4 37.8L46.4 37.8z M45.9 38.8L46 39l0.2 0.1l0.2-0.1v-0.2H45.9z M46.3 41.5L46.3 41.5L46.3 41.5L46.3 41.5z M46.3 45.8L46.3 45.8H46v0.1h0.1L46.3 45.8L46.3 45.8z M45.8 46.1v0.2l0.1 0.2l0.4-0.1v-0.1l-0.2-0.2H45.8L45.8 46.1z M46.1 40.4 l0.1-0.2h-0.1V40.4z M45.9 42.8l0.1-0.2h-0.2L45.9 42.8L45.9 42.8L45.9 42.8z M45.9 43.4L45.9 43.4l0.1-0.1v-0.1h-0.1l0.1 0.1 L45.9 43.4z M45.9 43.5h-0.2v0.1L45.9 43.5L45.9 43.5z M45.8 45.1L45.8 45.1L45.8 45.1L45.8 45.1z M45.7 41.4L45.7 41.4L45.7 41.4 L45.7 41.4L45.7 41.4z M45.7 39.7L45.7 39.7l-0.2 0.2l0.1 0.1h0.1V39.7L45.7 39.7z M45.7 41.1L45.7 41.1L45.7 41.1L45.7 41.1z M45.7 41.5l-0.2-0.1v0.2L45.7 41.5L45.7 41.5z M45.7 43h-0.2l-0.2 0.4l0.2-0.1L45.7 43L45.7 43z M45.5 39.4L45.5 39.4L45.5 39.4 L45.5 39.4L45.5 39.4z M45.3 42.1L45.3 42.1l0.1-0.3l-0.1 0.1V42.1L45.3 42.1z M45.4 42.7h0.2l-0.2-0.2V42.7L45.4 42.7z M44.8 44.5 l0.3 0.3L45 45l0.3-0.2v-0.2L44.8 44.5l0.3-0.3L45 44.1h-0.1l-0.1 0.2V44.5L44.8 44.5z M44.8 42L44.8 42L44.8 42l0.1-0.2L44.8 42 L44.8 42L44.8 42z M44.7 39.9l0.1-0.3l-0.1-0.1l-0.2 0.4l0 0C44.5 39.9 44.7 39.9 44.7 39.9z M44.7 40.7v-0.2l0 0V40.7z M43.9 43.2 h0.2v-0.1L43.9 43.2L43.9 43.2L43.9 43.2z M44.1 42L44.1 42l-0.2-0.2V42C43.9 42 44.1 42 44.1 42z M43.6 40.2l0.2-0.1V40L43.6 40.2 L43.6 40.2z M43.5 42.2L43.5 42.2L43.5 42.2L43.5 42.2z M43.2 41v-0.2h-0.1H43L43.2 41L43.2 41z"/></svg>