<?xml version="1.0" encoding="utf-8"?>
<!-- Generator: Adobe Illustrator 17.0.2, SVG Export Plug-In . SVG Version: 6.00 Build 0)  -->
<!DOCTYPE svg PUBLIC "-//W3C//DTD SVG 1.1//EN" "http://www.w3.org/Graphics/SVG/1.1/DTD/svg11.dtd">
<svg version="1.1" id="Layer_1" xmlns="http://www.w3.org/2000/svg" xmlns:xlink="http://www.w3.org/1999/xlink" x="0px" y="0px"
	 width="247.2px" height="335.3px" viewBox="176.8 117.9 247.2 335.3" enable-background="new 176.8 117.9 247.2 335.3"
	 xml:space="preserve">
<g id="Isolation_Mode" display="none">
	<g display="inline">
		<g>
			<g>
				<g>
					<path d="M385.9,123c-10.1,0.2-10.1,0.2-20.3,0.4c-10.1,0.2-10.1-0.7-20.3-0.5c-10.1,0.2-10.1,1.2-20.3,1.4s-10.1,0.3-20.3,0.5
						c-10.1,0.2-10.1-0.9-20.3-0.7c-10.1,0.2-10.1,0.9-20.3,1.1c-10.1,0.2-10.1-0.7-20.3-0.5c-10.1,0.2-10.1-0.1-20.3,0.1
						c-9.5,0.2-17.5,8.4-17.5,17.4s8,16.9,17.5,16.7c10.1-0.2,10.1-0.5,20.3-0.7c10.1-0.2,10.1-1.1,20.3-1.3
						c10.1-0.2,10.1,0.8,20.3,0.6c10.1-0.2,10.1-0.4,20.3-0.6c10.1-0.2,10.1,0.2,20.3,0c10.1-0.2,10.1-0.4,20.3-0.6
						c10.1-0.2,10.1-1.2,20.3-1.4c10.1-0.2,10.1-0.5,20.3-0.7c9.5-0.2,17.7-6.9,17.7-16C403.6,129.2,395.4,122.8,385.9,123z"/>
				</g>
				<g>
					<path fill="#754C29" d="M304.8,152.1c-9.5,0.2-9.5,0.6-18.9,0.8c-9.5,0.2-9.5-0.9-19-0.7s-9.5,0.3-19,0.5s-9.5,0.8-19,1
						s-12.7-7-19.2-0.4c-6.4,6.5,1,8.9,1.7,17.7c0.7,8.7,1.1,8.7,1.7,17.4c0.7,8.7,0.3,8.8,1,17.5s0,8.8,0.6,17.5
						c0.7,8.7,1.6,8.7,2.3,17.4s-0.5,8.8,0.1,17.6c0.7,8.7,1.5,8.7,2.1,17.4c0.7,8.7,0.6,8.7,1.3,17.5c0.7,8.7,1.1,8.7,1.7,17.5
						c0.7,8.7,0,8.8,0.7,17.5s1.7,8.7,2.4,17.4c0.7,8.7,0.6,8.8,1.3,17.5s-0.8,8.9-0.1,17.6c0.7,8.8,1.6,8.7,2.3,17.4
						c0.7,8.8,1.3,8.7,2,17.5s0.1,8.8,0.8,17.6c0.7,8.8-5.1,10.9,1.6,16.9c6.4,5.9,8.3,1.1,17.3,1.1c8.9,0,8.9,0.1,17.9,0.1
						c8.9,0,8.9,0,17.9,0c8.9,0,8.9,0,17.9,0c8.9,0,8.9,0.2,17.9,0.2c8.9,0,9-1.2,17.9-1.3c8.9,0,8.9,0.4,17.9,0.4
						c8.9,0,10.9,5.4,17.4-0.5c6.7-6.1,0.5-8.4,1.2-17.2c0.7-8.8,1.3-8.8,1.9-17.6c0.7-8.8,1.4-8.8,2.1-17.6
						c0.7-8.8,0.1-8.9,0.7-17.7c0.7-8.8,1.2-8.8,1.9-17.7c0.7-8.8,0.7-8.8,1.4-17.7c0.7-8.8,0.7-8.8,1.4-17.7
						c0.7-8.8,0.4-8.9,1.1-17.7c0.7-8.8,0.2-8.9,0.9-17.7c0.7-8.8,2-8.8,2.7-17.6c0.7-8.9-0.4-8.9,0.3-17.8c0.7-8.9,1.3-8.8,2-17.7
						s0.4-8.9,1.1-17.7c0.7-8.9,0.7-8.9,1.4-17.7c0.7-8.9,0.4-8.9,1.1-17.7c0.7-8.9,0.3-8.9,1-17.7c0.7-8.9,8-11.1,1.6-17.4
						c-6.5-6.4-9.2-0.7-18.7-0.5s-9.5,1.1-19,1.2c-9.5,0.2-9.5-0.5-19-0.4c-9.5,0.2-9.5,1-19,1.3
						C314.3,152.1,314.3,151.9,304.8,152.1z"/>
				</g>
				<g>
					<path fill="#414042" d="M412.5,137.6c-9,0.2-9-0.5-17.9-0.3c-9,0.2-9,0.8-17.9,1c-9,0.2-9,0.6-18,0.8s-9,0.3-18,0.5
						s-9-0.2-18-0.1c-9,0.2-9-0.5-18-0.3s-9,0-18,0.2s-9,0.3-17.9,0.5c-9,0.2-9-0.3-18-0.2c-9,0.2-9,1.3-18,1.5s-9-0.7-18-0.5
						s-9,0.3-18,0.5c-6.1,0.1-12,5.4-12,11.1c0,5.7,5.9,10.3,12,10.2c9-0.2,9,0.6,17.9,0.4c9-0.2,9-1.1,17.9-1.3c9-0.2,9,0,17.9-0.1
						c9-0.2,9-0.7,17.9-0.9c9-0.2,9-0.1,18-0.2c9-0.2,9-0.5,18-0.6c9-0.2,9,1.2,17.9,1c9-0.2,9-0.9,17.9-1.1c9-0.2,9-0.1,17.9-0.2
						c9-0.2,9-0.9,18-1c9-0.2,9,0.4,17.9,0.3c9-0.2,9-0.5,18-0.7c6.1-0.1,12-4.5,12-10.3C424.5,141.8,418.6,137.5,412.5,137.6z"/>
				</g>
				<g>
					<path fill="#BCBEC0" d="M307.9,216.3c-7.3,0.1-14.2,1.1-20.4,2.8c-6.9,1.9-13.3,4.9-18.7,8.4c-5.8,3.8-10.5,8.8-14.4,14
						c-3.9,5.3-7.3,11.1-9.3,17.4c-1.9,6-2.3,12.7-2.3,19.2c0,6.3,2.2,12,4.1,17.6c2,5.8,4,11.6,7.8,16.4c3.8,4.9,8.3,9.4,13.5,12.9
						c5.1,3.5,10.9,6.6,17.1,8.4c6,1.8,12.5,1.7,19.1,1.6v1.1c6.7-0.1,13.4-1.6,19.6-3.6c6.3-2,12.6-4.7,18-8.4
						c5.4-3.7,10.3-8.3,14.5-13.3c4.1-5,6.5-11.1,8.9-17s4.5-11.9,4.8-18.3c0.4-7.2,0.2-13.5-1.2-19.1c-1.7-6.9-4.2-12.9-7.8-17.6
						c-4.1-5.5-9.6-9.4-15-12.5c-6.1-3.5-12.8-5.3-18.7-6.7C316.7,217.1,318,216,307.9,216.3z"/>
				</g>
			</g>
		</g>
		<g>
			<path fill="#FFFFFF" d="M251.7,288.8c0-1.9,0.4-3.7,1.1-5.7c0.7-1.9,1.7-3.8,3-5.5s2.9-3.3,4.7-4.6c1.8-1.4,3.9-2.4,6.2-3.1
				c-1.2-0.9-2.3-1.9-3.3-3c-1-1-1.9-2.1-2.7-3.2c-0.8-1.1-1.3-2.2-1.8-3.3c-0.4-1.1-0.6-2.2-0.6-3.3c0-1.4,0.2-2.8,0.5-4
				s0.7-2.5,1.3-3.6c0.5-1.1,1.2-2.1,1.9-3c0.7-0.9,1.5-1.6,2.4-2.3c0.9-0.6,1.7-1.1,2.7-1.4c0.9-0.3,1.9-0.5,2.8-0.5
				c1.2,0,2.4,0.3,3.6,1c1.1,0.6,2.2,1.7,3.1,3c0.9,1.4,1.6,3.2,2.1,5.4s0.8,4.9,0.8,8c0,0.9-0.1,2.6-0.4,5.1
				c-0.3,2.4-0.5,4.8-0.7,7c0.8,0.5,1.7,1,2.5,1.5c0.9,0.5,1.7,1,2.6,1.5c0.2,0.1,0.4,0.2,0.7,0.4c0.3,0.2,0.5,0.3,0.8,0.5
				s0.5,0.3,0.6,0.5c0.2,0.2,0.3,0.3,0.3,0.5c0,0.1-0.1,0.3-0.2,0.4s-0.3,0.3-0.4,0.4c-0.2,0.1-0.3,0.2-0.5,0.3
				c-0.2,0.1-0.3,0.1-0.4,0.2c-0.2,0.1-0.5,0.2-0.9,0.2c-0.8,0-1.7-0.2-2.7-0.5s-2.1-0.7-3.2-1.2c-0.6,2.5-1.3,4.9-2.2,7
				c-0.8,2.1-1.8,4-2.8,5.7s-2.1,3.1-3.2,4.4c-1.1,1.2-2.3,2.3-3.4,3.1c-1.1,0.8-2.3,1.4-3.4,1.9c-1.1,0.4-2.2,0.6-3.3,0.6
				c-1.1,0-2.1-0.2-3-0.7c-0.9-0.4-1.7-1.1-2.4-2s-1.2-1.9-1.6-3.2C251.9,292,251.7,290.5,251.7,288.8z M257,290.1
				c0,1.4,0.3,2.5,0.8,3.2s1.3,1.1,2.2,1.1c0.9,0,1.9-0.4,3.1-1.2c1.1-0.8,2.3-2,3.4-3.7c1.2-1.7,2.3-3.8,3.3-6.4s1.9-5.6,2.7-9.2
				l-0.8-0.5c-1.4,0.3-2.7,0.8-4,1.4c-1.3,0.7-2.4,1.5-3.5,2.4s-2.1,2-3,3.1s-1.6,2.2-2.3,3.4c-0.6,1.1-1.1,2.3-1.4,3.3
				C257.2,288.2,257,289.2,257,290.1z M263.6,255.8c0,1.1,0.2,2.2,0.7,3.3s1.2,2.2,2,3.2c0.9,1.1,1.9,2.1,3.1,3.2
				c1.2,1,2.5,2.1,3.9,3.1c0.2-1.9,0.3-3.9,0.5-6s0.3-4.3,0.3-6.7c0-1.6-0.1-3-0.3-4.1c-0.2-1.1-0.5-2-0.8-2.7s-0.8-1.2-1.2-1.5
				c-0.5-0.3-1-0.5-1.5-0.5s-1,0.1-1.5,0.4c-0.5,0.2-1,0.6-1.5,1s-1,0.9-1.4,1.5s-0.8,1.2-1.1,1.8c-0.3,0.7-0.6,1.3-0.8,2
				C263.7,254.5,263.6,255.2,263.6,255.8z"/>
			<path fill="#FFFFFF" d="M292.8,280c-0.4,0.3-0.9,0.7-1.4,1.1c-0.6,0.4-1.2,0.8-1.8,1.1c-0.7,0.3-1.3,0.6-2,0.8
				c-0.7,0.2-1.3,0.3-1.9,0.3s-1-0.1-1.4-0.2c-0.4-0.2-0.7-0.4-0.9-0.6c-0.2-0.3-0.4-0.6-0.5-1s-0.2-0.8-0.2-1.3
				c0-0.7,0.1-1.4,0.2-2.3c0.3-1.8,0.5-2.9,0.6-3.1c0.1-0.5,0.4-1.5,0.9-3c0.4-1.3,0.7-2.1,0.7-2.5c0.1-0.3,0.2-0.5,0.4-0.7
				c0.2-0.2,0.5-0.4,0.7-0.5c0.3-0.1,0.6-0.2,0.9-0.3c0.3-0.1,0.6-0.1,0.8-0.1c0.4,0,0.7,0.1,0.9,0.2c0.2,0.2,0.2,0.4,0.2,0.7
				c0,0.2-0.1,0.6-0.2,1s-0.2,0.9-0.4,1.5s-0.3,1.2-0.6,2.1c-0.3,0.9-0.5,1.6-0.6,2.2s-0.2,1.2-0.4,1.8c-0.2,0.6-0.2,1.1-0.2,1.6
				s0.1,0.9,0.2,1.1c0.1,0.3,0.3,0.4,0.7,0.4c0.4,0,0.8-0.1,1.3-0.4s0.9-0.6,1.4-1s0.9-0.8,1.4-1.2c0.5-0.4,0.9-0.7,1.2-1L292.8,280
				L292.8,280z M285.7,263.3c0-0.2,0.1-0.5,0.2-0.8s0.3-0.6,0.5-0.9s0.6-0.5,1-0.7s0.9-0.3,1.5-0.3c0.4,0,0.7,0,1,0.1
				s0.6,0.2,0.9,0.4c0.2,0.2,0.4,0.4,0.6,0.7s0.2,0.6,0.2,1s-0.1,0.7-0.2,1.1c-0.1,0.3-0.3,0.6-0.6,0.9c-0.3,0.3-0.6,0.5-1,0.7
				s-0.9,0.2-1.4,0.2c-0.9,0-1.6-0.2-2.1-0.7C286,264.6,285.7,264,285.7,263.3z"/>
			<path fill="#FFFFFF" d="M304.9,279.8c-1,0.6-1.9,1.1-2.7,1.6c-0.8,0.4-1.5,0.8-2.1,1.1c-0.6,0.3-1.2,0.5-1.7,0.7
				c-0.5,0.1-0.9,0.2-1.3,0.2c-0.8,0-1.5-0.2-2.1-0.7s-1.1-1.2-1.5-2.1s-0.7-2-0.9-3.3c-0.2-1.3-0.3-2.8-0.3-4.4c0-0.6,0-1.3,0.1-2
				s0.1-1.4,0.2-2.1c-0.3,0-0.6-0.1-0.7-0.1c-0.2,0-0.4-0.1-0.6-0.1s-0.4-0.1-0.8-0.1c-0.3,0-0.7-0.1-1.3-0.2
				c-0.3,0-0.5-0.1-0.6-0.2s-0.2-0.2-0.3-0.4s-0.1-0.3-0.1-0.4s0-0.3,0-0.4c0-0.2,0.1-0.3,0.3-0.4c0.2-0.1,0.5-0.2,0.8-0.2
				s0.7-0.1,1.1-0.1s0.8,0,1.1,0c0.4,0,0.7,0,1,0s0.5,0,0.6,0c0.3-1.4,0.6-2.8,1.1-4.1c0.4-1.3,0.9-2.5,1.5-3.6
				c0.5-1,1.1-1.9,1.8-2.5c0.6-0.6,1.3-0.9,2-0.9c0.5,0,0.9,0.1,1.2,0.4c0.4,0.3,0.7,0.6,1,1s0.5,0.9,0.6,1.5s0.2,1.2,0.2,1.8
				c0,0.5-0.1,1-0.2,1.6s-0.3,1.1-0.6,1.7c-0.3,0.6-0.6,1.2-0.9,1.8c-0.3,0.6-0.7,1.2-1.1,1.8c0.1,0,0.3,0,0.5,0s0.5,0,0.8,0
				s0.6,0,0.9,0s0.7,0,1,0s0.6,0,0.9,0s0.5,0,0.7,0s0.4,0.1,0.5,0.4c0.1,0.2,0.1,0.5,0.1,0.8c0,0.4-0.1,0.7-0.3,1
				c-0.2,0.2-0.4,0.4-0.7,0.4H298c-0.3,0.4-0.6,0.8-0.9,1.2c-0.3,0.4-0.6,0.8-0.9,1.1c0,0.7-0.1,1.3-0.1,1.9c0,0.3,0,0.6,0,0.9
				s0,0.6,0,0.9s0,0.6,0,0.8c0,0.3,0,0.5,0,0.7c0,0.6,0.1,1.1,0.2,1.4c0.1,0.4,0.3,0.7,0.5,1c0.2,0.2,0.4,0.4,0.7,0.5
				c0.3,0.1,0.6,0.2,1,0.2c0.2,0,0.5-0.1,0.8-0.2s0.7-0.3,1.1-0.4c0.4-0.2,0.8-0.4,1.3-0.7c0.4-0.3,0.9-0.5,1.3-0.8s0.8-0.6,1.2-1
				c0.4-0.3,0.7-0.7,1.1-1v4H304.9z M299.9,259.6c0-0.1,0-0.2,0-0.4c0-0.1-0.1-0.3-0.1-0.4c-0.1-0.1-0.1-0.2-0.2-0.3
				c-0.1-0.1-0.3-0.1-0.5-0.1c-0.3,0-0.6,0.2-0.8,0.7c-0.3,0.5-0.6,1.1-0.8,1.9c-0.3,0.8-0.5,1.6-0.7,2.5s-0.4,1.8-0.6,2.6
				c0.2,0,0.3,0,0.5,0s0.3,0,0.5,0c0.3-0.5,0.7-1.1,1-1.7s0.7-1.2,0.9-1.8c0.3-0.6,0.5-1.2,0.7-1.7
				C299.8,260.4,299.9,260,299.9,259.6z"/>
			<path fill="#FFFFFF" d="M316.9,279.8c-1,0.6-1.9,1.1-2.7,1.6c-0.8,0.4-1.5,0.8-2.1,1.1c-0.6,0.3-1.2,0.5-1.7,0.7
				c-0.5,0.1-0.9,0.2-1.3,0.2c-0.8,0-1.5-0.2-2.1-0.7s-1.1-1.2-1.5-2.1s-0.7-2-0.9-3.3c-0.2-1.3-0.3-2.8-0.3-4.4c0-0.6,0-1.3,0.1-2
				s0.1-1.4,0.2-2.1c-0.3,0-0.6-0.1-0.7-0.1c-0.2,0-0.4-0.1-0.6-0.1s-0.4-0.1-0.8-0.1s-0.7-0.1-1.3-0.2c-0.3,0-0.5-0.1-0.6-0.2
				s-0.2-0.2-0.3-0.4s-0.1-0.3-0.1-0.4s0-0.3,0-0.4c0-0.2,0.1-0.3,0.3-0.4c0.2-0.1,0.5-0.2,0.8-0.2s0.7-0.1,1.1-0.1s0.8,0,1.1,0
				c0.4,0,0.7,0,1,0s0.5,0,0.6,0c0.3-1.4,0.6-2.8,1.1-4.1c0.4-1.3,0.9-2.5,1.5-3.6c0.5-1,1.1-1.9,1.8-2.5c0.6-0.6,1.3-0.9,2-0.9
				c0.5,0,0.9,0.1,1.2,0.4c0.4,0.3,0.7,0.6,1,1s0.5,0.9,0.6,1.5s0.2,1.2,0.2,1.8c0,0.5-0.1,1-0.2,1.6s-0.3,1.1-0.6,1.7
				c-0.3,0.6-0.6,1.2-0.9,1.8c-0.3,0.6-0.7,1.2-1.1,1.8c0.1,0,0.3,0,0.5,0s0.5,0,0.8,0s0.6,0,0.9,0s0.7,0,1,0s0.6,0,0.9,0
				s0.5,0,0.7,0s0.4,0.1,0.5,0.4c0.1,0.2,0.1,0.5,0.1,0.8c0,0.4-0.1,0.7-0.3,1c-0.2,0.2-0.4,0.4-0.7,0.4H310
				c-0.3,0.4-0.6,0.8-0.9,1.2c-0.3,0.4-0.6,0.8-0.9,1.1c0,0.7-0.1,1.3-0.1,1.9c0,0.3,0,0.6,0,0.9s0,0.6,0,0.9s0,0.6,0,0.8
				c0,0.3,0,0.5,0,0.7c0,0.6,0.1,1.1,0.2,1.4c0.1,0.4,0.3,0.7,0.5,1c0.2,0.2,0.4,0.4,0.7,0.5c0.3,0.1,0.6,0.2,1,0.2
				c0.2,0,0.5-0.1,0.8-0.2s0.7-0.3,1.1-0.4c0.4-0.2,0.8-0.4,1.3-0.7c0.4-0.3,0.9-0.5,1.3-0.8s0.8-0.6,1.2-1c0.4-0.3,0.7-0.7,1.1-1v4
				H316.9z M311.8,259.6c0-0.1,0-0.2,0-0.4c0-0.1-0.1-0.3-0.1-0.4c-0.1-0.1-0.1-0.2-0.2-0.3c-0.1-0.1-0.3-0.1-0.5-0.1
				c-0.3,0-0.6,0.2-0.8,0.7c-0.3,0.5-0.6,1.1-0.8,1.9c-0.3,0.8-0.5,1.6-0.7,2.5s-0.4,1.8-0.6,2.6c0.2,0,0.3,0,0.5,0s0.3,0,0.5,0
				c0.3-0.5,0.7-1.1,1-1.7s0.7-1.2,0.9-1.8c0.3-0.6,0.5-1.2,0.7-1.7C311.8,260.4,311.8,260,311.8,259.6z"/>
			<path fill="#FFFFFF" d="M321,283.3c-1,0-1.9-0.2-2.6-0.6s-1.4-0.9-1.9-1.5s-0.9-1.3-1.1-2.2c-0.2-0.8-0.4-1.7-0.4-2.6
				c0-0.6,0.1-1.3,0.3-2.1c0.2-0.8,0.5-1.5,0.7-2.2c0.2-0.6,0.5-1.2,0.9-1.8c0.4-0.6,0.8-1.1,1.3-1.5s1-0.8,1.6-1
				c0.6-0.3,1.3-0.4,2-0.4c0.6,0,1.1,0.1,1.7,0.3s1,0.5,1.3,0.8c0.4,0.3,0.7,0.8,0.9,1.2c0.2,0.5,0.3,1,0.3,1.6s-0.2,1.4-0.6,2.2
				c-0.4,0.8-0.9,1.5-1.5,2.1s-1.3,1.1-2,1.5c-0.8,0.4-1.6,0.8-2.6,1c0.2,0.3,0.3,0.5,0.5,0.7s0.3,0.3,0.5,0.4s0.3,0.2,0.5,0.2
				s0.4,0.1,0.6,0.1c0.6,0,1.3-0.1,2-0.4c0.7-0.2,1.4-0.6,2.1-0.9c0.7-0.4,1.3-0.8,1.9-1.2c0.6-0.4,1.1-0.9,1.5-1.3l2.1,2.1
				c-0.9,1-1.9,1.9-3,2.6c-0.5,0.3-0.9,0.6-1.5,1c-0.5,0.3-1.1,0.6-1.7,0.8c-0.6,0.2-1.2,0.4-1.8,0.6
				C322.3,283.3,321.7,283.3,321,283.3z M318.9,275.8c0.4,0,0.8-0.1,1.3-0.3c0.5-0.2,0.9-0.4,1.3-0.7c0.4-0.3,0.8-0.7,1.1-1.2
				c0.4-0.5,0.6-0.9,0.6-1.3c0-0.5-0.1-0.9-0.3-1.2c-0.2-0.3-0.4-0.5-0.6-0.5c-0.5,0-0.8,0.1-1.2,0.2c-0.3,0.2-0.6,0.4-0.8,0.6
				c-0.2,0.3-0.4,0.6-0.5,0.9s-0.3,0.8-0.5,1.3s-0.3,0.9-0.3,1.2C318.9,275.3,318.9,275.5,318.9,275.8z"/>
			<path fill="#FFFFFF" d="M327.7,280c0-0.5,0-1,0.1-1.6s0.1-1.3,0.2-2s0.2-1.4,0.3-2.1c0.1-0.7,0.3-1.5,0.5-2.3s0.4-1.5,0.5-2
				s0.3-1,0.4-1.3c0.1-0.2,0.2-0.4,0.3-0.6c0.1-0.1,0.2-0.2,0.3-0.3c0.1-0.1,0.2-0.1,0.4-0.2c0.2,0,0.4,0,0.6,0c0.3,0,0.5,0,0.6,0
				c0.2,0,0.3,0.1,0.3,0.2c0.1,0.1,0.1,0.2,0.1,0.4s0,0.5,0,0.8c0,0.4,0,0.9-0.1,1.7c-0.1,0.7-0.1,1.4,0,1.9h0.2
				c0.2-0.4,0.5-1,0.8-1.7s0.7-1.3,1-1.7c0.3-0.5,0.7-0.8,1.2-1.2c0.4-0.3,1-0.5,1.5-0.5c0.2,0,0.4,0,0.6,0.1s0.4,0.2,0.5,0.3
				s0.3,0.3,0.3,0.5c0.1,0.2,0.1,0.4,0.1,0.6s0,0.4-0.1,0.8c-0.1,0.3-0.1,0.7-0.3,1.3c-0.1,0.5-0.2,0.9-0.3,1.3
				c-0.1,0.3-0.1,0.6-0.1,0.8c0,0.4,0,0.7,0.1,1s0.2,0.5,0.3,0.6c0.1,0.2,0.3,0.3,0.4,0.3c0.2,0.1,0.3,0.1,0.5,0.1
				c0.5,0,1-0.1,1.5-0.3c0.5-0.2,1-0.5,1.4-0.7c0.5-0.3,1-0.7,1.5-1l-0.2,3.7c-0.3,0.2-0.6,0.4-0.9,0.6s-0.7,0.4-1.1,0.6
				s-0.8,0.4-1.2,0.5c-0.4,0.1-0.9,0.2-1.3,0.2c-0.8,0-1.4-0.2-1.9-0.5s-0.9-0.7-1.2-1.3c-0.3-0.5-0.5-1.1-0.6-1.8
				c-0.1-0.7-0.2-1.3-0.3-2h-0.3l-2.8,7.9c-0.1,0.4-0.3,0.8-0.4,1c-0.1,0.3-0.3,0.5-0.4,0.7s-0.3,0.3-0.4,0.4
				c-0.2,0.1-0.3,0.1-0.5,0.1c-0.4,0-0.8-0.1-1-0.3c-0.3-0.2-0.5-0.4-0.6-0.7c-0.1-0.3-0.2-0.7-0.3-1.1
				C327.7,280.8,327.7,280.4,327.7,280z"/>
			<path fill="#FFFFFF" d="M347.6,283.6l0.3-1.9c-0.6,0.5-1.2,0.9-1.8,1.2c-0.6,0.3-1.2,0.5-1.8,0.5c-0.5,0-1-0.1-1.5-0.3
				c-0.5-0.2-0.9-0.5-1.3-0.9s-0.7-0.9-0.9-1.4c-0.2-0.6-0.3-1.2-0.3-1.9c0-0.9,0.1-1.8,0.2-2.5c0.1-0.8,0.3-1.7,0.5-2.8
				c0.2-1.1,0.4-2,0.7-2.7c0.3-0.7,0.5-1.3,0.9-2c0.2-0.5,0.6-0.8,1-1.1c0.5-0.2,0.9-0.4,1.3-0.4s0.7,0.1,1,0.3s0.4,0.5,0.4,0.9
				c0,0.1,0,0.2,0,0.4c0,0.1-0.1,0.3-0.1,0.4c-0.2,0.5-0.3,1.1-0.5,1.7c-0.1,0.7-0.3,1.6-0.5,2.7s-0.4,2-0.5,2.7s-0.2,1.2-0.2,1.8
				c0,0.3,0,0.5,0.1,0.8c0,0.3,0.1,0.5,0.2,0.7s0.2,0.4,0.4,0.5c0.2,0.1,0.4,0.2,0.6,0.2c0.4,0,0.7-0.2,1.1-0.5
				c0.3-0.3,0.6-0.8,0.8-1.2c0.2-0.5,0.4-1,0.6-1.5c0.1-0.5,0.2-0.9,0.3-1.3l1.3-5.9c0.1-0.3,0.2-0.7,0.4-1c0.2-0.3,0.5-0.5,0.7-0.7
				c0.3-0.2,0.6-0.3,0.9-0.4s0.6-0.1,0.9-0.1s0.6,0.1,0.8,0.2c0.2,0.1,0.3,0.4,0.3,0.7c0,0.1,0,0.2,0,0.3c-0.1,0.3-0.1,0.7-0.2,1.1
				c-0.1,0.5-0.2,1-0.3,1.6c-0.1,0.6-0.3,1.5-0.4,2.6c-0.2,1.1-0.3,2-0.5,2.6c-0.3,1.6-0.5,3.3-0.8,5.1c0.3-0.2,0.7-0.4,1-0.7
				c0.4-0.3,0.8-0.6,1.2-1.1c0.5-0.4,1-1,1.5-1.7c0.6-0.7,1.3-2,2.5-1.8c0.9,0.2,0.7,2,0.2,2.8c-0.4,0.6-0.4,0.7-0.7,1
				c-0.3,0.4-0.7,0.7-1,1c-0.5,0.5-0.9,0.8-1.1,1c-0.1,0.1-0.5,0.4-1.2,0.9c-0.2,0.2-0.9,0.7-2.1,1.5c-0.3,0.2-0.5,0.5-0.6,1
				s-0.2,1.4-0.4,2.8c-0.1,0.4-0.1,0.7-0.1,0.9c-0.1,0.5-0.1,1-0.2,1.4c-0.1,0.5-0.2,1-0.3,1.6c-0.1,0.6-0.3,1.1-0.5,1.6
				s-0.5,1-0.8,1.5s-0.7,0.9-1.1,1.2c-0.4,0.3-0.9,0.6-1.4,0.8c-0.6,0.2-1.2,0.3-1.8,0.3c-0.5,0-1-0.1-1.5-0.2s-0.9-0.3-1.3-0.6
				c-0.4-0.3-0.7-0.6-0.9-1c-0.2-0.4-0.4-1-0.4-1.5c-0.1-1.1,0.2-2.3,0.9-3.6c0.4-0.7,0.7-1.2,0.8-1.5c0.2-0.3,0.4-0.7,0.7-1.2
				c0.3-0.5,0.7-0.9,1.1-1.4c0.7-0.8,1.4-1.5,1.8-2C346.4,284.7,347,284.2,347.6,283.6z M347.7,287.4c-0.7,0.5-1.5,1.4-2.2,2.5
				c-0.7,1.2-1.3,2.4-1.7,3.6c-0.4,1-0.2,1.5,0.5,1.5c0.3,0,0.5,0,0.7-0.1s0.4-0.2,0.6-0.3c0.2-0.2,0.3-0.3,0.4-0.5s0.3-0.5,0.4-0.8
				c0.1-0.4,0.3-0.7,0.4-1s0.3-0.8,0.4-1.4c0.1-0.3,0.2-0.7,0.2-1c0-0.4,0.1-0.8,0.2-1.4C347.6,287.9,347.7,287.6,347.7,287.4z"/>
		</g>
		<g>
			<path fill="#FFFFFF" d="M297.2,304.8c0-0.8,0.2-1.5,0.5-2.3s0.8-1.5,1.3-2.2c0.6-0.7,1.2-1.3,2-1.8s1.6-0.9,2.6-1.2
				c-0.5-0.4-0.9-0.8-1.3-1.3c-0.4-0.4-0.7-0.9-1-1.3c-0.3-0.5-0.5-0.9-0.7-1.4s-0.2-0.9-0.2-1.4c0-0.6,0.1-1.1,0.2-1.6
				s0.3-1,0.6-1.4c0.2-0.4,0.5-0.8,0.8-1.2s0.7-0.6,1-0.9c0.4-0.2,0.7-0.4,1.1-0.5s0.8-0.2,1.1-0.2c0.5,0,1,0.2,1.4,0.4
				c0.5,0.3,0.9,0.7,1.2,1.3c0.3,0.6,0.6,1.3,0.8,2.2c0.2,0.9,0.3,2,0.2,3.3c0,0.4-0.1,1.1-0.2,2.1s-0.3,2-0.4,2.9
				c0.3,0.2,0.7,0.4,1,0.7c0.3,0.2,0.7,0.4,1,0.6c0.1,0,0.2,0.1,0.3,0.2s0.2,0.1,0.3,0.2c0.1,0.1,0.2,0.1,0.3,0.2
				c0.1,0.1,0.1,0.1,0.1,0.2s0,0.1-0.1,0.2c0,0.1-0.1,0.1-0.2,0.1s-0.1,0.1-0.2,0.1s-0.1,0.1-0.1,0.1c-0.1,0-0.2,0.1-0.4,0.1
				c-0.3,0-0.7-0.1-1.1-0.2s-0.8-0.3-1.3-0.5c-0.3,1-0.6,2-1,2.8s-0.8,1.6-1.2,2.3c-0.4,0.7-0.9,1.3-1.4,1.7c-0.5,0.5-1,0.9-1.4,1.2
				c-0.5,0.3-1,0.6-1.4,0.7c-0.5,0.2-0.9,0.2-1.3,0.2s-0.9-0.1-1.2-0.3s-0.7-0.5-1-0.8c-0.3-0.4-0.5-0.8-0.6-1.3
				C297.2,306.1,297.1,305.5,297.2,304.8z M299.3,305.4c0,0.6,0.1,1,0.3,1.3c0.2,0.3,0.5,0.5,0.9,0.5s0.8-0.1,1.3-0.4s1-0.8,1.5-1.5
				s1-1.5,1.4-2.6s0.9-2.3,1.2-3.7l-0.3-0.2c-0.6,0.1-1.1,0.3-1.7,0.5c-0.5,0.3-1,0.6-1.5,0.9c-0.5,0.4-0.9,0.8-1.2,1.2
				c-0.4,0.4-0.7,0.9-1,1.4s-0.5,0.9-0.6,1.3C299.4,304.6,299.3,305,299.3,305.4z M302.5,291.4c0,0.4,0.1,0.9,0.2,1.3
				c0.2,0.4,0.4,0.9,0.8,1.3c0.3,0.4,0.7,0.9,1.2,1.3s1,0.9,1.6,1.3c0.1-0.8,0.2-1.6,0.3-2.5c0.1-0.9,0.2-1.8,0.2-2.7
				c0-0.7,0-1.2-0.1-1.7s-0.2-0.8-0.3-1.1c-0.1-0.3-0.3-0.5-0.5-0.6s-0.4-0.2-0.6-0.2s-0.4,0-0.6,0.1s-0.4,0.2-0.6,0.4
				c-0.2,0.2-0.4,0.4-0.6,0.6s-0.4,0.5-0.5,0.7c-0.1,0.3-0.3,0.5-0.3,0.8S302.5,291.2,302.5,291.4z"/>
			<path fill="#FFFFFF" d="M315.2,296.7c0.2,0.3,0.3,0.7,0.3,1s0.1,0.8,0.1,1.2c0,0.3-0.1,0.7-0.1,1c-0.1,0.3-0.2,0.7-0.3,1
				c-0.1,0.3-0.3,0.6-0.5,0.9s-0.4,0.5-0.7,0.7c-0.3,0.2-0.5,0.3-0.9,0.5c-0.3,0.1-0.6,0.2-1,0.1c-0.5,0-0.9-0.1-1.3-0.4
				s-0.6-0.5-0.8-0.9c-0.2-0.4-0.4-0.8-0.5-1.2c-0.1-0.4-0.1-0.9-0.1-1.3c0-0.7,0.1-1.4,0.3-1.9c0.2-0.5,0.5-1,0.8-1.4
				c0.4-0.4,0.8-0.7,1.3-0.9c0.5-0.2,1.1-0.3,1.7-0.3c0.5,0,1,0.1,1.5,0.3s0.9,0.4,1.3,0.7s0.8,0.7,1.1,1.1c0.3,0.4,0.7,0.8,0.9,1.2
				l-0.2,1.2c-0.1-0.2-0.3-0.4-0.6-0.7c-0.3-0.2-0.5-0.5-0.8-0.8s-0.6-0.5-0.8-0.8C315.7,296.9,315.5,296.8,315.2,296.7L315.2,296.7
				z M312.4,301.5c0.2,0,0.4-0.1,0.6-0.3c0.2-0.2,0.4-0.4,0.5-0.7s0.3-0.6,0.4-1.1c0.1-0.4,0.1-0.8,0.2-1.1c0-0.3,0-0.5,0-0.7
				s-0.1-0.4-0.2-0.6s-0.2-0.3-0.3-0.4c-0.1-0.1-0.3-0.2-0.4-0.2c-0.2,0-0.5,0.1-0.7,0.3s-0.4,0.4-0.6,0.7c-0.2,0.3-0.3,0.6-0.4,1
				s-0.2,0.8-0.2,1.2c0,0.2,0,0.5,0,0.7s0.1,0.4,0.2,0.5c0.1,0.2,0.2,0.3,0.4,0.4C312,301.4,312.2,301.5,312.4,301.5z"/>
			<path fill="#FFFFFF" d="M319.9,303.4c-0.5,0-1-0.1-1.4-0.3c-0.4-0.2-0.7-0.5-1-0.8s-0.4-0.7-0.6-1.2s-0.2-0.9-0.2-1.4
				c0-0.3,0.1-0.7,0.2-1.1s0.3-0.8,0.4-1.1c0.1-0.3,0.3-0.6,0.5-0.9s0.4-0.6,0.7-0.8c0.3-0.2,0.6-0.4,0.9-0.5s0.7-0.2,1.1-0.2
				c0.3,0,0.6,0.1,0.9,0.2s0.5,0.3,0.7,0.4c0.2,0.2,0.3,0.4,0.4,0.7c0.1,0.3,0.2,0.6,0.1,0.9c0,0.3-0.1,0.7-0.4,1.1
				s-0.5,0.8-0.8,1.1c-0.3,0.3-0.7,0.5-1.1,0.8c-0.4,0.2-0.9,0.4-1.4,0.5c0.1,0.2,0.2,0.3,0.2,0.4c0.1,0.1,0.2,0.2,0.2,0.2
				c0.1,0.1,0.2,0.1,0.3,0.1c0.1,0,0.2,0,0.3,0c0.3,0,0.7,0,1.1-0.2c0.4-0.1,0.7-0.3,1.1-0.5s0.7-0.4,1-0.6s0.6-0.4,0.9-0.4
				c0.6-0.1,1.4,0.2,1,0.9c-0.5,0.7-1.1,1-1.6,1.3c-0.2,0.2-0.5,0.3-0.8,0.5s-0.6,0.3-0.9,0.4s-0.6,0.2-1,0.3
				C320.5,303.3,320.2,303.4,319.9,303.4z M318.9,299.3c0.2,0,0.4,0,0.7-0.1c0.2-0.1,0.5-0.2,0.7-0.4c0.2-0.2,0.4-0.4,0.6-0.6
				c0.2-0.3,0.3-0.5,0.3-0.7s0-0.5-0.1-0.6c-0.1-0.2-0.2-0.2-0.3-0.2c-0.2,0-0.5,0-0.6,0.1c-0.2,0.1-0.3,0.2-0.4,0.3
				c-0.1,0.1-0.2,0.3-0.3,0.5c-0.1,0.2-0.2,0.4-0.3,0.7c-0.1,0.3-0.2,0.5-0.2,0.6C318.9,299,318.9,299.2,318.9,299.3z"/>
			<path fill="#FFFFFF" d="M325.2,295.8c0-0.1,0-0.2,0-0.3c0-0.1,0-0.3,0-0.4c0-0.2,0-0.3,0-0.5s0-0.3,0.1-0.5
				c0-0.4,0.1-0.8,0.1-1.2c0-0.1,0-0.3,0.1-0.4s0.2-0.2,0.3-0.3c0.1-0.1,0.3-0.1,0.5-0.2c0.2,0,0.3-0.1,0.5-0.1c0.1,0,0.3,0,0.4,0
				s0.3,0.1,0.4,0.1c0.1,0.1,0.2,0.1,0.3,0.2c0.1,0.1,0.1,0.2,0.1,0.3c0,0.1,0,0.1,0,0.2s0,0.1-0.1,0.2c-0.1,0.2-0.2,0.4-0.3,0.7
				c-0.1,0.3-0.2,0.5-0.3,0.8c-0.1,0.3-0.2,0.5-0.3,0.7c-0.1,0.2-0.2,0.4-0.3,0.6c-0.1,0.2-0.2,0.4-0.4,0.5
				c-0.2,0.1-0.4,0.2-0.5,0.2s-0.3-0.1-0.5-0.2S325.2,296,325.2,295.8z"/>
			<path fill="#FFFFFF" d="M327.2,299.9c0.3-0.3,0.6-0.5,0.8-0.7c0.2-0.2,0.4-0.4,0.6-0.6s0.4-0.4,0.5-0.6c0.1-0.1,0.3-0.3,0.4-0.5
				c0.2-0.2,0.4-0.5,0.6-0.8s0.5-0.7,0.9-1.1c0.1-0.1,0.2-0.2,0.3-0.3c0.1-0.1,0.2-0.2,0.3-0.2c0.1-0.1,0.2-0.1,0.4-0.2
				c0.1,0,0.3-0.1,0.4-0.1c0.3,0,0.5,0,0.6,0.1s0.2,0.1,0.3,0.2s0.1,0.2,0.1,0.3c0,0.1,0,0.2,0,0.2c0,0.1-0.1,0.3-0.2,0.4
				c-0.1,0.2-0.2,0.3-0.4,0.5c-0.1,0.1-0.3,0.3-0.4,0.4s-0.2,0.2-0.2,0.3c0,0.2,0,0.3,0,0.5c0,0.1,0.1,0.3,0.1,0.4s0.1,0.3,0.1,0.4
				c0,0.2,0.1,0.3,0.1,0.5s0,0.5,0,0.8c0,0.4-0.1,0.7-0.1,1.1c0.2-0.1,0.4-0.2,0.7-0.3c0.2-0.1,0.5-0.2,0.7-0.3
				c0.3-0.1,0.5-0.2,0.8-0.4c0.3-0.1,0.7-0.3,1.1,0s0.1,1-0.4,1.4c-0.3,0.3-0.8,0.5-1.2,0.7c-0.5,0.2-1,0.4-1.5,0.6s-1,0.3-1.5,0.4
				s-1,0.1-1.5,0.1c-0.3,0-0.6-0.1-0.9-0.1c-0.3-0.1-0.5-0.2-0.7-0.3c-0.2-0.1-0.4-0.3-0.5-0.5s-0.2-0.5-0.2-0.7c-0.1,0-0.2,0-0.2,0
				c-0.1,0-0.2,0-0.2,0c-0.1,0-0.2,0-0.3,0c-0.1,0-0.1,0-0.2-0.1c-0.1,0-0.1-0.1-0.1-0.2s0-0.2,0-0.4c0-0.1,0-0.3,0.1-0.4
				s0.2-0.2,0.2-0.3c0.1-0.1,0.2-0.2,0.3-0.2C327.1,300,327.2,300,327.2,299.9z M328.2,301.1c0.1,0,0.1,0,0.2,0.1s0.2,0.2,0.3,0.3
				c0.1,0.1,0.2,0.2,0.4,0.3c0.1,0.1,0.3,0.1,0.5,0.1s0.4,0,0.5-0.1s0.3-0.2,0.4-0.3s0.2-0.3,0.2-0.4c0-0.2,0.1-0.3,0.1-0.5
				s0-0.3,0-0.5s0-0.4,0-0.6s0-0.4,0-0.5s-0.1-0.2-0.1-0.3L328.2,301.1z"/>
		</g>
	</g>
	<path display="inline" fill="#999999" d="M398.9,137.8H390c-0.4-8.6-7.5-15.5-16.2-15.5h-76.2h-76.2c-8.7,0-15.8,6.9-16.2,15.5
		h-8.9c-5.7,0-10.4,4.6-10.4,10.4c0,5.7,4.6,10.4,10.4,10.4h12.8L230,446.8h67.6h67.6L386,158.6h12.8c5.7,0,10.4-4.6,10.4-10.4
		C409.3,142.5,404.6,137.8,398.9,137.8z"/>
</g>
<g id="Layer_2">
	<g>
		<g>
			<g>
				<g>
					<path d="M377.9,118c-10.1,0.2-10.1,0.2-20.3,0.4c-10.1,0.2-10.1-0.7-20.3-0.5c-10.1,0.2-10.1,1.2-20.3,1.4s-10.1,0.3-20.3,0.5
						c-10.1,0.2-10.1-0.9-20.3-0.7c-10.1,0.2-10.1,0.9-20.3,1.1c-10.1,0.2-10.1-0.7-20.3-0.5c-10.1,0.2-10.1-0.1-20.3,0.1
						c-9.5,0.2-17.5,8.4-17.5,17.4s8,16.9,17.5,16.7c10.1-0.2,10.1-0.5,20.3-0.7c10.1-0.2,10.1-1.1,20.3-1.3
						c10.1-0.2,10.1,0.8,20.3,0.6c10.1-0.2,10.1-0.4,20.3-0.6c10.1-0.2,10.1,0.2,20.3,0c10.1-0.2,10.1-0.4,20.3-0.6
						c10.1-0.2,10.1-1.2,20.3-1.4c10.1-0.2,10.1-0.5,20.3-0.7c9.5-0.2,17.7-6.9,17.7-16C395.6,124.2,387.4,117.8,377.9,118z"/>
				</g>
				<g>
					<path fill="#754C29" d="M296.8,147.1c-9.5,0.2-9.5,0.6-18.9,0.8c-9.5,0.2-9.5-0.9-19-0.7s-9.5,0.3-19,0.5s-9.5,0.8-19,1
						s-12.7-7-19.2-0.4c-6.4,6.5,1,8.9,1.7,17.7c0.7,8.7,1.1,8.7,1.7,17.4c0.7,8.7,0.3,8.8,1,17.5s0,8.8,0.6,17.5
						c0.7,8.7,1.6,8.7,2.3,17.4s-0.5,8.8,0.1,17.6c0.7,8.7,1.5,8.7,2.1,17.4c0.7,8.7,0.6,8.7,1.3,17.5c0.7,8.7,1.1,8.7,1.7,17.5
						c0.7,8.7,0,8.8,0.7,17.5s1.7,8.7,2.4,17.4c0.7,8.7,0.6,8.8,1.3,17.5s-0.8,8.9-0.1,17.6c0.7,8.8,1.6,8.7,2.3,17.4
						c0.7,8.8,1.3,8.7,2,17.5s0.1,8.8,0.8,17.6c0.7,8.8-5.1,10.9,1.6,16.9c6.4,5.9,8.3,1.1,17.3,1.1c8.9,0,8.9,0.1,17.9,0.1
						c8.9,0,8.9,0,17.9,0c8.9,0,8.9,0,17.9,0c8.9,0,8.9,0.2,17.9,0.2c8.9,0,9-1.2,17.9-1.3c8.9,0,8.9,0.4,17.9,0.4
						c8.9,0,10.9,5.4,17.4-0.5c6.7-6.1,0.5-8.4,1.2-17.2c0.7-8.8,1.3-8.8,1.9-17.6c0.7-8.8,1.4-8.8,2.1-17.6
						c0.7-8.8,0.1-8.9,0.7-17.7c0.7-8.8,1.2-8.8,1.9-17.7c0.7-8.8,0.7-8.8,1.4-17.7c0.7-8.8,0.7-8.8,1.4-17.7
						c0.7-8.8,0.4-8.9,1.1-17.7c0.7-8.8,0.2-8.9,0.9-17.7c0.7-8.8,2-8.8,2.7-17.6c0.7-8.9-0.4-8.9,0.3-17.8c0.7-8.9,1.3-8.8,2-17.7
						s0.4-8.9,1.1-17.7c0.7-8.9,0.7-8.9,1.4-17.7c0.7-8.9,0.4-8.9,1.1-17.7c0.7-8.9,0.3-8.9,1-17.7c0.7-8.9,8-11.1,1.6-17.4
						c-6.5-6.4-9.2-0.7-18.7-0.5s-9.5,1.1-19,1.2c-9.5,0.2-9.5-0.5-19-0.4c-9.5,0.2-9.5,1-19,1.3
						C306.3,147.1,306.3,146.9,296.8,147.1z"/>
				</g>
				<g>
					<path fill="#414042" d="M404.5,132.6c-9,0.2-9-0.5-17.9-0.3c-9,0.2-9,0.8-17.9,1c-9,0.2-9,0.6-18,0.8s-9,0.3-18,0.5
						s-9-0.2-18-0.1c-9,0.2-9-0.5-18-0.3s-9,0-18,0.2s-9,0.3-17.9,0.5c-9,0.2-9-0.3-18-0.2c-9,0.2-9,1.3-18,1.5s-9-0.7-18-0.5
						s-9,0.3-18,0.5c-6.1,0.1-12,5.4-12,11.1c0,5.7,5.9,10.3,12,10.2c9-0.2,9,0.6,17.9,0.4c9-0.2,9-1.1,17.9-1.3c9-0.2,9,0,17.9-0.1
						c9-0.2,9-0.7,17.9-0.9c9-0.2,9-0.1,18-0.2c9-0.2,9-0.5,18-0.6c9-0.2,9,1.2,17.9,1c9-0.2,9-0.9,17.9-1.1c9-0.2,9-0.1,17.9-0.2
						c9-0.2,9-0.9,18-1c9-0.2,9,0.4,17.9,0.3c9-0.2,9-0.5,18-0.7c6.1-0.1,12-4.5,12-10.3C416.5,136.8,410.6,132.5,404.5,132.6z"/>
				</g>
				<g>
					<path fill="#BCBEC0" d="M299.9,211.3c-7.3,0.1-14.2,1.1-20.4,2.8c-6.9,1.9-13.3,4.9-18.7,8.4c-5.8,3.8-10.5,8.8-14.4,14
						c-3.9,5.3-7.3,11.1-9.3,17.4c-1.9,6-2.3,12.7-2.3,19.2c0,6.3,2.2,12,4.1,17.6c2,5.8,4,11.6,7.8,16.4c3.8,4.9,8.3,9.4,13.5,12.9
						c5.1,3.5,10.9,6.6,17.1,8.4c6,1.8,12.5,1.7,19.1,1.6v1.1c6.7-0.1,13.4-1.6,19.6-3.6c6.3-2,12.6-4.7,18-8.4
						c5.4-3.7,10.3-8.3,14.5-13.3c4.1-5,6.5-11.1,8.9-17s4.5-11.9,4.8-18.3c0.4-7.2,0.2-13.5-1.2-19.1c-1.7-6.9-4.2-12.9-7.8-17.6
						c-4.1-5.5-9.6-9.4-15-12.5c-6.1-3.5-12.8-5.3-18.7-6.7C308.7,212.1,310,211,299.9,211.3z"/>
				</g>
			</g>
		</g>
		<g>
			<path fill="#FFFFFF" d="M243.7,283.8c0-1.9,0.4-3.7,1.1-5.7c0.7-1.9,1.7-3.8,3-5.5s2.9-3.3,4.7-4.6c1.8-1.4,3.9-2.4,6.2-3.1
				c-1.2-0.9-2.3-1.9-3.3-3c-1-1-1.9-2.1-2.7-3.2s-1.3-2.2-1.8-3.3s-0.6-2.2-0.6-3.3c0-1.4,0.2-2.8,0.5-4s0.7-2.5,1.3-3.6
				c0.5-1.1,1.2-2.1,1.9-3s1.5-1.6,2.4-2.3c0.9-0.6,1.7-1.1,2.7-1.4c0.9-0.3,1.9-0.5,2.8-0.5c1.2,0,2.4,0.3,3.6,1
				c1.1,0.6,2.2,1.7,3.1,3c0.9,1.4,1.6,3.2,2.1,5.4s0.8,4.9,0.8,8c0,0.9-0.1,2.6-0.4,5.1c-0.3,2.4-0.5,4.8-0.7,7
				c0.8,0.5,1.7,1,2.5,1.5c0.9,0.5,1.7,1,2.6,1.5c0.2,0.1,0.4,0.2,0.7,0.4c0.3,0.2,0.5,0.3,0.8,0.5s0.5,0.3,0.6,0.5
				c0.2,0.2,0.3,0.3,0.3,0.5c0,0.1-0.1,0.3-0.2,0.4s-0.3,0.3-0.4,0.4c-0.2,0.1-0.3,0.2-0.5,0.3c-0.2,0.1-0.3,0.1-0.4,0.2
				c-0.2,0.1-0.5,0.2-0.9,0.2c-0.8,0-1.7-0.2-2.7-0.5s-2.1-0.7-3.2-1.2c-0.6,2.5-1.3,4.9-2.2,7c-0.8,2.1-1.8,4-2.8,5.7
				s-2.1,3.1-3.2,4.4c-1.1,1.2-2.3,2.3-3.4,3.1c-1.1,0.8-2.3,1.4-3.4,1.9c-1.1,0.4-2.2,0.6-3.3,0.6s-2.1-0.2-3-0.7
				c-0.9-0.4-1.7-1.1-2.4-2s-1.2-1.9-1.6-3.2C243.9,287,243.7,285.5,243.7,283.8z M249,285.1c0,1.4,0.3,2.5,0.8,3.2s1.3,1.1,2.2,1.1
				s1.9-0.4,3.1-1.2c1.1-0.8,2.3-2,3.4-3.7c1.2-1.7,2.3-3.8,3.3-6.4s1.9-5.6,2.7-9.2l-0.8-0.5c-1.4,0.3-2.7,0.8-4,1.4
				c-1.3,0.7-2.4,1.5-3.5,2.4s-2.1,2-3,3.1s-1.6,2.2-2.3,3.4c-0.6,1.1-1.1,2.3-1.4,3.3C249.2,283.2,249,284.2,249,285.1z
				 M255.6,250.8c0,1.1,0.2,2.2,0.7,3.3c0.5,1.1,1.2,2.2,2,3.2c0.9,1.1,1.9,2.1,3.1,3.2c1.2,1,2.5,2.1,3.9,3.1
				c0.2-1.9,0.3-3.9,0.5-6s0.3-4.3,0.3-6.7c0-1.6-0.1-3-0.3-4.1c-0.2-1.1-0.5-2-0.8-2.7s-0.8-1.2-1.2-1.5c-0.5-0.3-1-0.5-1.5-0.5
				s-1,0.1-1.5,0.4c-0.5,0.2-1,0.6-1.5,1s-1,0.9-1.4,1.5s-0.8,1.2-1.1,1.8c-0.3,0.7-0.6,1.3-0.8,2
				C255.7,249.5,255.6,250.2,255.6,250.8z"/>
			<path fill="#FFFFFF" d="M284.8,275c-0.4,0.3-0.9,0.7-1.4,1.1c-0.6,0.4-1.2,0.8-1.8,1.1c-0.7,0.3-1.3,0.6-2,0.8
				c-0.7,0.2-1.3,0.3-1.9,0.3s-1-0.1-1.4-0.2c-0.4-0.2-0.7-0.4-0.9-0.6c-0.2-0.3-0.4-0.6-0.5-1s-0.2-0.8-0.2-1.3
				c0-0.7,0.1-1.4,0.2-2.3c0.3-1.8,0.5-2.9,0.6-3.1c0.1-0.5,0.4-1.5,0.9-3c0.4-1.3,0.7-2.1,0.7-2.5c0.1-0.3,0.2-0.5,0.4-0.7
				c0.2-0.2,0.5-0.4,0.7-0.5c0.3-0.1,0.6-0.2,0.9-0.3c0.3-0.1,0.6-0.1,0.8-0.1c0.4,0,0.7,0.1,0.9,0.2c0.2,0.2,0.2,0.4,0.2,0.7
				c0,0.2-0.1,0.6-0.2,1s-0.2,0.9-0.4,1.5s-0.3,1.2-0.6,2.1c-0.3,0.9-0.5,1.6-0.6,2.2s-0.2,1.2-0.4,1.8c-0.2,0.6-0.2,1.1-0.2,1.6
				s0.1,0.9,0.2,1.1c0.1,0.3,0.3,0.4,0.7,0.4c0.4,0,0.8-0.1,1.3-0.4s0.9-0.6,1.4-1s0.9-0.8,1.4-1.2c0.5-0.4,0.9-0.7,1.2-1L284.8,275
				L284.8,275z M277.7,258.3c0-0.2,0.1-0.5,0.2-0.8s0.3-0.6,0.5-0.9s0.6-0.5,1-0.7s0.9-0.3,1.5-0.3c0.4,0,0.7,0,1,0.1
				s0.6,0.2,0.9,0.4c0.2,0.2,0.4,0.4,0.6,0.7s0.2,0.6,0.2,1s-0.1,0.7-0.2,1.1c-0.1,0.3-0.3,0.6-0.6,0.9c-0.3,0.3-0.6,0.5-1,0.7
				s-0.9,0.2-1.4,0.2c-0.9,0-1.6-0.2-2.1-0.7C278,259.6,277.7,259,277.7,258.3z"/>
			<path fill="#FFFFFF" d="M296.9,274.8c-1,0.6-1.9,1.1-2.7,1.6c-0.8,0.4-1.5,0.8-2.1,1.1c-0.6,0.3-1.2,0.5-1.7,0.7
				c-0.5,0.1-0.9,0.2-1.3,0.2c-0.8,0-1.5-0.2-2.1-0.7s-1.1-1.2-1.5-2.1s-0.7-2-0.9-3.3c-0.2-1.3-0.3-2.8-0.3-4.4c0-0.6,0-1.3,0.1-2
				s0.1-1.4,0.2-2.1c-0.3,0-0.6-0.1-0.7-0.1c-0.2,0-0.4-0.1-0.6-0.1s-0.4-0.1-0.8-0.1c-0.3,0-0.7-0.1-1.3-0.2
				c-0.3,0-0.5-0.1-0.6-0.2s-0.2-0.2-0.3-0.4s-0.1-0.3-0.1-0.4s0-0.3,0-0.4c0-0.2,0.1-0.3,0.3-0.4c0.2-0.1,0.5-0.2,0.8-0.2
				s0.7-0.1,1.1-0.1s0.8,0,1.1,0c0.4,0,0.7,0,1,0s0.5,0,0.6,0c0.3-1.4,0.6-2.8,1.1-4.1c0.4-1.3,0.9-2.5,1.5-3.6
				c0.5-1,1.1-1.9,1.8-2.5c0.6-0.6,1.3-0.9,2-0.9c0.5,0,0.9,0.1,1.2,0.4c0.4,0.3,0.7,0.6,1,1s0.5,0.9,0.6,1.5s0.2,1.2,0.2,1.8
				c0,0.5-0.1,1-0.2,1.6c-0.1,0.6-0.3,1.1-0.6,1.7c-0.3,0.6-0.6,1.2-0.9,1.8c-0.3,0.6-0.7,1.2-1.1,1.8c0.1,0,0.3,0,0.5,0
				s0.5,0,0.8,0s0.6,0,0.9,0s0.7,0,1,0s0.6,0,0.9,0s0.5,0,0.7,0s0.4,0.1,0.5,0.4c0.1,0.2,0.1,0.5,0.1,0.8c0,0.4-0.1,0.7-0.3,1
				c-0.2,0.2-0.4,0.4-0.7,0.4H290c-0.3,0.4-0.6,0.8-0.9,1.2c-0.3,0.4-0.6,0.8-0.9,1.1c0,0.7-0.1,1.3-0.1,1.9c0,0.3,0,0.6,0,0.9
				s0,0.6,0,0.9s0,0.6,0,0.8c0,0.3,0,0.5,0,0.7c0,0.6,0.1,1.1,0.2,1.4c0.1,0.4,0.3,0.7,0.5,1c0.2,0.2,0.4,0.4,0.7,0.5
				c0.3,0.1,0.6,0.2,1,0.2c0.2,0,0.5-0.1,0.8-0.2s0.7-0.3,1.1-0.4c0.4-0.2,0.8-0.4,1.3-0.7c0.4-0.3,0.9-0.5,1.3-0.8s0.8-0.6,1.2-1
				c0.4-0.3,0.7-0.7,1.1-1v4H296.9z M291.9,254.6c0-0.1,0-0.2,0-0.4c0-0.1-0.1-0.3-0.1-0.4c-0.1-0.1-0.1-0.2-0.2-0.3
				s-0.3-0.1-0.5-0.1c-0.3,0-0.6,0.2-0.8,0.7c-0.3,0.5-0.6,1.1-0.8,1.9c-0.3,0.8-0.5,1.6-0.7,2.5s-0.4,1.8-0.6,2.6
				c0.2,0,0.3,0,0.5,0s0.3,0,0.5,0c0.3-0.5,0.7-1.1,1-1.7s0.7-1.2,0.9-1.8c0.3-0.6,0.5-1.2,0.7-1.7
				C291.8,255.4,291.9,255,291.9,254.6z"/>
			<path fill="#FFFFFF" d="M308.9,274.8c-1,0.6-1.9,1.1-2.7,1.6c-0.8,0.4-1.5,0.8-2.1,1.1c-0.6,0.3-1.2,0.5-1.7,0.7
				c-0.5,0.1-0.9,0.2-1.3,0.2c-0.8,0-1.5-0.2-2.1-0.7s-1.1-1.2-1.5-2.1s-0.7-2-0.9-3.3c-0.2-1.3-0.3-2.8-0.3-4.4c0-0.6,0-1.3,0.1-2
				s0.1-1.4,0.2-2.1c-0.3,0-0.6-0.1-0.7-0.1c-0.2,0-0.4-0.1-0.6-0.1s-0.4-0.1-0.8-0.1s-0.7-0.1-1.3-0.2c-0.3,0-0.5-0.1-0.6-0.2
				s-0.2-0.2-0.3-0.4s-0.1-0.3-0.1-0.4s0-0.3,0-0.4c0-0.2,0.1-0.3,0.3-0.4c0.2-0.1,0.5-0.2,0.8-0.2s0.7-0.1,1.1-0.1s0.8,0,1.1,0
				c0.4,0,0.7,0,1,0s0.5,0,0.6,0c0.3-1.4,0.6-2.8,1.1-4.1c0.4-1.3,0.9-2.5,1.5-3.6c0.5-1,1.1-1.9,1.8-2.5c0.6-0.6,1.3-0.9,2-0.9
				c0.5,0,0.9,0.1,1.2,0.4c0.4,0.3,0.7,0.6,1,1s0.5,0.9,0.6,1.5s0.2,1.2,0.2,1.8c0,0.5-0.1,1-0.2,1.6c-0.1,0.6-0.3,1.1-0.6,1.7
				c-0.3,0.6-0.6,1.2-0.9,1.8c-0.3,0.6-0.7,1.2-1.1,1.8c0.1,0,0.3,0,0.5,0s0.5,0,0.8,0s0.6,0,0.9,0s0.7,0,1,0s0.6,0,0.9,0
				s0.5,0,0.7,0s0.4,0.1,0.5,0.4c0.1,0.2,0.1,0.5,0.1,0.8c0,0.4-0.1,0.7-0.3,1c-0.2,0.2-0.4,0.4-0.7,0.4H302
				c-0.3,0.4-0.6,0.8-0.9,1.2c-0.3,0.4-0.6,0.8-0.9,1.1c0,0.7-0.1,1.3-0.1,1.9c0,0.3,0,0.6,0,0.9s0,0.6,0,0.9s0,0.6,0,0.8
				c0,0.3,0,0.5,0,0.7c0,0.6,0.1,1.1,0.2,1.4c0.1,0.4,0.3,0.7,0.5,1c0.2,0.2,0.4,0.4,0.7,0.5c0.3,0.1,0.6,0.2,1,0.2
				c0.2,0,0.5-0.1,0.8-0.2s0.7-0.3,1.1-0.4c0.4-0.2,0.8-0.4,1.3-0.7c0.4-0.3,0.9-0.5,1.3-0.8s0.8-0.6,1.2-1c0.4-0.3,0.7-0.7,1.1-1v4
				H308.9z M303.8,254.6c0-0.1,0-0.2,0-0.4c0-0.1-0.1-0.3-0.1-0.4c-0.1-0.1-0.1-0.2-0.2-0.3s-0.3-0.1-0.5-0.1
				c-0.3,0-0.6,0.2-0.8,0.7c-0.3,0.5-0.6,1.1-0.8,1.9c-0.3,0.8-0.5,1.6-0.7,2.5s-0.4,1.8-0.6,2.6c0.2,0,0.3,0,0.5,0s0.3,0,0.5,0
				c0.3-0.5,0.7-1.1,1-1.7s0.7-1.2,0.9-1.8c0.3-0.6,0.5-1.2,0.7-1.7C303.8,255.4,303.8,255,303.8,254.6z"/>
			<path fill="#FFFFFF" d="M313,278.3c-1,0-1.9-0.2-2.6-0.6s-1.4-0.9-1.9-1.5s-0.9-1.3-1.1-2.2c-0.2-0.8-0.4-1.7-0.4-2.6
				c0-0.6,0.1-1.3,0.3-2.1c0.2-0.8,0.5-1.5,0.7-2.2c0.2-0.6,0.5-1.2,0.9-1.8c0.4-0.6,0.8-1.1,1.3-1.5s1-0.8,1.6-1
				c0.6-0.3,1.3-0.4,2-0.4c0.6,0,1.1,0.1,1.7,0.3s1,0.5,1.3,0.8c0.4,0.3,0.7,0.8,0.9,1.2c0.2,0.5,0.3,1,0.3,1.6s-0.2,1.4-0.6,2.2
				c-0.4,0.8-0.9,1.5-1.5,2.1s-1.3,1.1-2,1.5c-0.8,0.4-1.6,0.8-2.6,1c0.2,0.3,0.3,0.5,0.5,0.7s0.3,0.3,0.5,0.4s0.3,0.2,0.5,0.2
				s0.4,0.1,0.6,0.1c0.6,0,1.3-0.1,2-0.4c0.7-0.2,1.4-0.6,2.1-0.9c0.7-0.4,1.3-0.8,1.9-1.2c0.6-0.4,1.1-0.9,1.5-1.3l2.1,2.1
				c-0.9,1-1.9,1.9-3,2.6c-0.5,0.3-0.9,0.6-1.5,1c-0.5,0.3-1.1,0.6-1.7,0.8c-0.6,0.2-1.2,0.4-1.8,0.6
				C314.3,278.3,313.7,278.3,313,278.3z M310.9,270.8c0.4,0,0.8-0.1,1.3-0.3c0.5-0.2,0.9-0.4,1.3-0.7c0.4-0.3,0.8-0.7,1.1-1.2
				c0.4-0.5,0.6-0.9,0.6-1.3c0-0.5-0.1-0.9-0.3-1.2c-0.2-0.3-0.4-0.5-0.6-0.5c-0.5,0-0.8,0.1-1.2,0.2c-0.3,0.2-0.6,0.4-0.8,0.6
				c-0.2,0.3-0.4,0.6-0.5,0.9s-0.3,0.8-0.5,1.3s-0.3,0.9-0.3,1.2C310.9,270.3,310.9,270.5,310.9,270.8z"/>
			<path fill="#FFFFFF" d="M319.7,275c0-0.5,0-1,0.1-1.6s0.1-1.3,0.2-2s0.2-1.4,0.3-2.1c0.1-0.7,0.3-1.5,0.5-2.3s0.4-1.5,0.5-2
				s0.3-1,0.4-1.3c0.1-0.2,0.2-0.4,0.3-0.6c0.1-0.1,0.2-0.2,0.3-0.3c0.1-0.1,0.2-0.1,0.4-0.2c0.2,0,0.4,0,0.6,0c0.3,0,0.5,0,0.6,0
				c0.2,0,0.3,0.1,0.3,0.2c0.1,0.1,0.1,0.2,0.1,0.4s0,0.5,0,0.8c0,0.4,0,0.9-0.1,1.7c-0.1,0.7-0.1,1.4,0,1.9h0.2
				c0.2-0.4,0.5-1,0.8-1.7s0.7-1.3,1-1.7c0.3-0.5,0.7-0.8,1.2-1.2c0.4-0.3,1-0.5,1.5-0.5c0.2,0,0.4,0,0.6,0.1s0.4,0.2,0.5,0.3
				s0.3,0.3,0.3,0.5c0.1,0.2,0.1,0.4,0.1,0.6s0,0.4-0.1,0.8c-0.1,0.3-0.1,0.7-0.3,1.3c-0.1,0.5-0.2,0.9-0.3,1.3
				c-0.1,0.3-0.1,0.6-0.1,0.8c0,0.4,0,0.7,0.1,1s0.2,0.5,0.3,0.6c0.1,0.2,0.3,0.3,0.4,0.3c0.2,0.1,0.3,0.1,0.5,0.1
				c0.5,0,1-0.1,1.5-0.3c0.5-0.2,1-0.5,1.4-0.7c0.5-0.3,1-0.7,1.5-1l-0.2,3.7c-0.3,0.2-0.6,0.4-0.9,0.6s-0.7,0.4-1.1,0.6
				s-0.8,0.4-1.2,0.5c-0.4,0.1-0.9,0.2-1.3,0.2c-0.8,0-1.4-0.2-1.9-0.5s-0.9-0.7-1.2-1.3c-0.3-0.5-0.5-1.1-0.6-1.8
				c-0.1-0.7-0.2-1.3-0.3-2h-0.3l-2.8,7.9c-0.1,0.4-0.3,0.8-0.4,1c-0.1,0.3-0.3,0.5-0.4,0.7s-0.3,0.3-0.4,0.4
				c-0.2,0.1-0.3,0.1-0.5,0.1c-0.4,0-0.8-0.1-1-0.3c-0.3-0.2-0.5-0.4-0.6-0.7c-0.1-0.3-0.2-0.7-0.3-1.1
				C319.7,275.8,319.7,275.4,319.7,275z"/>
			<path fill="#FFFFFF" d="M339.6,278.6l0.3-1.9c-0.6,0.5-1.2,0.9-1.8,1.2c-0.6,0.3-1.2,0.5-1.8,0.5c-0.5,0-1-0.1-1.5-0.3
				c-0.5-0.2-0.9-0.5-1.3-0.9s-0.7-0.9-0.9-1.4c-0.2-0.6-0.3-1.2-0.3-1.9c0-0.9,0.1-1.8,0.2-2.5c0.1-0.8,0.3-1.7,0.5-2.8
				c0.2-1.1,0.4-2,0.7-2.7c0.3-0.7,0.5-1.3,0.9-2c0.2-0.5,0.6-0.8,1-1.1c0.5-0.2,0.9-0.4,1.3-0.4s0.7,0.1,1,0.3s0.4,0.5,0.4,0.9
				c0,0.1,0,0.2,0,0.4c0,0.1-0.1,0.3-0.1,0.4c-0.2,0.5-0.3,1.1-0.5,1.7c-0.1,0.7-0.3,1.6-0.5,2.7s-0.4,2-0.5,2.7s-0.2,1.2-0.2,1.8
				c0,0.3,0,0.5,0.1,0.8c0,0.3,0.1,0.5,0.2,0.7s0.2,0.4,0.4,0.5c0.2,0.1,0.4,0.2,0.6,0.2c0.4,0,0.7-0.2,1.1-0.5
				c0.3-0.3,0.6-0.8,0.8-1.2c0.2-0.5,0.4-1,0.6-1.5c0.1-0.5,0.2-0.9,0.3-1.3l1.3-5.9c0.1-0.3,0.2-0.7,0.4-1c0.2-0.3,0.5-0.5,0.7-0.7
				c0.3-0.2,0.6-0.3,0.9-0.4s0.6-0.1,0.9-0.1s0.6,0.1,0.8,0.2c0.2,0.1,0.3,0.4,0.3,0.7c0,0.1,0,0.2,0,0.3c-0.1,0.3-0.1,0.7-0.2,1.1
				c-0.1,0.5-0.2,1-0.3,1.6c-0.1,0.6-0.3,1.5-0.4,2.6c-0.2,1.1-0.3,2-0.5,2.6c-0.3,1.6-0.5,3.3-0.8,5.1c0.3-0.2,0.7-0.4,1-0.7
				c0.4-0.3,0.8-0.6,1.2-1.1c0.5-0.4,1-1,1.5-1.7c0.6-0.7,1.3-2,2.5-1.8c0.9,0.2,0.7,2,0.2,2.8c-0.4,0.6-0.4,0.7-0.7,1
				c-0.3,0.4-0.7,0.7-1,1c-0.5,0.5-0.9,0.8-1.1,1c-0.1,0.1-0.5,0.4-1.2,0.9c-0.2,0.2-0.9,0.7-2.1,1.5c-0.3,0.2-0.5,0.5-0.6,1
				s-0.2,1.4-0.4,2.8c-0.1,0.4-0.1,0.7-0.1,0.9c-0.1,0.5-0.1,1-0.2,1.4c-0.1,0.5-0.2,1-0.3,1.6c-0.1,0.6-0.3,1.1-0.5,1.6
				s-0.5,1-0.8,1.5s-0.7,0.9-1.1,1.2c-0.4,0.3-0.9,0.6-1.4,0.8c-0.6,0.2-1.2,0.3-1.8,0.3c-0.5,0-1-0.1-1.5-0.2s-0.9-0.3-1.3-0.6
				c-0.4-0.3-0.7-0.6-0.9-1c-0.2-0.4-0.4-1-0.4-1.5c-0.1-1.1,0.2-2.3,0.9-3.6c0.4-0.7,0.7-1.2,0.8-1.5c0.2-0.3,0.4-0.7,0.7-1.2
				c0.3-0.5,0.7-0.9,1.1-1.4c0.7-0.8,1.4-1.5,1.8-2C338.4,279.7,339,279.2,339.6,278.6z M339.7,282.4c-0.7,0.5-1.5,1.4-2.2,2.5
				c-0.7,1.2-1.3,2.4-1.7,3.6c-0.4,1-0.2,1.5,0.5,1.5c0.3,0,0.5,0,0.7-0.1s0.4-0.2,0.6-0.3c0.2-0.2,0.3-0.3,0.4-0.5s0.3-0.5,0.4-0.8
				c0.1-0.4,0.3-0.7,0.4-1s0.3-0.8,0.4-1.4c0.1-0.3,0.2-0.7,0.2-1c0-0.4,0.1-0.8,0.2-1.4C339.6,282.9,339.7,282.6,339.7,282.4z"/>
		</g>
		<g>
			<path fill="#FFFFFF" d="M289.2,299.8c0-0.8,0.2-1.5,0.5-2.3s0.8-1.5,1.3-2.2c0.6-0.7,1.2-1.3,2-1.8s1.6-0.9,2.6-1.2
				c-0.5-0.4-0.9-0.8-1.3-1.3c-0.4-0.4-0.7-0.9-1-1.3c-0.3-0.5-0.5-0.9-0.7-1.4s-0.2-0.9-0.2-1.4c0-0.6,0.1-1.1,0.2-1.6
				s0.3-1,0.6-1.4c0.2-0.4,0.5-0.8,0.8-1.2s0.7-0.6,1-0.9c0.4-0.2,0.7-0.4,1.1-0.5s0.8-0.2,1.1-0.2c0.5,0,1,0.2,1.4,0.4
				c0.5,0.3,0.9,0.7,1.2,1.3c0.3,0.6,0.6,1.3,0.8,2.2c0.2,0.9,0.3,2,0.2,3.3c0,0.4-0.1,1.1-0.2,2.1s-0.3,2-0.4,2.9
				c0.3,0.2,0.7,0.4,1,0.7c0.3,0.2,0.7,0.4,1,0.6c0.1,0,0.2,0.1,0.3,0.2s0.2,0.1,0.3,0.2c0.1,0.1,0.2,0.1,0.3,0.2
				c0.1,0.1,0.1,0.1,0.1,0.2s0,0.1-0.1,0.2c0,0.1-0.1,0.1-0.2,0.1s-0.1,0.1-0.2,0.1s-0.1,0.1-0.1,0.1c-0.1,0-0.2,0.1-0.4,0.1
				c-0.3,0-0.7-0.1-1.1-0.2s-0.8-0.3-1.3-0.5c-0.3,1-0.6,2-1,2.8s-0.8,1.6-1.2,2.3c-0.4,0.7-0.9,1.3-1.4,1.7c-0.5,0.5-1,0.9-1.4,1.2
				c-0.5,0.3-1,0.6-1.4,0.7c-0.5,0.2-0.9,0.2-1.3,0.2s-0.9-0.1-1.2-0.3s-0.7-0.5-1-0.8c-0.3-0.4-0.5-0.8-0.6-1.3
				C289.2,301.1,289.1,300.5,289.2,299.8z M291.3,300.4c0,0.6,0.1,1,0.3,1.3c0.2,0.3,0.5,0.5,0.9,0.5s0.8-0.1,1.3-0.4s1-0.8,1.5-1.5
				s1-1.5,1.4-2.6s0.9-2.3,1.2-3.7l-0.3-0.2c-0.6,0.1-1.1,0.3-1.7,0.5c-0.5,0.3-1,0.6-1.5,0.9c-0.5,0.4-0.9,0.8-1.2,1.2
				c-0.4,0.4-0.7,0.9-1,1.4s-0.5,0.9-0.6,1.3C291.4,299.6,291.3,300,291.3,300.4z M294.5,286.4c0,0.4,0.1,0.9,0.2,1.3
				c0.2,0.4,0.4,0.9,0.8,1.3c0.3,0.4,0.7,0.9,1.2,1.3s1,0.9,1.6,1.3c0.1-0.8,0.2-1.6,0.3-2.5c0.1-0.9,0.2-1.8,0.2-2.7
				c0-0.7,0-1.2-0.1-1.7s-0.2-0.8-0.3-1.1c-0.1-0.3-0.3-0.5-0.5-0.6s-0.4-0.2-0.6-0.2s-0.4,0-0.6,0.1s-0.4,0.2-0.6,0.4
				c-0.2,0.2-0.4,0.4-0.6,0.6s-0.4,0.5-0.5,0.7c-0.1,0.3-0.3,0.5-0.3,0.8S294.5,286.2,294.5,286.4z"/>
			<path fill="#FFFFFF" d="M307.2,291.7c0.2,0.3,0.3,0.7,0.3,1s0.1,0.8,0.1,1.2c0,0.3-0.1,0.7-0.1,1c-0.1,0.3-0.2,0.7-0.3,1
				c-0.1,0.3-0.3,0.6-0.5,0.9s-0.4,0.5-0.7,0.7c-0.3,0.2-0.5,0.3-0.9,0.5c-0.3,0.1-0.6,0.2-1,0.1c-0.5,0-0.9-0.1-1.3-0.4
				s-0.6-0.5-0.8-0.9c-0.2-0.4-0.4-0.8-0.5-1.2c-0.1-0.4-0.1-0.9-0.1-1.3c0-0.7,0.1-1.4,0.3-1.9c0.2-0.5,0.5-1,0.8-1.4
				c0.4-0.4,0.8-0.7,1.3-0.9c0.5-0.2,1.1-0.3,1.7-0.3c0.5,0,1,0.1,1.5,0.3s0.9,0.4,1.3,0.7s0.8,0.7,1.1,1.1c0.3,0.4,0.7,0.8,0.9,1.2
				l-0.2,1.2c-0.1-0.2-0.3-0.4-0.6-0.7c-0.3-0.2-0.5-0.5-0.8-0.8s-0.6-0.5-0.8-0.8C307.7,291.9,307.5,291.8,307.2,291.7L307.2,291.7
				z M304.4,296.5c0.2,0,0.4-0.1,0.6-0.3c0.2-0.2,0.4-0.4,0.5-0.7s0.3-0.6,0.4-1.1c0.1-0.4,0.1-0.8,0.2-1.1c0-0.3,0-0.5,0-0.7
				s-0.1-0.4-0.2-0.6s-0.2-0.3-0.3-0.4c-0.1-0.1-0.3-0.2-0.4-0.2c-0.2,0-0.5,0.1-0.7,0.3s-0.4,0.4-0.6,0.7c-0.2,0.3-0.3,0.6-0.4,1
				s-0.2,0.8-0.2,1.2c0,0.2,0,0.5,0,0.7s0.1,0.4,0.2,0.5c0.1,0.2,0.2,0.3,0.4,0.4C304,296.4,304.2,296.5,304.4,296.5z"/>
			<path fill="#FFFFFF" d="M311.9,298.4c-0.5,0-1-0.1-1.4-0.3c-0.4-0.2-0.7-0.5-1-0.8s-0.4-0.7-0.6-1.2s-0.2-0.9-0.2-1.4
				c0-0.3,0.1-0.7,0.2-1.1s0.3-0.8,0.4-1.1c0.1-0.3,0.3-0.6,0.5-0.9s0.4-0.6,0.7-0.8c0.3-0.2,0.6-0.4,0.9-0.5s0.7-0.2,1.1-0.2
				c0.3,0,0.6,0.1,0.9,0.2s0.5,0.3,0.7,0.4c0.2,0.2,0.3,0.4,0.4,0.7c0.1,0.3,0.2,0.6,0.1,0.9c0,0.3-0.1,0.7-0.4,1.1
				s-0.5,0.8-0.8,1.1c-0.3,0.3-0.7,0.5-1.1,0.8c-0.4,0.2-0.9,0.4-1.4,0.5c0.1,0.2,0.2,0.3,0.2,0.4c0.1,0.1,0.2,0.2,0.2,0.2
				c0.1,0.1,0.2,0.1,0.3,0.1c0.1,0,0.2,0,0.3,0c0.3,0,0.7,0,1.1-0.2c0.4-0.1,0.7-0.3,1.1-0.5s0.7-0.4,1-0.6s0.6-0.4,0.9-0.4
				c0.6-0.1,1.4,0.2,1,0.9c-0.5,0.7-1.1,1-1.6,1.3c-0.2,0.2-0.5,0.3-0.8,0.5s-0.6,0.3-0.9,0.4s-0.6,0.2-1,0.3
				C312.5,298.3,312.2,298.4,311.9,298.4z M310.9,294.3c0.2,0,0.4,0,0.7-0.1c0.2-0.1,0.5-0.2,0.7-0.4c0.2-0.2,0.4-0.4,0.6-0.6
				c0.2-0.3,0.3-0.5,0.3-0.7s0-0.5-0.1-0.6c-0.1-0.2-0.2-0.2-0.3-0.2c-0.2,0-0.5,0-0.6,0.1c-0.2,0.1-0.3,0.2-0.4,0.3
				c-0.1,0.1-0.2,0.3-0.3,0.5c-0.1,0.2-0.2,0.4-0.3,0.7c-0.1,0.3-0.2,0.5-0.2,0.6C310.9,294,310.9,294.2,310.9,294.3z"/>
			<path fill="#FFFFFF" d="M317.2,290.8c0-0.1,0-0.2,0-0.3c0-0.1,0-0.3,0-0.4c0-0.2,0-0.3,0-0.5s0-0.3,0.1-0.5
				c0-0.4,0.1-0.8,0.1-1.2c0-0.1,0-0.3,0.1-0.4s0.2-0.2,0.3-0.3c0.1-0.1,0.3-0.1,0.5-0.2c0.2,0,0.3-0.1,0.5-0.1c0.1,0,0.3,0,0.4,0
				s0.3,0.1,0.4,0.1c0.1,0.1,0.2,0.1,0.3,0.2c0.1,0.1,0.1,0.2,0.1,0.3c0,0.1,0,0.1,0,0.2s0,0.1-0.1,0.2c-0.1,0.2-0.2,0.4-0.3,0.7
				c-0.1,0.3-0.2,0.5-0.3,0.8c-0.1,0.3-0.2,0.5-0.3,0.7c-0.1,0.2-0.2,0.4-0.3,0.6c-0.1,0.2-0.2,0.4-0.4,0.5
				c-0.2,0.1-0.4,0.2-0.5,0.2s-0.3-0.1-0.5-0.2S317.2,291,317.2,290.8z"/>
			<path fill="#FFFFFF" d="M319.2,294.9c0.3-0.3,0.6-0.5,0.8-0.7c0.2-0.2,0.4-0.4,0.6-0.6s0.4-0.4,0.5-0.6c0.1-0.1,0.3-0.3,0.4-0.5
				c0.2-0.2,0.4-0.5,0.6-0.8s0.5-0.7,0.9-1.1c0.1-0.1,0.2-0.2,0.3-0.3c0.1-0.1,0.2-0.2,0.3-0.2c0.1-0.1,0.2-0.1,0.4-0.2
				c0.1,0,0.3-0.1,0.4-0.1c0.3,0,0.5,0,0.6,0.1s0.2,0.1,0.3,0.2s0.1,0.2,0.1,0.3c0,0.1,0,0.2,0,0.2c0,0.1-0.1,0.3-0.2,0.4
				c-0.1,0.2-0.2,0.3-0.4,0.5c-0.1,0.1-0.3,0.3-0.4,0.4s-0.2,0.2-0.2,0.3c0,0.2,0,0.3,0,0.5c0,0.1,0.1,0.3,0.1,0.4s0.1,0.3,0.1,0.4
				c0,0.2,0.1,0.3,0.1,0.5s0,0.5,0,0.8c0,0.4-0.1,0.7-0.1,1.1c0.2-0.1,0.4-0.2,0.7-0.3c0.2-0.1,0.5-0.2,0.7-0.3
				c0.3-0.1,0.5-0.2,0.8-0.4c0.3-0.1,0.7-0.3,1.1,0s0.1,1-0.4,1.4c-0.3,0.3-0.8,0.5-1.2,0.7c-0.5,0.2-1,0.4-1.5,0.6s-1,0.3-1.5,0.4
				s-1,0.1-1.5,0.1c-0.3,0-0.6-0.1-0.9-0.1c-0.3-0.1-0.5-0.2-0.7-0.3c-0.2-0.1-0.4-0.3-0.5-0.5s-0.2-0.5-0.2-0.7c-0.1,0-0.2,0-0.2,0
				c-0.1,0-0.2,0-0.2,0c-0.1,0-0.2,0-0.3,0c-0.1,0-0.1,0-0.2-0.1c-0.1,0-0.1-0.1-0.1-0.2s0-0.2,0-0.4c0-0.1,0-0.3,0.1-0.4
				s0.2-0.2,0.2-0.3c0.1-0.1,0.2-0.2,0.3-0.2C319.1,295,319.2,295,319.2,294.9z M320.2,296.1c0.1,0,0.1,0,0.2,0.1s0.2,0.2,0.3,0.3
				c0.1,0.1,0.2,0.2,0.4,0.3c0.1,0.1,0.3,0.1,0.5,0.1s0.4,0,0.5-0.1s0.3-0.2,0.4-0.3s0.2-0.3,0.2-0.4c0-0.2,0.1-0.3,0.1-0.5
				s0-0.3,0-0.5s0-0.4,0-0.6s0-0.4,0-0.5s-0.1-0.2-0.1-0.3L320.2,296.1z"/>
		</g>
	</g>
	<path opacity="0.4" fill="#212121" d="M296.2,330.3l-6.6-0.2c-31.1-1.1-53-26.8-54.5-59.7c0.7-32.3,21.7-55.3,60.9-59.5l-8.7-88.6
		h-69.9c-8.7,0-15.8,6.9-16.2,15.5h-8.9c-5.7,0-10.4,4.6-10.4,10.4c0,5.7,4.6,10.4,10.4,10.4h12.8L226,446.8h67.6h25.5l-11.1-117
		C303.8,330.8,300.6,330.3,296.2,330.3z"/>
</g>
</svg>
