<?xml version="1.0" encoding="utf-8"?>
<!-- Generator: Adobe Illustrator 17.0.2, SVG Export Plug-In . SVG Version: 6.00 Build 0)  -->
<!DOCTYPE svg PUBLIC "-//W3C//DTD SVG 1.1//EN" "http://www.w3.org/Graphics/SVG/1.1/DTD/svg11.dtd">
<svg version="1.1" id="Layer_1" xmlns="http://www.w3.org/2000/svg" xmlns:xlink="http://www.w3.org/1999/xlink" x="0px" y="0px"
	 width="106.8px" height="66.7px" viewBox="86.9 143.8 106.8 66.7" enable-background="new 86.9 143.8 106.8 66.7"
	 xml:space="preserve">
<g>
	<path fill="#FFFFFF" d="M86.9,190.1c0-1.9,0.4-3.7,1.1-5.7c0.7-1.9,1.7-3.8,3-5.5c1.3-1.7,2.9-3.3,4.7-4.6c1.8-1.4,3.9-2.4,6.2-3.1
		c-1.2-0.9-2.3-1.9-3.3-3c-1-1-1.9-2.1-2.7-3.2c-0.8-1.1-1.3-2.2-1.8-3.3s-0.6-2.2-0.6-3.3c0-1.4,0.2-2.8,0.5-4
		c0.3-1.3,0.7-2.5,1.3-3.6c0.5-1.1,1.2-2.1,1.9-3c0.7-0.9,1.5-1.6,2.4-2.3c0.8-0.6,1.7-1.1,2.7-1.4s1.9-0.5,2.8-0.5
		c1.2,0,2.4,0.3,3.6,1c1.1,0.6,2.2,1.7,3.1,3s1.6,3.2,2.1,5.4c0.5,2.2,0.8,4.9,0.8,8c0,0.9-0.1,2.6-0.4,5.1c-0.3,2.4-0.5,4.8-0.7,7
		c0.8,0.5,1.7,1,2.5,1.5s1.7,1,2.6,1.5c0.2,0.1,0.4,0.2,0.7,0.4c0.3,0.2,0.5,0.3,0.8,0.5c0.3,0.2,0.5,0.3,0.6,0.5
		c0.2,0.2,0.3,0.3,0.3,0.5s-0.1,0.3-0.2,0.4c-0.1,0.1-0.3,0.3-0.4,0.4c-0.2,0.1-0.3,0.2-0.5,0.3c-0.2,0.1-0.3,0.1-0.4,0.2
		c-0.2,0.1-0.5,0.2-0.9,0.2c-0.8,0-1.7-0.2-2.7-0.5s-2.1-0.7-3.2-1.2c-0.6,2.5-1.3,4.9-2.2,7c-0.8,2.1-1.8,4-2.8,5.7
		c-1,1.7-2.1,3.1-3.2,4.4c-1.1,1.2-2.2,2.3-3.4,3.1c-1.1,0.8-2.3,1.4-3.4,1.9c-1.1,0.4-2.2,0.6-3.3,0.6c-1.1,0-2.1-0.2-3-0.7
		c-0.9-0.4-1.7-1.1-2.4-2c-0.7-0.9-1.2-1.9-1.6-3.2C87.1,193.4,86.9,191.9,86.9,190.1z M92.2,191.5c0,1.4,0.3,2.5,0.8,3.2
		c0.5,0.7,1.3,1.1,2.2,1.1c0.9,0,1.9-0.4,3.1-1.2c1.1-0.8,2.3-2,3.4-3.7s2.3-3.8,3.3-6.4s1.9-5.6,2.7-9.2l-0.8-0.5
		c-1.4,0.3-2.7,0.8-4,1.4s-2.4,1.5-3.5,2.4c-1.1,0.9-2.1,2-3,3.1c-0.9,1.1-1.6,2.2-2.3,3.4c-0.6,1.1-1.1,2.3-1.4,3.3
		C92.4,189.6,92.2,190.6,92.2,191.5z M98.8,157.2c0,1.1,0.2,2.2,0.7,3.3c0.5,1.1,1.2,2.2,2,3.2c0.9,1.1,1.9,2.1,3.1,3.2
		c1.2,1,2.5,2.1,3.9,3.1c0.2-1.9,0.3-3.9,0.5-6s0.3-4.3,0.3-6.7c0-1.6-0.1-3-0.3-4.1c-0.2-1.1-0.5-2-0.8-2.7
		c-0.3-0.7-0.8-1.2-1.2-1.5s-1-0.5-1.5-0.5c-0.5,0-1,0.1-1.5,0.4c-0.5,0.2-1,0.6-1.5,1c-0.5,0.4-1,0.9-1.4,1.5
		c-0.4,0.6-0.8,1.2-1.1,1.8c-0.3,0.7-0.6,1.3-0.8,2C98.9,155.8,98.8,156.5,98.8,157.2z"/>
	<path fill="#FFFFFF" d="M128.1,181.3c-0.4,0.4-0.9,0.7-1.4,1.1c-0.6,0.4-1.2,0.8-1.8,1.1s-1.3,0.6-2,0.8s-1.3,0.3-1.9,0.3
		c-0.6,0-1-0.1-1.4-0.2s-0.7-0.4-0.9-0.6c-0.2-0.3-0.4-0.6-0.5-1s-0.2-0.8-0.2-1.3c0-0.7,0.1-1.4,0.2-2.3c0.3-1.8,0.5-2.9,0.6-3.1
		c0.1-0.5,0.4-1.5,0.9-3c0.4-1.3,0.7-2.1,0.7-2.5c0.1-0.3,0.2-0.5,0.4-0.7c0.2-0.2,0.5-0.4,0.7-0.5s0.6-0.2,0.9-0.3
		c0.3-0.1,0.6-0.1,0.8-0.1c0.4,0,0.7,0.1,0.9,0.2c0.2,0.2,0.2,0.4,0.2,0.7c0,0.2-0.1,0.6-0.2,1s-0.2,0.9-0.4,1.5s-0.3,1.2-0.6,2.1
		c-0.3,0.9-0.5,1.6-0.6,2.2s-0.2,1.2-0.4,1.8c-0.2,0.6-0.2,1.1-0.2,1.6c0,0.5,0.1,0.9,0.2,1.1c0.1,0.3,0.3,0.4,0.7,0.4
		c0.4,0,0.8-0.1,1.3-0.4c0.5-0.3,0.9-0.6,1.4-1s0.9-0.8,1.4-1.2s0.9-0.7,1.2-1L128.1,181.3L128.1,181.3z M121,164.6
		c0-0.2,0.1-0.5,0.2-0.8c0.1-0.3,0.3-0.6,0.5-0.9s0.6-0.5,1-0.7s0.9-0.3,1.5-0.3c0.4,0,0.7,0,1.1,0.1c0.3,0.1,0.6,0.2,0.9,0.4
		c0.2,0.2,0.4,0.4,0.6,0.7s0.2,0.6,0.2,1c0,0.4-0.1,0.7-0.2,1.1c-0.1,0.3-0.3,0.6-0.6,0.9c-0.3,0.3-0.6,0.5-1,0.6s-0.9,0.2-1.4,0.2
		c-0.9,0-1.6-0.2-2.1-0.7C121.2,165.9,121,165.3,121,164.6z"/>
	<path fill="#FFFFFF" d="M140.2,181.1c-1,0.6-1.9,1.1-2.7,1.6c-0.8,0.4-1.5,0.8-2.1,1.1c-0.6,0.3-1.2,0.5-1.7,0.7
		c-0.5,0.1-0.9,0.2-1.3,0.2c-0.8,0-1.5-0.2-2.1-0.7c-0.6-0.5-1.1-1.2-1.5-2.1c-0.4-0.9-0.7-2-0.9-3.3s-0.3-2.8-0.3-4.4
		c0-0.6,0-1.3,0.1-2c0.1-0.7,0.1-1.4,0.2-2.1c-0.3,0-0.6-0.1-0.7-0.1c-0.2,0-0.4-0.1-0.6-0.1c-0.2,0-0.4-0.1-0.8-0.1
		c-0.3,0-0.7-0.1-1.3-0.2c-0.3,0-0.5-0.1-0.6-0.2c-0.1-0.1-0.2-0.2-0.3-0.4s-0.1-0.3-0.1-0.4c0-0.1,0-0.3,0-0.4
		c0-0.2,0.1-0.3,0.3-0.4s0.5-0.2,0.8-0.2c0.3,0,0.7-0.1,1.1-0.1s0.8,0,1.1,0s0.7,0,1,0s0.5,0,0.6,0c0.3-1.4,0.6-2.8,1.1-4.1
		c0.4-1.3,0.9-2.5,1.5-3.6c0.5-1,1.1-1.9,1.8-2.5c0.6-0.6,1.3-0.9,2-0.9c0.5,0,0.9,0.1,1.2,0.4s0.7,0.6,1,1s0.5,0.9,0.6,1.5
		c0.1,0.6,0.2,1.2,0.2,1.8c0,0.5-0.1,1-0.2,1.6c-0.1,0.6-0.4,1.1-0.6,1.7s-0.6,1.2-0.9,1.8c-0.3,0.6-0.7,1.2-1.1,1.8
		c0.1,0,0.3,0,0.5,0c0.2,0,0.5,0,0.8,0c0.3,0,0.6,0,0.9,0s0.7,0,1,0s0.6,0,0.9,0c0.3,0,0.5,0,0.7,0c0.2,0,0.4,0.1,0.5,0.4
		s0.1,0.5,0.1,0.9c0,0.4-0.1,0.7-0.3,1c-0.2,0.2-0.4,0.4-0.7,0.4H133c-0.3,0.4-0.6,0.8-0.9,1.2s-0.6,0.8-0.9,1.1
		c0,0.7-0.1,1.3-0.1,1.9c0,0.3,0,0.6,0,0.9c0,0.3,0,0.6,0,0.9c0,0.3,0,0.6,0,0.8c0,0.3,0,0.5,0,0.7c0,0.6,0.1,1.1,0.2,1.4
		c0.1,0.4,0.3,0.7,0.5,1c0.2,0.2,0.4,0.4,0.7,0.5c0.3,0.1,0.6,0.2,1,0.2c0.2,0,0.5-0.1,0.8-0.2s0.7-0.3,1.1-0.4
		c0.4-0.2,0.8-0.4,1.3-0.7s0.9-0.5,1.3-0.8c0.4-0.3,0.8-0.6,1.2-1c0.4-0.3,0.7-0.7,1.1-1L140.2,181.1L140.2,181.1z M135.1,161
		c0-0.1,0-0.2,0-0.4s-0.1-0.3-0.1-0.4c-0.1-0.1-0.1-0.2-0.2-0.3c-0.1-0.1-0.3-0.1-0.5-0.1c-0.3,0-0.6,0.2-0.8,0.7s-0.6,1.1-0.8,1.9
		c-0.3,0.8-0.5,1.6-0.7,2.5c-0.2,0.9-0.4,1.8-0.6,2.6c0.2,0,0.3,0,0.5,0c0.2,0,0.3,0,0.5,0c0.3-0.5,0.7-1.1,1-1.7
		c0.3-0.6,0.7-1.2,0.9-1.8c0.3-0.6,0.5-1.2,0.7-1.7C135,161.8,135.1,161.3,135.1,161z"/>
	<path fill="#FFFFFF" d="M152.2,181.1c-1,0.6-1.9,1.1-2.7,1.6c-0.8,0.4-1.5,0.8-2.1,1.1c-0.6,0.3-1.2,0.5-1.7,0.7
		c-0.5,0.1-0.9,0.2-1.3,0.2c-0.8,0-1.5-0.2-2.1-0.7c-0.6-0.5-1.1-1.2-1.5-2.1c-0.4-0.9-0.7-2-0.9-3.3c-0.2-1.3-0.3-2.8-0.3-4.4
		c0-0.6,0-1.3,0.1-2c0.1-0.7,0.1-1.4,0.2-2.1c-0.3,0-0.6-0.1-0.7-0.1c-0.2,0-0.4-0.1-0.6-0.1c-0.2,0-0.4-0.1-0.8-0.1
		s-0.7-0.1-1.3-0.2c-0.3,0-0.5-0.1-0.6-0.2c-0.1-0.1-0.2-0.2-0.3-0.4s-0.1-0.3-0.1-0.4c0-0.1,0-0.3,0-0.4c0-0.2,0.1-0.3,0.3-0.4
		s0.5-0.2,0.8-0.2c0.3,0,0.7-0.1,1.1-0.1c0.4,0,0.8,0,1.1,0c0.4,0,0.7,0,1,0s0.5,0,0.6,0c0.3-1.4,0.6-2.8,1.1-4.1
		c0.4-1.3,0.9-2.5,1.5-3.6c0.5-1,1.1-1.9,1.8-2.5c0.6-0.6,1.3-0.9,2-0.9c0.5,0,0.9,0.1,1.2,0.4s0.7,0.6,1,1s0.5,0.9,0.6,1.5
		c0.1,0.6,0.2,1.2,0.2,1.8c0,0.5-0.1,1-0.2,1.6c-0.1,0.6-0.4,1.1-0.6,1.7s-0.6,1.2-0.9,1.8c-0.3,0.6-0.7,1.2-1.1,1.8
		c0.1,0,0.3,0,0.5,0c0.2,0,0.5,0,0.8,0c0.3,0,0.6,0,0.9,0s0.7,0,1,0s0.6,0,0.9,0c0.3,0,0.5,0,0.7,0c0.2,0,0.4,0.1,0.5,0.4
		s0.1,0.5,0.1,0.9c0,0.4-0.1,0.7-0.3,1c-0.2,0.2-0.4,0.4-0.7,0.4H145c-0.3,0.4-0.6,0.8-0.9,1.2s-0.6,0.8-0.9,1.1
		c0,0.7-0.1,1.3-0.1,1.9c0,0.3,0,0.6,0,0.9c0,0.3,0,0.6,0,0.9c0,0.3,0,0.6,0,0.8c0,0.3,0,0.5,0,0.7c0,0.6,0.1,1.1,0.2,1.4
		c0.1,0.4,0.3,0.7,0.5,1c0.2,0.2,0.4,0.4,0.7,0.5c0.3,0.1,0.6,0.2,1,0.2c0.2,0,0.5-0.1,0.8-0.2s0.7-0.3,1.1-0.4
		c0.4-0.2,0.8-0.4,1.3-0.7s0.9-0.5,1.3-0.8c0.4-0.3,0.8-0.6,1.2-1c0.4-0.3,0.7-0.7,1.1-1L152.2,181.1L152.2,181.1z M147.1,161
		c0-0.1,0-0.2,0-0.4s-0.1-0.3-0.1-0.4c-0.1-0.1-0.1-0.2-0.2-0.3c-0.1-0.1-0.3-0.1-0.5-0.1c-0.3,0-0.6,0.2-0.8,0.7s-0.6,1.1-0.8,1.9
		c-0.3,0.8-0.5,1.6-0.7,2.5c-0.2,0.9-0.4,1.8-0.6,2.6c0.2,0,0.3,0,0.5,0c0.2,0,0.3,0,0.5,0c0.3-0.5,0.7-1.1,1-1.7
		c0.3-0.6,0.7-1.2,0.9-1.8c0.3-0.6,0.5-1.2,0.7-1.7C147,161.8,147.1,161.3,147.1,161z"/>
	<path fill="#FFFFFF" d="M156.3,184.7c-1,0-1.9-0.2-2.6-0.6c-0.7-0.4-1.4-0.9-1.9-1.5c-0.5-0.6-0.9-1.3-1.1-2.2
		c-0.2-0.8-0.4-1.7-0.4-2.6c0-0.6,0.1-1.3,0.3-2.1s0.5-1.5,0.7-2.2s0.5-1.2,0.9-1.8c0.4-0.6,0.8-1.1,1.3-1.5c0.5-0.4,1-0.8,1.6-1
		c0.6-0.3,1.3-0.4,2-0.4c0.6,0,1.1,0.1,1.7,0.3c0.5,0.2,1,0.5,1.3,0.8c0.4,0.3,0.7,0.8,0.9,1.2c0.2,0.5,0.3,1,0.3,1.6
		c0,0.6-0.2,1.4-0.6,2.2c-0.4,0.8-0.9,1.5-1.5,2.1c-0.6,0.6-1.3,1.1-2,1.5s-1.6,0.8-2.6,1c0.2,0.3,0.3,0.5,0.5,0.7
		c0.2,0.2,0.3,0.3,0.5,0.4c0.2,0.1,0.3,0.2,0.5,0.2c0.2,0,0.4,0.1,0.6,0.1c0.6,0,1.3-0.1,2-0.4c0.7-0.2,1.4-0.6,2.1-0.9
		c0.7-0.4,1.3-0.8,1.9-1.2c0.6-0.4,1.1-0.9,1.5-1.3l2.1,2.1c-0.9,1-1.9,1.9-3,2.6c-0.5,0.3-0.9,0.6-1.5,1s-1.1,0.6-1.7,0.8
		c-0.6,0.2-1.2,0.4-1.8,0.6C157.5,184.6,156.9,184.7,156.3,184.7z M154.2,177.1c0.4,0,0.8-0.1,1.3-0.3c0.5-0.2,0.9-0.4,1.3-0.7
		s0.8-0.7,1.1-1.2c0.4-0.5,0.6-0.9,0.6-1.3c0-0.5-0.1-0.9-0.3-1.2c-0.2-0.3-0.4-0.5-0.6-0.5c-0.5,0-0.8,0.1-1.2,0.2
		s-0.6,0.4-0.8,0.6s-0.4,0.6-0.5,0.9c-0.1,0.3-0.3,0.8-0.5,1.3c-0.2,0.5-0.3,0.9-0.3,1.2S154.2,176.9,154.2,177.1z"/>
	<path fill="#FFFFFF" d="M162.9,181.4c0-0.5,0-1,0.1-1.6c0.1-0.6,0.1-1.3,0.2-2c0.1-0.7,0.2-1.4,0.3-2.1c0.1-0.7,0.3-1.5,0.5-2.3
		s0.4-1.5,0.5-2s0.3-1,0.4-1.3c0.1-0.2,0.2-0.4,0.3-0.6c0.1-0.1,0.2-0.2,0.3-0.3c0.1-0.1,0.2-0.1,0.4-0.2c0.2,0,0.4,0,0.6,0
		c0.3,0,0.5,0,0.6,0c0.2,0,0.3,0.1,0.3,0.2c0.1,0.1,0.1,0.2,0.1,0.4c0,0.2,0,0.5,0,0.8c0,0.4,0,0.9-0.1,1.7c-0.1,0.7-0.1,1.4,0,1.9
		h0.2c0.2-0.4,0.5-1,0.8-1.7s0.7-1.3,1-1.7c0.4-0.5,0.7-0.8,1.2-1.2c0.4-0.3,1-0.5,1.5-0.5c0.2,0,0.4,0,0.6,0.1
		c0.2,0.1,0.4,0.2,0.5,0.3s0.3,0.3,0.3,0.5c0.1,0.2,0.1,0.4,0.1,0.6c0,0.2,0,0.4-0.1,0.8c-0.1,0.3-0.1,0.7-0.3,1.3
		c-0.1,0.5-0.2,0.9-0.3,1.3c-0.1,0.3-0.1,0.6-0.1,0.8c0,0.4,0,0.7,0.1,1c0.1,0.3,0.2,0.5,0.3,0.6c0.1,0.2,0.3,0.3,0.4,0.3
		c0.2,0.1,0.3,0.1,0.5,0.1c0.5,0,1-0.1,1.5-0.3c0.5-0.2,1-0.4,1.4-0.7c0.5-0.3,1-0.7,1.5-1.1l-0.2,3.7c-0.3,0.2-0.6,0.4-0.9,0.6
		c-0.4,0.2-0.7,0.4-1.1,0.6c-0.4,0.2-0.8,0.4-1.2,0.5c-0.4,0.1-0.9,0.2-1.3,0.2c-0.8,0-1.4-0.2-1.9-0.5c-0.5-0.3-0.9-0.7-1.2-1.3
		c-0.3-0.5-0.5-1.1-0.6-1.8c-0.1-0.7-0.2-1.3-0.3-2h-0.3l-2.8,7.9c-0.1,0.4-0.3,0.8-0.4,1c-0.1,0.3-0.3,0.5-0.4,0.7
		s-0.3,0.3-0.4,0.4c-0.2,0.1-0.3,0.1-0.5,0.1c-0.4,0-0.8-0.1-1.1-0.3s-0.5-0.4-0.6-0.7c-0.1-0.3-0.2-0.7-0.3-1.1
		C163,182.2,162.9,181.8,162.9,181.4z"/>
	<path fill="#FFFFFF" d="M182.9,185l0.4-1.9c-0.6,0.5-1.2,0.9-1.8,1.2s-1.2,0.5-1.8,0.5c-0.5,0-1-0.1-1.5-0.3
		c-0.5-0.2-0.9-0.5-1.3-0.9c-0.4-0.4-0.7-0.9-0.9-1.4s-0.3-1.2-0.3-1.9c0-0.9,0.1-1.8,0.2-2.5c0.1-0.8,0.3-1.7,0.5-2.8
		c0.2-1.1,0.4-2,0.7-2.7c0.3-0.7,0.5-1.3,0.9-2c0.2-0.5,0.6-0.8,1-1.1c0.5-0.2,0.9-0.4,1.3-0.4c0.4,0,0.7,0.1,1,0.3s0.4,0.5,0.4,0.9
		c0,0.1,0,0.2,0,0.4s-0.1,0.3-0.1,0.4c-0.2,0.5-0.3,1.1-0.5,1.7s-0.3,1.6-0.5,2.7c-0.2,1.1-0.4,2-0.5,2.7c-0.1,0.7-0.2,1.2-0.2,1.8
		c0,0.3,0,0.5,0.1,0.8c0,0.3,0.1,0.5,0.2,0.7c0.1,0.2,0.2,0.4,0.4,0.5s0.4,0.2,0.6,0.2c0.4,0,0.7-0.2,1.1-0.5
		c0.3-0.3,0.6-0.8,0.8-1.2c0.2-0.5,0.4-1,0.6-1.5s0.2-0.9,0.3-1.3l1.3-5.9c0.1-0.4,0.2-0.7,0.4-1c0.2-0.3,0.5-0.5,0.7-0.7
		c0.3-0.2,0.6-0.3,0.9-0.4s0.6-0.1,0.9-0.1c0.3,0,0.6,0.1,0.8,0.2c0.2,0.1,0.3,0.4,0.3,0.7c0,0.1,0,0.2,0,0.3
		c-0.1,0.3-0.1,0.7-0.2,1.1c-0.1,0.5-0.2,1-0.3,1.6s-0.3,1.5-0.4,2.6s-0.3,2-0.5,2.6c-0.3,1.6-0.5,3.3-0.8,5.1
		c0.3-0.2,0.7-0.4,1-0.7c0.4-0.3,0.8-0.6,1.2-1.1s1-1,1.5-1.7c0.6-0.7,1.3-2,2.5-1.8c0.9,0.2,0.7,2,0.2,2.8c-0.4,0.6-0.4,0.7-0.7,1
		c-0.3,0.4-0.7,0.7-1,1c-0.5,0.5-0.9,0.8-1.1,1c-0.1,0.1-0.5,0.4-1.2,0.9c-0.2,0.2-0.9,0.7-2.1,1.5c-0.3,0.2-0.5,0.5-0.6,1
		c-0.1,0.5-0.2,1.4-0.4,2.8c-0.1,0.4-0.1,0.7-0.1,0.9c-0.1,0.5-0.1,1-0.2,1.4c-0.1,0.5-0.2,1-0.3,1.6c-0.1,0.6-0.3,1.1-0.5,1.6
		c-0.2,0.5-0.5,1-0.8,1.5c-0.3,0.5-0.7,0.9-1.1,1.2c-0.4,0.3-0.9,0.6-1.4,0.8c-0.6,0.2-1.2,0.3-1.8,0.3c-0.5,0-1-0.1-1.5-0.2
		s-0.9-0.3-1.3-0.6s-0.7-0.6-0.9-1s-0.4-1-0.4-1.5c-0.1-1.1,0.2-2.3,0.9-3.6c0.4-0.7,0.7-1.2,0.8-1.5c0.2-0.3,0.4-0.7,0.7-1.2
		c0.3-0.5,0.7-0.9,1.1-1.4c0.7-0.8,1.4-1.5,1.8-2C181.6,186.1,182.2,185.5,182.9,185z M182.9,188.8c-0.7,0.5-1.5,1.4-2.2,2.5
		s-1.3,2.4-1.7,3.6c-0.4,1-0.2,1.5,0.5,1.5c0.3,0,0.5,0,0.7-0.1c0.2-0.1,0.4-0.2,0.6-0.3c0.2-0.2,0.3-0.3,0.4-0.5
		c0.1-0.2,0.3-0.5,0.4-0.8c0.1-0.4,0.3-0.7,0.4-1.1c0.1-0.3,0.3-0.8,0.4-1.4c0.1-0.3,0.2-0.6,0.2-1c0-0.4,0.1-0.8,0.2-1.4
		C182.9,189.3,182.9,188.9,182.9,188.8z"/>
</g>
<g>
	<path fill="#FFFFFF" d="M131.4,206.1c0-0.8,0.2-1.5,0.5-2.3c0.3-0.8,0.8-1.5,1.3-2.2c0.6-0.7,1.2-1.3,2-1.8s1.6-0.9,2.6-1.2
		c-0.5-0.4-0.9-0.8-1.3-1.3c-0.4-0.4-0.7-0.9-1-1.3c-0.3-0.5-0.5-0.9-0.7-1.4c-0.2-0.5-0.2-0.9-0.2-1.4c0-0.6,0.1-1.1,0.2-1.6
		c0.1-0.5,0.3-1,0.6-1.4c0.2-0.4,0.5-0.8,0.8-1.2c0.3-0.4,0.7-0.6,1-0.9c0.4-0.2,0.7-0.4,1.1-0.5s0.8-0.2,1.1-0.2
		c0.5,0,1,0.2,1.4,0.4c0.5,0.3,0.9,0.7,1.2,1.3c0.3,0.6,0.6,1.3,0.8,2.2c0.2,0.9,0.3,2,0.2,3.3c0,0.4-0.1,1.1-0.2,2.1
		s-0.3,2-0.4,2.9c0.3,0.2,0.7,0.4,1,0.7c0.3,0.2,0.7,0.4,1,0.6c0.1,0,0.2,0.1,0.3,0.2c0.1,0.1,0.2,0.1,0.3,0.2
		c0.1,0.1,0.2,0.1,0.3,0.2c0.1,0.1,0.1,0.1,0.1,0.2c0,0.1,0,0.1-0.1,0.2c0,0.1-0.1,0.1-0.2,0.1c-0.1,0-0.1,0.1-0.2,0.1
		c-0.1,0-0.1,0.1-0.1,0.1c-0.1,0-0.2,0.1-0.4,0.1c-0.3,0-0.7-0.1-1.1-0.2c-0.4-0.1-0.8-0.3-1.3-0.5c-0.3,1-0.6,2-1,2.8
		s-0.8,1.6-1.2,2.3c-0.4,0.7-0.9,1.3-1.4,1.7c-0.5,0.5-1,0.9-1.4,1.2s-1,0.6-1.4,0.7s-0.9,0.2-1.3,0.2c-0.4,0-0.9-0.1-1.2-0.3
		c-0.4-0.2-0.7-0.5-1-0.8c-0.3-0.4-0.5-0.8-0.6-1.3C131.4,207.4,131.4,206.8,131.4,206.1z M133.5,206.7c0,0.6,0.1,1,0.3,1.3
		s0.5,0.5,0.9,0.5c0.4,0,0.8-0.1,1.3-0.4s1-0.8,1.5-1.5s1-1.5,1.4-2.6s0.9-2.3,1.2-3.7l-0.3-0.2c-0.6,0.1-1.1,0.3-1.7,0.5
		s-1,0.6-1.5,0.9s-0.9,0.8-1.2,1.2c-0.4,0.4-0.7,0.9-1,1.4s-0.5,0.9-0.6,1.3C133.6,206,133.5,206.4,133.5,206.7z M136.7,192.8
		c0,0.4,0.1,0.9,0.2,1.3c0.2,0.4,0.4,0.9,0.8,1.3c0.3,0.4,0.7,0.9,1.2,1.3c0.5,0.4,1,0.9,1.6,1.3c0.1-0.8,0.2-1.6,0.3-2.5
		s0.2-1.8,0.2-2.7c0-0.7,0-1.2-0.1-1.7c-0.1-0.5-0.2-0.8-0.3-1.1s-0.3-0.5-0.5-0.6c-0.2-0.1-0.4-0.2-0.6-0.2c-0.2,0-0.4,0-0.6,0.1
		c-0.2,0.1-0.4,0.2-0.6,0.4s-0.4,0.4-0.6,0.6s-0.4,0.5-0.5,0.7c-0.1,0.3-0.3,0.5-0.3,0.8C136.8,192.2,136.7,192.5,136.7,192.8z"/>
	<path fill="#FFFFFF" d="M149.4,198.1c0.2,0.3,0.3,0.7,0.3,1c0.1,0.4,0.1,0.8,0.1,1.2c0,0.3-0.1,0.7-0.1,1s-0.2,0.7-0.3,1
		s-0.3,0.6-0.5,0.9c-0.2,0.3-0.4,0.5-0.7,0.7c-0.3,0.2-0.5,0.3-0.9,0.5c-0.3,0.1-0.6,0.2-1,0.1c-0.5,0-0.9-0.1-1.3-0.4
		s-0.6-0.5-0.8-0.9s-0.4-0.8-0.5-1.2c-0.1-0.4-0.1-0.9-0.1-1.3c0-0.7,0.1-1.4,0.3-1.9s0.5-1,0.8-1.4c0.4-0.4,0.8-0.7,1.3-0.9
		s1.1-0.3,1.7-0.3c0.5,0,1,0.1,1.5,0.3c0.5,0.2,0.9,0.4,1.3,0.7s0.8,0.7,1.1,1.1s0.6,0.8,0.9,1.2l-0.2,1.2c-0.1-0.2-0.3-0.4-0.6-0.7
		s-0.5-0.5-0.8-0.8c-0.3-0.3-0.6-0.5-0.8-0.8S149.7,198.1,149.4,198.1L149.4,198.1z M146.6,202.8c0.2,0,0.4-0.1,0.6-0.3
		s0.4-0.4,0.5-0.7c0.1-0.3,0.3-0.6,0.4-1.1c0.1-0.4,0.1-0.8,0.2-1.1c0-0.3,0-0.5,0-0.7s-0.1-0.4-0.2-0.6s-0.2-0.3-0.3-0.4
		c-0.1-0.1-0.3-0.2-0.4-0.2c-0.2,0-0.5,0.1-0.7,0.3c-0.2,0.2-0.4,0.4-0.6,0.7c-0.2,0.3-0.3,0.6-0.4,1s-0.2,0.8-0.2,1.2
		c0,0.2,0,0.5,0,0.7c0,0.2,0.1,0.4,0.2,0.6c0.1,0.2,0.2,0.3,0.4,0.4C146.2,202.8,146.4,202.8,146.6,202.8z"/>
	<path fill="#FFFFFF" d="M154.1,204.7c-0.5,0-1-0.1-1.4-0.3c-0.4-0.2-0.7-0.5-1-0.8c-0.3-0.3-0.4-0.7-0.6-1.2s-0.2-0.9-0.2-1.4
		c0-0.3,0.1-0.7,0.2-1.1s0.3-0.8,0.4-1.1c0.1-0.3,0.3-0.6,0.5-0.9c0.2-0.3,0.4-0.6,0.7-0.8c0.3-0.2,0.6-0.4,0.9-0.5
		c0.3-0.1,0.7-0.2,1.1-0.2c0.3,0,0.6,0.1,0.9,0.2s0.5,0.3,0.7,0.4s0.3,0.4,0.4,0.7c0.1,0.3,0.1,0.6,0.1,0.9c0,0.3-0.1,0.7-0.4,1.1
		s-0.5,0.8-0.8,1.1c-0.3,0.3-0.7,0.5-1.1,0.8c-0.4,0.2-0.9,0.4-1.4,0.5c0.1,0.2,0.2,0.3,0.2,0.4c0.1,0.1,0.2,0.2,0.2,0.2
		c0.1,0.1,0.2,0.1,0.3,0.1s0.2,0,0.3,0c0.3,0,0.7,0,1.1-0.2c0.4-0.1,0.7-0.3,1.1-0.5s0.7-0.4,1-0.6c0.3-0.2,0.6-0.4,0.9-0.4
		c0.6-0.1,1.4,0.2,1,0.9c-0.5,0.7-1.1,1-1.6,1.3c-0.2,0.2-0.5,0.3-0.8,0.5c-0.3,0.2-0.6,0.3-0.9,0.4c-0.3,0.1-0.6,0.2-1,0.3
		C154.8,204.7,154.4,204.7,154.1,204.7z M153.1,200.7c0.2,0,0.4,0,0.7-0.1c0.2-0.1,0.5-0.2,0.7-0.4c0.2-0.2,0.4-0.4,0.6-0.6
		c0.2-0.3,0.3-0.5,0.3-0.7c0-0.2,0-0.5-0.1-0.6c-0.1-0.2-0.2-0.2-0.3-0.2c-0.2,0-0.5,0-0.6,0.1c-0.2,0.1-0.3,0.2-0.4,0.3
		s-0.2,0.3-0.3,0.5s-0.2,0.4-0.3,0.7c-0.1,0.3-0.2,0.5-0.2,0.6C153.1,200.4,153.1,200.5,153.1,200.7z"/>
	<path fill="#FFFFFF" d="M159.4,197.1c0-0.1,0-0.2,0-0.3c0-0.1,0-0.3,0-0.4c0-0.2,0-0.3,0-0.5c0-0.2,0-0.3,0.1-0.5
		c0-0.4,0.1-0.8,0.1-1.2c0-0.1,0-0.3,0.1-0.4c0.1-0.1,0.2-0.2,0.3-0.3c0.1-0.1,0.3-0.1,0.5-0.2s0.3-0.1,0.5-0.1c0.1,0,0.3,0,0.4,0
		s0.3,0.1,0.4,0.1c0.1,0.1,0.2,0.1,0.2,0.2c0.1,0.1,0.1,0.2,0.1,0.3c0,0.1,0,0.1,0,0.2c0,0.1,0,0.1-0.1,0.2
		c-0.1,0.2-0.2,0.4-0.3,0.7c-0.1,0.3-0.2,0.5-0.3,0.8s-0.2,0.5-0.3,0.7c-0.1,0.2-0.2,0.4-0.3,0.6c-0.1,0.2-0.2,0.4-0.4,0.5
		s-0.4,0.2-0.5,0.2s-0.3-0.1-0.5-0.2S159.4,197.4,159.4,197.1z"/>
	<path fill="#FFFFFF" d="M161.5,201.3c0.3-0.3,0.6-0.5,0.8-0.7c0.2-0.2,0.4-0.4,0.6-0.6c0.2-0.2,0.4-0.4,0.5-0.6s0.3-0.3,0.4-0.5
		c0.2-0.2,0.4-0.5,0.6-0.8c0.2-0.3,0.5-0.7,0.9-1.1c0.1-0.1,0.2-0.2,0.3-0.3c0.1-0.1,0.2-0.2,0.3-0.2s0.2-0.1,0.4-0.2
		s0.3-0.1,0.4-0.1c0.3,0,0.5,0,0.6,0.1c0.1,0.1,0.2,0.1,0.3,0.2c0.1,0.1,0.1,0.2,0.1,0.3c0,0.1,0,0.2,0,0.2c0,0.1-0.1,0.3-0.2,0.4
		c-0.1,0.2-0.2,0.3-0.4,0.5c-0.1,0.1-0.3,0.3-0.4,0.4c-0.1,0.1-0.2,0.2-0.2,0.3c0,0.2,0,0.3,0,0.5c0,0.1,0.1,0.3,0.1,0.4
		c0,0.1,0.1,0.3,0.1,0.4c0,0.2,0.1,0.3,0.1,0.5c0,0.2,0,0.5,0,0.8s-0.1,0.7-0.1,1.1c0.2-0.1,0.4-0.2,0.7-0.3
		c0.2-0.1,0.5-0.2,0.7-0.3s0.5-0.2,0.8-0.4c0.3-0.1,0.7-0.3,1.1,0c0.4,0.3,0.1,1-0.4,1.4c-0.3,0.3-0.8,0.5-1.2,0.7
		c-0.5,0.2-1,0.4-1.5,0.6c-0.5,0.2-1,0.3-1.5,0.4s-1,0.1-1.5,0.1c-0.3,0-0.6-0.1-0.9-0.1s-0.5-0.2-0.7-0.3s-0.4-0.3-0.5-0.5
		c-0.1-0.2-0.2-0.5-0.2-0.7c-0.1,0-0.2,0-0.2,0s-0.2,0-0.2,0c-0.1,0-0.2,0-0.3,0c-0.1,0-0.1,0-0.2-0.1c-0.1,0-0.1-0.1-0.1-0.2
		c0-0.1,0-0.2,0-0.4c0-0.1,0-0.3,0.1-0.4c0.1-0.1,0.2-0.2,0.2-0.3c0.1-0.1,0.2-0.2,0.3-0.2C161.3,201.4,161.4,201.3,161.5,201.3z
		 M162.5,202.4c0.1,0,0.1,0,0.2,0.1c0.1,0.1,0.2,0.2,0.3,0.3c0.1,0.1,0.2,0.2,0.4,0.3c0.1,0.1,0.3,0.1,0.5,0.1c0.2,0,0.4,0,0.5-0.1
		c0.1-0.1,0.3-0.2,0.4-0.3c0.1-0.1,0.2-0.3,0.2-0.4s0.1-0.3,0.1-0.5c0-0.2,0-0.3,0-0.5c0-0.2,0-0.4,0-0.6c0-0.2,0-0.4,0-0.5
		s-0.1-0.2-0.1-0.3L162.5,202.4z"/>
</g>
</svg>
