<?xml version="1.0" encoding="utf-8"?>
<!-- Generator: Adobe Illustrator 17.0.2, SVG Export Plug-In . SVG Version: 6.00 Build 0)  -->
<!DOCTYPE svg PUBLIC "-//W3C//DTD SVG 1.1//EN" "http://www.w3.org/Graphics/SVG/1.1/DTD/svg11.dtd">
<svg version="1.1" id="Isolation_Mode" xmlns="http://www.w3.org/2000/svg" xmlns:xlink="http://www.w3.org/1999/xlink" x="0px"
	 y="0px" width="44.2px" height="50.6px" viewBox="0 0 44.2 50.6" enable-background="new 0 0 44.2 50.6" xml:space="preserve">
<g>
	<path fill="#160B0C" d="M38.8,32.6c6.4-6.9,6.9-16.4,2.1-23.9C36.4,1.6,27.5-1.6,18.4,0.6c-0.124,0.064-0.249,0.131-0.373,0.195
		c-3.849,0.72-7.174,2.314-9.821,5.096C8.07,5.959,7.937,6.031,7.8,6.1c-5.5,4.2-8.1,10-7.8,17.2c0.1,5.9,2.6,10.6,7.3,14
		c-0.09-0.176-0.183-0.348-0.273-0.524C7.12,36.883,7.205,36.994,7.3,37.1c6.1,4.8,12.8,5.4,19.7,3.3c2.6-0.8,4.2-0.3,6,2
		c2.2,2.9,4.6,5.9,8.9,8c-1.6-3.4-2.7-6-4-8.4C36,38.5,35.7,35.9,38.8,32.6z"/>
	<path fill="#F6AECC" d="M19.8,18.9c1.1-2.2,1.6-3.5,2.3-4.5c1.6-2.3,3.7-3.9,6.8-2.9c3,1,4.9,3,4.8,6.2c-0.3,7-4.8,11.8-9.2,16.6
		c-0.7,0.7-1.5,0.5-2.2,0c-4.5-3-9.4-5.7-12.2-10.7c-1.8-3.1-3.1-6.9,0.2-9.5s6.1,0.3,8.6,2.6C19.2,17.1,19.3,17.8,19.8,18.9z"/>
</g>
</svg>
