<?xml version="1.0" encoding="utf-8"?>
<!-- Generator: Adobe Illustrator 17.0.2, SVG Export Plug-In . SVG Version: 6.00 Build 0)  -->
<!DOCTYPE svg PUBLIC "-//W3C//DTD SVG 1.1//EN" "http://www.w3.org/Graphics/SVG/1.1/DTD/svg11.dtd">
<svg version="1.1" id="Isolation_Mode" xmlns="http://www.w3.org/2000/svg" xmlns:xlink="http://www.w3.org/1999/xlink" x="0px"
	 y="0px" width="44.2px" height="50.6px" viewBox="0 0 44.2 50.6" enable-background="new 0 0 44.2 50.6" xml:space="preserve">
<g>
	<g>
		<path fill="#231F20" d="M0,23.3c-0.3-7.2,2.3-13,7.8-17.2c3.6-1.8,7.1-3.7,10.6-5.5c9.1-2.2,18,1,22.5,8.1
			c4.8,7.5,4.3,17-2.1,23.9c-3.1,3.3-2.8,5.9-0.9,9.4c1.3,2.4,2.4,5,4,8.4c-4.3-2.1-6.7-5.1-8.9-8c-1.8-2.3-3.4-2.8-6-2
			c-6.9,2.1-13.6,1.5-19.7-3.3C3.8,33.2,1.4,28.6,0,23.3z"/>
		<path fill="#1F1C1C" d="M0,23.3c2.4,4.7,4.9,9.3,7.3,14C2.6,33.9,0.1,29.2,0,23.3z"/>
		<path fill="#040203" d="M18.5,0.7c-2.8,3.2-6.3,5.1-10.6,5.5C10.7,3.1,14.3,1.4,18.5,0.7z"/>
	</g>
	<path fill="#F6AECC" d="M19.8,18.9c1.1-2.2,1.6-3.5,2.3-4.5c1.6-2.3,3.7-3.9,6.8-2.9c3,1,4.9,3,4.8,6.2c-0.3,7-4.8,11.8-9.2,16.6
		c-0.7,0.7-1.5,0.5-2.2,0c-4.5-3-9.4-5.7-12.2-10.7c-1.8-3.1-3.1-6.9,0.2-9.5c3.3-2.6,6.1,0.3,8.6,2.6
		C19.2,17.1,19.3,17.8,19.8,18.9z"/>
</g>
</svg>
